<svg width="56" height="38" viewBox="0 0 56 38" fill="none" xmlns="http://www.w3.org/2000/svg">
<path d="M55.6582 18.1748L38.1582 0.674832C37.7024 0.219066 36.9642 0.219066 36.5085 0.674832C36.0527 1.1306 36.0527 1.86888 36.5085 2.32453L52.017 17.833H1.1667C0.521828 17.833 0 18.3549 0 18.9997C0 19.6446 0.521828 20.1664 1.1667 20.1664H52.017L36.5085 35.6748C36.0527 36.1306 36.0527 36.8689 36.5085 37.3245C36.7363 37.5524 37.0349 37.6663 37.3334 37.6663C37.6319 37.6663 37.9304 37.5524 38.1583 37.3245L55.6583 19.8245C56.114 19.3689 56.114 18.6306 55.6582 18.1748Z" fill="white"/>
</svg>
