<svg width="1159" height="1172" viewBox="0 0 1159 1172" fill="none" xmlns="http://www.w3.org/2000/svg">
<path d="M1126.89 435.975C1149.96 530.253 1114.31 630.457 1035.97 709.923C960.434 786.538 855.381 832.913 757.361 830.29C649.801 827.412 555.513 794.118 490.564 731.595C416.827 660.612 383.099 554.995 397.013 416.58C407.04 316.824 429.28 269.513 467.714 258.007C484.414 253.008 504.185 254.514 530.169 261.752C540.828 264.721 552.41 268.587 567.391 274.057C574.914 276.804 602.869 287.314 608.45 289.374C670.316 312.209 713.785 323.22 762.265 324.517C804.427 325.645 841.439 322.965 895.528 316.342C900.789 315.698 921.298 313.14 917.497 313.612C926.136 312.538 932.385 311.783 938.405 311.096C953.712 309.348 965.911 308.246 977.096 307.684C1003.87 306.339 1024.59 308.211 1042.42 314.25C1083.07 328.02 1109.42 364.549 1126.89 435.975ZM1125.22 436.345C1107.88 365.435 1081.87 329.394 1041.88 315.847C1024.3 309.89 1003.79 308.036 977.211 309.371C966.068 309.931 953.904 311.029 938.63 312.774C932.617 313.46 926.373 314.215 917.739 315.288C921.542 314.815 901.03 317.374 895.767 318.018C841.599 324.651 804.512 327.336 762.246 326.206C713.531 324.902 669.9 313.85 607.869 290.954C602.281 288.891 574.329 278.383 566.816 275.639C551.875 270.184 540.333 266.331 529.726 263.376C504.031 256.219 484.564 254.736 468.238 259.624C430.666 270.872 408.688 317.624 398.722 416.773C384.858 554.7 418.42 659.801 491.756 730.397C556.359 792.588 650.228 825.734 757.38 828.601C854.9 831.211 959.506 785.033 1034.73 708.737C1112.7 629.653 1148.14 530.013 1125.22 436.345Z" fill="url(#paint0_linear)" fill-opacity="0.35"/>
<path d="M1160.44 425.783C1185.63 528.749 1146.7 638.19 1061.13 724.985C978.627 808.668 863.883 859.321 756.824 856.456C639.339 853.313 536.353 816.948 465.416 748.66C384.88 671.132 348.043 555.775 363.24 404.586C374.191 295.636 398.476 243.977 440.423 231.419C458.649 225.963 480.234 227.608 508.607 235.511C520.249 238.753 532.9 242.977 549.264 248.952C557.482 251.952 588.022 263.434 594.118 265.684C661.711 290.633 709.207 302.664 762.18 304.082C808.244 305.314 848.681 302.386 907.774 295.15C913.522 294.446 935.927 291.652 931.775 292.168C941.212 290.995 948.038 290.17 954.615 289.419C971.336 287.509 984.661 286.306 996.877 285.693C1026.12 284.224 1048.75 286.268 1068.21 292.861C1112.58 307.894 1141.36 347.777 1160.44 425.783ZM1158.77 426.153C1139.82 348.663 1111.39 309.268 1067.67 294.458C1048.45 287.946 1026.03 285.921 996.992 287.38C984.818 287.991 971.527 289.191 954.84 291.097C948.27 291.847 941.449 292.671 932.017 293.844C936.171 293.327 913.763 296.122 908.013 296.826C848.842 304.072 808.329 307.005 762.16 305.77C708.953 304.346 661.296 292.274 593.537 267.265C587.433 265.011 556.897 253.531 548.688 250.534C532.365 244.574 519.754 240.364 508.163 237.135C480.08 229.313 458.799 227.691 440.947 233.036C399.861 245.336 375.839 296.436 364.949 404.779C349.801 555.48 386.474 670.322 466.608 747.463C537.2 815.418 639.766 851.635 756.843 854.768C863.402 857.619 977.699 807.163 1059.89 723.799C1145.08 637.386 1183.81 528.508 1158.77 426.153Z" fill="url(#paint1_linear)" fill-opacity="0.35"/>
<path d="M1199.87 413.804C1227.55 526.98 1184.76 647.277 1090.7 742.685C1000.01 834.674 873.874 890.355 756.192 887.206C627.043 883.75 513.836 843.776 435.862 768.714C347.336 683.495 306.843 556.691 323.549 390.49C335.587 270.735 362.273 213.967 408.349 200.173C428.37 194.179 452.087 195.986 483.267 204.671C496.064 208.236 509.971 212.878 527.96 219.447C536.995 222.746 570.572 235.369 577.275 237.843C651.599 265.277 703.826 278.506 762.079 280.065C812.73 281.42 857.192 278.201 922.166 270.245C928.485 269.471 953.119 266.398 948.554 266.965C958.929 265.676 966.434 264.769 973.664 263.943C992.046 261.844 1006.69 260.521 1020.12 259.847C1052.26 258.233 1077.13 260.479 1098.52 267.724C1147.27 284.241 1178.89 328.066 1199.87 413.804ZM1198.2 414.174C1177.35 328.952 1146.08 285.615 1097.98 269.32C1076.84 262.157 1052.18 259.93 1020.24 261.534C1006.85 262.206 992.238 263.526 973.889 265.621C966.666 266.446 959.166 267.353 948.796 268.641C953.363 268.074 928.727 271.147 922.405 271.921C857.353 279.887 812.815 283.111 762.06 281.753C703.572 280.188 651.183 266.918 576.695 239.424C569.983 236.946 536.41 224.325 527.385 221.029C509.436 214.475 495.569 209.846 482.823 206.296C451.932 197.691 428.52 195.908 408.873 201.789C363.659 215.325 337.235 271.535 325.259 390.683C308.601 556.396 348.93 682.684 437.053 767.516C514.683 842.247 627.47 882.073 756.211 885.518C873.393 888.653 999.08 833.169 1089.46 741.499C1183.14 646.472 1225.73 526.739 1198.2 414.174Z" fill="url(#paint2_linear)" fill-opacity="0.35"/>
<path d="M1236.88 402.558C1266.91 525.318 1220.49 655.806 1118.46 759.3C1020.08 859.087 883.253 919.487 755.6 916.072C615.501 912.323 492.699 868.961 408.118 787.539C312.093 695.1 268.168 557.55 286.291 377.257C299.348 247.359 328.289 185.794 378.241 170.839C399.946 164.342 425.664 166.301 459.479 175.72C473.361 179.587 488.447 184.623 507.962 191.749C517.764 195.328 554.192 209.023 561.465 211.707C642.106 241.473 698.775 255.827 761.984 257.519C816.94 258.989 865.182 255.496 935.676 246.864C942.532 246.024 969.257 242.691 964.305 243.306C975.561 241.907 983.703 240.924 991.547 240.028C1011.49 237.75 1027.38 236.316 1041.95 235.584C1076.81 233.833 1103.78 236.269 1126.97 244.126C1179.84 262.036 1214.13 309.562 1236.88 402.558ZM1235.21 402.928C1212.58 310.448 1178.65 263.41 1126.43 245.722C1103.48 237.948 1076.72 235.53 1042.06 237.271C1027.54 238 1011.68 239.432 991.772 241.706C983.935 242.601 975.798 243.584 964.547 244.982C969.502 244.366 942.773 247.7 935.915 248.54C865.342 257.182 817.026 260.68 761.965 259.207C727.226 258.278 692.337 252.977 655.665 243.688C626.321 236.254 597.926 226.96 560.884 213.288C553.603 210.6 517.179 196.906 507.387 193.331C487.912 186.22 472.865 181.197 459.035 177.345C425.509 168.006 400.096 166.07 378.765 172.456C329.675 187.152 300.996 248.159 288 377.45C269.926 557.255 313.686 694.289 409.309 786.341C493.546 867.431 615.928 910.646 755.619 914.383C882.772 917.785 1019.15 857.582 1117.22 758.114C1218.87 655.002 1265.09 525.078 1235.21 402.928Z" fill="url(#paint3_linear)" fill-opacity="0.22"/>
<g opacity="0.6">
<path opacity="0.6" d="M1279.73 407.667C1310.93 540.045 1258.72 678.515 1146.22 786.472C1037.74 890.565 887.855 951.357 748.76 944.041C596.1 936.011 462.788 886.035 371.611 796.379C268.098 694.593 221.933 545.967 243.93 353.319C259.778 214.526 292.084 149.407 346.693 134.823C370.42 128.486 398.42 131.321 435.155 142.379C450.238 146.92 466.62 152.748 487.802 160.942C498.443 165.057 537.982 180.775 545.877 183.86C586.031 199.55 616.813 210.303 648.633 219.087C688.368 230.057 726.201 236.713 763.913 238.697C823.806 241.847 876.44 239.487 953.396 232.257C960.88 231.554 990.055 228.747 984.649 229.265C996.936 228.089 1005.82 227.268 1014.39 226.533C1036.15 224.664 1053.49 223.582 1069.38 223.215C1107.4 222.338 1136.76 225.721 1161.93 234.801C1219.32 255.497 1256.09 307.387 1279.73 407.667ZM1278.02 407.995C1254.51 308.237 1218.09 256.847 1161.37 236.39C1136.44 227.399 1107.29 224.041 1069.48 224.913C1053.63 225.279 1036.33 226.359 1014.59 228.225C1006.04 228.959 997.158 229.779 984.876 230.955C990.284 230.437 961.107 233.244 953.62 233.947C876.584 241.185 823.873 243.549 763.874 240.393C726.021 238.402 688.059 231.723 648.203 220.72C616.31 211.915 585.474 201.143 545.266 185.433C537.363 182.345 497.828 166.628 487.197 162.516C466.055 154.338 449.714 148.524 434.684 144C398.243 133.03 370.554 130.226 347.208 136.461C293.482 150.81 261.451 215.375 245.673 353.558C223.732 545.718 269.734 693.82 372.841 795.207C463.67 884.52 596.555 934.337 748.8 942.345C887.384 949.634 1036.81 889.028 1144.97 785.247C1257.08 677.663 1309.08 539.755 1278.02 407.995Z" fill="url(#paint4_linear)" fill-opacity="0.35"/>
<path opacity="0.6" d="M1319.03 396.873C1352.59 539.381 1296.42 688.456 1175.38 804.687C1058.68 916.759 897.42 982.215 747.779 974.344C583.537 965.705 440.116 911.905 342.028 815.387C230.67 705.811 181.007 545.803 204.676 338.39C221.728 188.972 256.477 118.879 315.195 103.184C340.708 96.3639 370.822 99.4144 410.334 111.316C426.561 116.204 444.185 122.478 466.976 131.299C478.424 135.73 520.967 152.653 529.463 155.974C572.67 172.867 605.793 184.445 640.035 193.904C682.794 205.715 723.508 212.882 764.092 215.016C828.541 218.406 885.178 215.863 967.986 208.074C976.038 207.317 1007.43 204.294 1001.61 204.852C1014.83 203.585 1024.4 202.7 1033.61 201.909C1057.03 199.896 1075.68 198.73 1092.78 198.335C1133.67 197.389 1165.25 201.029 1192.33 210.801C1254.05 233.073 1293.6 288.921 1319.03 396.873ZM1317.34 397.195C1292.04 289.756 1252.83 234.4 1191.78 212.364C1164.94 202.68 1133.57 199.064 1092.87 200.005C1075.82 200.399 1057.2 201.563 1033.81 203.573C1024.61 204.364 1015.05 205.248 1001.84 206.515C1007.66 205.957 976.261 208.98 968.206 209.738C885.32 217.533 828.607 220.081 764.053 216.685C723.331 214.543 682.49 207.354 639.611 195.51C605.298 186.031 572.121 174.435 528.861 157.521C520.358 154.196 477.819 137.275 466.38 132.848C443.629 124.042 426.044 117.782 409.87 112.91C370.647 101.096 340.84 98.0765 315.703 104.796C257.853 120.258 223.374 189.806 206.391 338.625C182.776 545.558 232.28 705.051 343.238 814.234C440.984 910.415 583.986 964.058 747.818 972.675C896.956 980.52 1057.76 915.247 1174.15 803.482C1294.8 687.618 1350.77 539.096 1317.34 397.195Z" fill="url(#paint5_linear)" fill-opacity="0.35"/>
<path opacity="0.6" d="M1373.47 382.064C1410.37 538.513 1348.63 702.167 1215.59 829.763C1087.31 952.796 910.05 1024.65 745.563 1016C565.021 1006.5 407.366 947.424 299.545 841.456C177.137 721.152 122.542 545.483 148.554 317.766C167.292 153.734 205.479 76.7998 269.988 59.5821C298.018 52.1009 331.109 55.451 374.533 68.5174C392.37 73.8844 411.744 80.7742 436.797 90.4604C449.383 95.3261 496.155 113.911 505.494 117.559C552.999 136.112 589.416 148.827 627.065 159.217C674.08 172.19 718.846 180.063 763.47 182.41C834.329 186.138 896.597 183.348 987.638 174.802C996.491 173.971 1031 170.654 1024.61 171.266C1039.14 169.876 1049.65 168.905 1059.78 168.037C1085.52 165.828 1106.03 164.55 1124.82 164.117C1169.77 163.081 1204.48 167.079 1234.24 177.807C1302.06 202.254 1345.52 263.554 1373.47 382.064ZM1371.79 382.386C1343.96 264.39 1300.84 203.582 1233.68 179.37C1204.17 168.731 1169.67 164.757 1124.92 165.787C1106.17 166.219 1085.7 167.496 1059.99 169.701C1049.87 170.569 1039.36 171.539 1024.83 172.929C1031.23 172.317 996.714 175.634 987.858 176.465C896.739 185.019 834.395 187.812 763.431 184.079C718.669 181.725 673.775 173.829 626.641 160.823C588.922 150.414 552.451 137.679 504.894 119.106C495.546 115.455 448.778 96.8717 436.202 92.0097C411.188 82.3388 391.854 75.463 374.07 70.1118C330.934 57.1323 298.149 53.8133 270.495 61.1941C206.855 78.18 168.939 154.568 150.269 318.002C124.311 545.237 178.747 720.391 300.755 840.303C408.233 945.934 565.469 1004.85 745.602 1014.33C909.586 1022.95 1086.39 951.284 1214.36 828.557C1347.02 701.328 1408.55 538.227 1371.79 382.386Z" fill="url(#paint6_linear)" fill-opacity="0.35"/>
<path opacity="0.6" d="M1426.25 367.835C1466.27 537.669 1399.29 715.332 1254.98 853.858C1115.82 987.432 923.541 1065.44 745.12 1056.06C549.276 1045.76 378.263 981.631 261.311 866.598C128.536 736.002 69.3183 545.297 97.5404 298.077C117.868 120.008 159.285 36.4997 229.232 17.8127C259.624 9.69311 295.509 13.3275 342.606 27.5085C361.954 33.3342 382.97 40.8131 410.147 51.3279C423.8 56.6101 474.54 76.7858 484.672 80.746C536.209 100.888 575.719 114.693 616.564 125.972C667.573 140.058 716.143 148.604 764.559 151.151C841.435 155.195 908.99 152.163 1007.76 142.88C1017.36 141.977 1054.8 138.374 1047.86 139.039C1063.63 137.529 1075.04 136.475 1086.02 135.531C1113.95 133.133 1136.19 131.743 1156.58 131.273C1205.33 130.147 1242.98 134.485 1275.25 146.126C1348.79 172.657 1395.93 239.189 1426.25 367.835ZM1424.57 368.158C1394.37 240.025 1347.58 173.984 1274.7 147.69C1242.67 136.136 1205.23 131.822 1156.67 132.943C1136.33 133.413 1114.12 134.8 1086.23 137.196C1075.25 138.139 1063.85 139.192 1048.09 140.702C1055.03 140.037 1017.59 143.64 1007.98 144.543C909.132 153.834 841.501 156.869 764.52 152.82C715.966 150.266 667.269 141.696 616.141 127.578C575.224 116.28 535.661 102.456 484.071 82.2929C473.931 78.3296 423.195 58.1556 409.552 52.8771C382.414 42.3776 361.438 34.9127 342.143 29.1028C295.335 15.0089 259.755 11.4055 229.739 19.4246C160.661 37.8795 119.515 120.842 99.2552 298.313C71.088 545.052 130.145 735.242 262.521 865.445C379.131 980.142 549.724 1044.11 745.158 1054.39C923.078 1063.75 1114.91 985.92 1253.75 852.653C1397.68 714.494 1464.44 537.383 1424.57 368.158Z" fill="url(#paint7_linear)" fill-opacity="0.35"/>
</g>
<g opacity="0.3">
<path opacity="0.3" d="M1490.66 393.34C1530 575.483 1452.34 760.017 1291.25 898.815C1135.91 1032.65 924.01 1104.69 729.481 1084.89C515.951 1063.16 330.91 985.774 206.191 857.438C64.5984 711.74 4.84255 506.417 41.9877 246.037C68.7414 58.4989 116.086 -27.6773 192.89 -43.6068C226.262 -50.5284 265.333 -44.6972 316.375 -27.0737C337.346 -19.8329 360.097 -10.7479 389.497 1.89407C404.266 8.24516 459.144 32.4263 470.105 37.1824C525.856 61.3734 568.639 78.1846 612.947 92.393C668.28 110.137 721.093 121.877 773.892 127.251C857.722 135.782 931.556 136.301 1039.63 131.92C1050.14 131.494 1091.11 129.744 1083.51 130.065C1100.77 129.336 1113.24 128.849 1125.26 128.456C1155.81 127.457 1180.13 127.214 1202.39 127.841C1255.64 129.34 1296.62 136.015 1331.55 150.129C1411.13 182.291 1460.87 255.372 1490.66 393.34ZM1488.97 393.569C1459.29 256.107 1409.88 183.522 1330.95 151.623C1296.27 137.606 1255.5 130.966 1202.45 129.472C1180.23 128.846 1155.94 129.089 1125.43 130.087C1113.42 130.48 1100.95 130.966 1083.7 131.695C1091.29 131.374 1050.32 133.124 1039.81 133.55C931.659 137.935 857.748 137.415 773.813 128.873C720.876 123.486 667.936 111.717 612.484 93.9349C568.106 79.7038 525.27 62.8716 469.466 38.6578C458.497 33.8982 403.623 9.71893 388.863 3.37189C359.503 -9.25325 336.792 -18.3224 315.873 -25.5453C265.119 -43.0693 226.353 -48.8548 193.361 -42.012C117.433 -26.2642 70.3726 59.3946 43.7015 246.353C6.62276 506.268 66.2304 711.081 207.431 856.377C331.815 984.368 516.439 1061.58 729.559 1083.27C923.585 1103.02 1135.03 1031.14 1290.04 897.579C1450.73 759.119 1528.17 575.112 1488.97 393.569Z" fill="url(#paint8_linear)" fill-opacity="0.35"/>
</g>
<defs>
<linearGradient id="paint0_linear" x1="759.93" y1="830.359" x2="775.118" y2="262.701" gradientUnits="userSpaceOnUse">
<stop stop-color="#989FA8"/>
<stop offset="1" stop-color="#B3B4B6"/>
</linearGradient>
<linearGradient id="paint1_linear" x1="759.63" y1="856.532" x2="776.219" y2="236.55" gradientUnits="userSpaceOnUse">
<stop stop-color="#989FA8"/>
<stop offset="1" stop-color="#B3B4B6"/>
</linearGradient>
<linearGradient id="paint2_linear" x1="759.278" y1="887.289" x2="777.511" y2="205.817" gradientUnits="userSpaceOnUse">
<stop stop-color="#989FA8"/>
<stop offset="1" stop-color="#B3B4B6"/>
</linearGradient>
<linearGradient id="paint3_linear" x1="758.947" y1="916.161" x2="778.725" y2="176.966" gradientUnits="userSpaceOnUse">
<stop stop-color="#989FA8"/>
<stop offset="1" stop-color="#B3B4B6"/>
</linearGradient>
<linearGradient id="paint4_linear" x1="752.408" y1="944.233" x2="794.004" y2="153.435" gradientUnits="userSpaceOnUse">
<stop stop-color="#989FA8"/>
<stop offset="1" stop-color="#B3B4B6"/>
</linearGradient>
<linearGradient id="paint5_linear" x1="751.704" y1="974.55" x2="796.485" y2="123.21" gradientUnits="userSpaceOnUse">
<stop stop-color="#989FA8"/>
<stop offset="1" stop-color="#B3B4B6"/>
</linearGradient>
<linearGradient id="paint6_linear" x1="749.878" y1="1016.22" x2="799.039" y2="81.6059" gradientUnits="userSpaceOnUse">
<stop stop-color="#989FA8"/>
<stop offset="1" stop-color="#B3B4B6"/>
</linearGradient>
<linearGradient id="paint7_linear" x1="749.801" y1="1056.3" x2="803.169" y2="41.704" gradientUnits="userSpaceOnUse">
<stop stop-color="#989FA8"/>
<stop offset="1" stop-color="#B3B4B6"/>
</linearGradient>
<linearGradient id="paint8_linear" x1="734.585" y1="1085.41" x2="843.429" y2="15.9126" gradientUnits="userSpaceOnUse">
<stop stop-color="#989FA8"/>
<stop offset="1" stop-color="#B3B4B6"/>
</linearGradient>
</defs>
</svg>
