<svg width="34" height="22" viewBox="0 0 34 22" fill="none" xmlns="http://www.w3.org/2000/svg">
<path d="M33.7925 10.5139L23.1675 0.201432C22.8908 -0.0671441 22.4425 -0.0671441 22.1659 0.201432C21.8891 0.470008 21.8891 0.905067 22.1659 1.17358L31.5817 10.3125H0.708355C0.316824 10.3125 0 10.62 0 11C0 11.3801 0.316824 11.6876 0.708355 11.6876H31.5817L22.1659 20.8264C21.8891 21.095 21.8891 21.5301 22.1659 21.7986C22.3042 21.9328 22.4855 22 22.6667 22C22.8479 22 23.0291 21.9328 23.1675 21.7986L33.7925 11.4861C34.0692 11.2176 34.0692 10.7825 33.7925 10.5139Z" fill="#275CDC"/>
</svg>
