<svg width="39" height="38" viewBox="0 0 39 38" fill="none" xmlns="http://www.w3.org/2000/svg">
<path d="M19.5 0C8.72625 0 0 8.58 0 19.162C0 27.6299 5.58675 34.8108 13.3331 37.3425C14.3081 37.5229 14.6656 36.9298 14.6656 36.4211C14.6656 35.9661 14.6494 34.7604 14.6413 33.163C9.217 34.3184 8.073 30.5923 8.073 30.5923C7.18575 28.3806 5.90363 27.7891 5.90363 27.7891C4.13725 26.6013 6.04012 26.6256 6.04012 26.6256C7.99825 26.7589 9.02687 28.6 9.02687 28.6C10.7656 31.5299 13.5915 30.6833 14.7063 30.1941C14.8818 28.9543 15.3839 28.1109 15.9413 27.6315C11.6106 27.1521 7.059 25.5044 7.059 18.1626C7.059 16.0713 7.81462 14.3618 9.06588 13.0211C8.8465 12.5369 8.18838 10.5885 9.2365 7.9495C9.2365 7.9495 10.8696 7.436 14.599 9.91413C16.159 9.48838 17.8165 9.27713 19.474 9.26738C21.1315 9.27713 22.789 9.48838 24.349 9.91413C28.054 7.436 29.6871 7.9495 29.6871 7.9495C30.7352 10.5885 30.0771 12.5369 29.8821 13.0211C31.1252 14.3618 31.8809 16.0713 31.8809 18.1626C31.8809 25.5239 27.3228 27.144 22.984 27.6153C23.6665 28.1905 24.3003 29.3654 24.3003 31.161C24.3003 33.7253 24.2759 35.7858 24.2759 36.4081C24.2759 36.9103 24.6171 37.5099 25.6165 37.3181C33.4181 34.8026 39 27.6169 39 19.162C39 8.58 30.2689 0 19.5 0Z" fill="white"/>
</svg>
