<svg width="28" height="37" viewBox="0 0 28 37" fill="none" xmlns="http://www.w3.org/2000/svg">
<path d="M27.5242 7.93419L19.8158 0.22583C19.6713 0.0812988 19.4756 0 19.2708 0H3.08329C1.3828 0 0 1.3828 0 3.08336V33.9167C0 35.6172 1.3828 37 3.08336 37H24.6667C26.3672 37 27.75 35.6172 27.75 33.9166V8.47914C27.75 8.27441 27.6687 8.07872 27.5242 7.93419ZM20.0416 2.6317L25.1183 7.70836H21.5833C20.7334 7.70836 20.0416 7.01656 20.0416 6.16671V2.6317ZM26.2084 33.9166C26.2084 34.7665 25.5166 35.4583 24.6667 35.4583H3.08336C2.23351 35.4583 1.54171 34.7665 1.54171 33.9166V3.08336C1.54171 2.23351 2.23351 1.54171 3.08336 1.54171H18.5V6.16671C18.5 7.8672 19.8828 9.25 21.5834 9.25H26.2084V33.9166Z" fill="#275CDC"/>
<path d="M17.8052 22.6286C17.0915 22.067 16.4133 21.4897 15.9617 21.038C15.3745 20.4509 14.8513 19.8818 14.3967 19.3398C15.1058 17.1485 15.4167 16.0186 15.4167 15.4164C15.4167 12.8577 14.4923 12.333 13.1042 12.333C12.0496 12.333 10.7917 12.881 10.7917 15.4901C10.7917 16.6404 11.4218 18.0368 12.6706 19.6597C12.365 20.5924 12.0059 21.6681 11.6025 22.8808C11.4082 23.4627 11.1975 24.0017 10.9746 24.5C10.7932 24.5806 10.617 24.6626 10.4469 24.7477C9.8342 25.0541 9.25231 25.3295 8.71256 25.5855C6.25098 26.7508 4.625 27.5216 4.625 29.0437C4.625 30.1488 5.82569 30.833 6.9375 30.833C8.37074 30.833 10.535 28.9187 12.1158 25.6938C13.7568 25.0465 15.7968 24.5669 17.407 24.2666C18.6972 25.2587 20.1222 26.208 20.8125 26.208C22.7238 26.208 23.125 25.1029 23.125 24.1763C23.125 22.3538 21.0428 22.3538 20.0416 22.3538C19.7308 22.3539 18.8967 22.4457 17.8052 22.6286ZM6.9375 29.2914C6.49711 29.2914 6.19902 29.0836 6.16664 29.0437C6.16664 28.4972 7.79638 27.7249 9.37271 26.9781C9.4728 26.9307 9.57447 26.8833 9.6776 26.8343C8.51983 28.5131 7.37485 29.2914 6.9375 29.2914ZM12.3334 15.4901C12.3334 13.8747 12.8347 13.8747 13.1042 13.8747C13.6492 13.8747 13.8751 13.8747 13.8751 15.4164C13.8751 15.7416 13.6583 16.5545 13.2615 17.8237C12.6562 16.8918 12.3334 16.0931 12.3334 15.4901ZM12.9243 23.7751C12.9725 23.6411 13.0192 23.5056 13.0643 23.3686C13.3504 22.5105 13.6078 21.7396 13.8374 21.0456C14.1573 21.3979 14.5021 21.7585 14.8718 22.128C15.0163 22.2726 15.3746 22.5978 15.8519 23.005C14.9017 23.212 13.8908 23.4687 12.9243 23.7751ZM21.5834 24.1763C21.5834 24.5226 21.5834 24.6664 20.8682 24.6709C20.6582 24.6257 20.1727 24.3397 19.5734 23.9317C19.791 23.9076 19.9513 23.8956 20.0416 23.8956C21.1806 23.8956 21.5036 24.0069 21.5834 24.1763Z" fill="#275CDC"/>
</svg>
