<svg width="242" height="78" viewBox="0 0 242 78" fill="none" xmlns="http://www.w3.org/2000/svg">
<rect x="0.5" y="0.5" width="241" height="77" stroke="white"/>
<path d="M24.3765 18.2709C23.8619 18.6781 23.8748 19.3294 24.4151 19.8044L24.8139 20.1572H44.3031H63.7924L64.1654 19.8722C64.6543 19.5058 64.7057 18.6509 64.2555 18.2438C63.9725 17.9995 63.3421 17.9995 44.3417 17.9995C24.7624 17.9995 24.7238 17.9995 24.3765 18.2709Z" fill="white"/>
<path d="M25.4864 24.1969C25.2932 24.2991 25.1515 24.4908 25.1257 24.6953C25.0613 25.1937 25.4864 25.411 27.174 25.7688C27.9598 25.9222 28.7842 26.165 29.0032 26.2928C29.248 26.4334 31.1288 28.7465 33.7697 32.1459C36.1658 35.2386 38.9354 38.8041 39.9274 40.0693C41.8597 42.5486 41.9499 42.7531 41.4732 43.5198C41.1254 44.0694 31.1159 55.6861 30.7295 55.9929C30.0725 56.504 28.8873 56.913 27.1224 57.2708C25.1257 57.6542 24.7392 57.8715 24.8938 58.4593C24.9453 58.651 25.1128 58.8427 25.2674 58.8939C25.422 58.9578 29.0676 58.9961 33.3574 58.9833C41.6922 58.9705 41.5892 58.9833 41.5892 58.3571C41.5892 57.9482 41.2414 57.8076 39.6568 57.5136C37.2479 57.0919 36.5522 56.798 36.2044 56.0695C35.8051 55.2516 36.7326 53.4497 40.404 47.865C42.6197 44.4911 42.4265 44.7339 42.916 44.7339C43.1994 44.7339 43.4442 44.8362 43.6117 45.0151C44.4361 45.9224 51.457 55.4944 51.6244 55.9417C51.8048 56.4401 51.8048 56.4913 51.5858 56.7213C51.3024 57.0408 51.1864 57.0664 49.151 57.3219C47.1414 57.5648 46.7421 57.7309 46.7421 58.3315C46.7421 58.5616 46.8194 58.8172 46.9095 58.8811C46.9997 58.9578 50.3362 58.9961 55.386 58.9961C64.3005 58.9833 64.1331 58.9961 64.1331 58.3443C64.1331 57.782 63.5791 57.5392 61.621 57.2581C60.3843 57.0791 59.6114 56.798 58.8127 56.2485C58.3747 55.9545 56.7515 53.9737 52.5777 48.6317C49.4731 44.6572 46.858 41.2067 46.7549 40.9639C46.42 40.1204 46.5359 39.9287 50.1301 35.5197C54.7548 29.82 55.6952 28.7081 56.8288 27.6474C58.0398 26.51 58.9802 26.0244 60.9125 25.5516C62.3811 25.1937 62.7675 24.9637 62.6903 24.5547C62.6645 24.4397 62.4197 24.2736 62.1492 24.1713C61.7112 24.0052 61.2217 24.0052 58.4778 24.133C56.0817 24.248 54.6517 24.2608 52.6808 24.1458C49.3443 23.9669 48.1978 24.018 47.953 24.3503C47.4377 25.0404 47.9143 25.3726 49.8724 25.6921C51.4312 25.9349 52.0109 26.1522 52.3329 26.6123C52.6035 26.9829 52.5906 27.3024 52.2943 27.9414C51.8692 28.8615 46.2268 37.7562 45.8274 38.114C45.6213 38.3185 45.3379 38.4719 45.1962 38.4719C44.8484 38.4719 44.1141 37.8073 43.47 36.8872C43.1608 36.4527 41.6536 34.3312 40.1206 32.1715C37.2736 28.1714 36.9516 27.6474 36.9516 26.9957C36.9516 26.2417 37.5957 25.9733 39.7212 25.8199C40.5715 25.7688 41.4217 25.6538 41.6021 25.5899C42.3106 25.3215 42.0916 24.3886 41.2542 24.1074C41.0095 24.0308 39.6182 24.0308 37.0804 24.133C34.4267 24.248 32.5458 24.248 30.8325 24.1586C27.4574 23.9924 25.8729 24.0052 25.4864 24.1969Z" fill="white"/>
<path d="M74.3912 27.2978C73.8747 28.5169 73.5357 29.6557 73.6487 29.8482C73.7294 29.9605 74.0684 29.7199 74.601 29.2226C75.7309 28.0998 76.7155 27.8111 77.8454 28.2282L78.2651 28.3886L78.2167 32.8638C78.1844 35.8312 78.1037 37.4192 77.9907 37.5314C77.8938 37.6277 77.4742 37.7881 77.0545 37.9004C75.6018 38.2693 76.1344 38.4137 79.0237 38.4297C81.1221 38.4457 81.8 38.3976 81.8 38.2372C81.8 38.0127 81.4449 37.8523 80.9284 37.8523C80.7347 37.8523 80.4119 37.74 80.2182 37.5956C79.8631 37.355 79.8631 37.3229 79.8631 32.8958C79.8631 29.1104 79.8953 28.4046 80.1052 28.2282C80.2827 28.0838 80.654 28.0517 81.3642 28.1319C83.0429 28.3084 83.3818 28.4848 83.5755 29.2066C83.8015 30.0247 84.092 29.9445 84.2696 29.0141C84.4149 28.2442 84.2696 26.6241 84.0598 26.6241C83.9952 26.6241 83.8176 26.8006 83.6724 27.0251L83.4141 27.4262H79.4595C76.1022 27.4262 75.4888 27.3941 75.279 27.1695C75.1337 27.0412 75.0207 26.8487 75.0207 26.7685C75.0207 26.3835 74.6495 26.6883 74.3912 27.2978Z" fill="white"/>
<path d="M120.217 27.3469C120.217 27.4913 120.443 27.6036 120.83 27.6677C121.847 27.8442 121.992 27.9244 122.073 28.2772C122.251 28.9349 122.089 37.3399 121.895 37.5324C121.799 37.6287 121.411 37.757 121.008 37.8211C120.556 37.9013 120.298 38.0297 120.298 38.174C120.298 38.3665 120.943 38.4146 124.381 38.4307C127.416 38.4307 128.497 38.3986 128.61 38.2542C128.82 37.9976 129.03 35.9284 128.852 35.9284C128.772 35.9284 128.4 36.2492 128.029 36.6342C127.222 37.4843 126.48 37.7249 124.93 37.6607L123.849 37.6126L123.8 32.8968C123.784 29.785 123.816 28.1168 123.929 27.9885C124.026 27.8762 124.43 27.7319 124.817 27.6677C125.285 27.6036 125.543 27.4913 125.543 27.3309C125.543 27.1384 125.091 27.1063 122.88 27.1063C120.653 27.1063 120.217 27.1384 120.217 27.3469Z" fill="white"/>
<path d="M177.954 27.2182C177.728 27.4267 178.228 27.7475 178.793 27.7475C179.988 27.7475 180.02 27.8277 179.955 31.0517C179.923 32.6397 179.859 34.7891 179.794 35.8478L179.697 37.7726L178.906 37.8849C178.261 37.9651 177.567 38.2859 177.857 38.35C178.196 38.4463 183.038 38.4142 183.103 38.3179C183.216 38.1255 182.861 37.9811 181.989 37.8688C180.746 37.7245 180.73 37.6443 180.779 33.1209L180.827 29.3194L185.008 34.1475C187.687 37.2432 189.301 38.9756 189.495 38.9756C189.769 38.9756 189.785 38.735 189.785 33.7946C189.785 28.0362 189.818 27.8918 190.77 27.7475C191.077 27.6833 191.416 27.5871 191.529 27.5229C192.013 27.2182 191.383 27.1059 189.285 27.1059C187.477 27.1059 187.041 27.154 187.041 27.3304C187.041 27.571 187.526 27.7475 188.268 27.7475C188.526 27.7475 188.833 27.8277 188.946 27.94C189.172 28.1645 189.237 36.0884 189.011 36.0884C188.93 36.0884 187.154 34.0673 185.04 31.5971L181.214 27.1059H179.633C178.761 27.1059 178.002 27.154 177.954 27.2182Z" fill="white"/>
<path d="M133.776 30.507C133.001 30.908 132.597 31.2449 132.21 31.8063C131.532 32.8007 131.274 34.0679 131.5 35.1426C131.726 36.2013 131.903 36.506 132.694 37.3401C134.76 39.4574 138.747 38.9602 140.135 36.4098C141.298 34.2925 140.571 31.7421 138.489 30.523C137.859 30.1541 137.521 30.0739 136.278 30.0258C134.889 29.9616 134.777 29.9777 133.776 30.507ZM137.472 30.8118C138.215 31.2609 138.554 31.694 138.876 32.6243C139.264 33.7632 139.135 35.7842 138.602 36.7306C137.682 38.4148 135.132 38.6875 133.889 37.2278C133.324 36.5541 133.13 35.8003 133.13 34.2283C133.13 33.1055 133.195 32.8007 133.582 32.0629C133.889 31.4694 134.228 31.0845 134.68 30.8438C135.519 30.3626 136.713 30.3466 137.472 30.8118Z" fill="white"/>
<path d="M159.356 30.3151C157.532 31.0208 156.483 32.4805 156.467 34.3572C156.467 36.4424 157.807 38.0785 159.889 38.5116C161.002 38.7361 162.794 38.6078 163.989 38.2228L164.844 37.9341L164.925 36.6509C165.022 35.1913 165.118 34.9667 165.667 34.9667C165.909 34.9667 166.055 34.8705 166.055 34.7261C166.055 34.5176 165.716 34.4855 163.956 34.4855C162.197 34.4855 161.858 34.5176 161.858 34.7261C161.858 34.8865 162.019 34.9667 162.391 34.9667C162.681 34.9667 163.085 35.079 163.278 35.2233C163.585 35.4319 163.633 35.6083 163.633 36.4584C163.633 37.6454 163.537 37.8058 162.81 38.0143C161.567 38.3672 160.357 38.0945 159.404 37.2444C158.484 36.4264 158.145 35.6243 158.145 34.2449C158.145 32.8654 158.484 32.0634 159.404 31.2454C160.195 30.5396 161.148 30.2509 162.165 30.3953C162.794 30.4915 163.036 30.6359 163.746 31.3897C164.441 32.1116 164.618 32.2238 164.699 31.9993C164.763 31.8389 164.747 31.4539 164.667 31.1331C164.537 30.6198 164.424 30.5236 163.714 30.283C162.584 29.898 160.405 29.9141 159.356 30.3151Z" fill="white"/>
<path d="M197.13 30.2014C195.176 30.9713 194.256 32.2545 194.24 34.2435C194.224 37.4355 197.13 39.3764 200.455 38.3979C201.714 38.029 202.892 36.826 203.263 35.5428C203.925 33.2971 202.747 30.9553 200.616 30.2335C199.777 29.9447 197.824 29.9287 197.13 30.2014ZM200.293 30.843C201.455 31.6129 201.972 32.9122 201.859 34.7568C201.714 36.9383 200.632 38.1733 198.873 38.1733C196.936 38.1733 195.887 36.8581 195.871 34.4039C195.854 32.4951 196.597 31.0515 197.856 30.5864C198.485 30.3458 199.761 30.4741 200.293 30.843Z" fill="white"/>
<path d="M87.1282 30.3133C87.1282 30.3935 87.3703 30.5219 87.6609 30.6021L88.1774 30.7304V34.2592V37.772L87.5802 37.9164C87.2412 37.9966 86.9668 38.157 86.9668 38.2532C86.9668 38.3976 87.5156 38.4457 88.8876 38.4297C91.1796 38.4136 91.5832 38.2532 90.1466 37.9485L89.6947 37.8362L89.7431 36.2001L89.7915 34.564H92.0513H94.311L94.3595 36.0878C94.4079 37.7399 94.2787 38.0126 93.4717 38.0126C93.2619 38.0126 93.1004 38.1089 93.1004 38.2372C93.1004 38.3976 93.5201 38.4457 95.0858 38.4297C96.2803 38.4136 97.055 38.3495 97.055 38.2532C97.055 38.157 96.8775 38.0607 96.6515 38.0447C95.8606 37.9324 95.8444 37.8683 95.8444 34.2111C95.8444 31.6126 95.8929 30.7625 96.0543 30.7304C96.1511 30.6823 96.4417 30.6181 96.6999 30.57C96.942 30.5058 97.1357 30.3935 97.1357 30.3133C97.1357 30.1048 93.4717 30.1048 93.3587 30.2973C93.2457 30.4577 93.6331 30.6342 94.0851 30.6342C94.3595 30.6342 94.3917 30.7625 94.3917 32.2382V33.8422H92.0513H89.6947L89.7431 32.2863L89.7915 30.7304L90.3242 30.6021C91.3572 30.3294 90.8407 30.1529 88.9844 30.1529C87.8868 30.1529 87.1282 30.2171 87.1282 30.3133Z" fill="white"/>
<path d="M100.363 30.3143C100.363 30.3945 100.605 30.5229 100.896 30.6031L101.412 30.7314L101.461 34.164C101.477 36.1209 101.429 37.6607 101.348 37.7409C101.267 37.8211 100.96 37.9334 100.654 37.9976C100.363 38.0617 100.121 38.174 100.121 38.2542C100.121 38.3505 101.558 38.4146 103.785 38.4146L107.449 38.4307L107.627 37.6447C107.933 36.2011 107.756 35.784 107.255 36.8106C106.836 37.6928 106.303 37.9334 104.786 37.9334C102.994 37.9334 102.946 37.8853 102.946 35.9124V34.3244H104.302C105.577 34.3244 105.69 34.3565 105.996 34.7414C106.19 34.982 106.335 35.2708 106.335 35.383C106.335 35.5114 106.4 35.6076 106.481 35.6076C106.658 35.6076 106.804 33.0251 106.642 32.8166C106.578 32.7524 106.4 32.9128 106.271 33.1855C105.948 33.779 105.625 33.8753 104.156 33.8111L103.027 33.763V32.2392V30.7153L104.399 30.6672C105.98 30.6191 106.755 30.9078 107.126 31.6457C107.417 32.2873 107.659 31.9825 107.594 31.0201L107.546 30.2341L103.963 30.186C101.655 30.17 100.363 30.2021 100.363 30.3143Z" fill="white"/>
<path d="M143.299 30.3144C143.299 30.3946 143.557 30.5069 143.864 30.571C144.832 30.7475 144.913 31.0362 144.897 33.8432C144.897 35.2066 144.832 36.6503 144.784 37.0513C144.687 37.6929 144.606 37.7891 144.106 37.9495C143.089 38.2863 143.428 38.4307 145.187 38.4147C146.931 38.4147 147.592 38.1901 146.446 37.9976C146.124 37.9495 145.785 37.8212 145.672 37.7089C145.429 37.4683 145.284 31.9184 145.526 31.9184C145.607 31.9184 147.157 33.4262 148.948 35.2868C150.74 37.1475 152.273 38.6553 152.354 38.6553C152.435 38.6553 152.499 36.939 152.499 34.8217C152.499 30.7314 152.483 30.7796 153.355 30.571C154.307 30.3465 153.742 30.154 152.096 30.154C150.094 30.154 149.771 30.4267 151.45 30.6673C151.757 30.7154 151.773 30.8598 151.821 33.4743L151.854 36.2493L148.835 33.2016L145.801 30.154H144.558C143.864 30.154 143.299 30.2182 143.299 30.3144Z" fill="white"/>
<path d="M206.232 30.6981C206.506 30.9869 207.604 32.8796 208.669 34.9007C209.718 36.9217 210.655 38.5899 210.751 38.622C210.832 38.6541 211.284 37.9483 211.736 37.0661C212.172 36.1678 212.575 35.446 212.624 35.446C212.656 35.446 213.06 36.1678 213.528 37.0501C213.98 37.9483 214.432 38.638 214.512 38.622C214.593 38.5899 215.432 36.8415 216.368 34.7403C217.773 31.6124 218.176 30.8586 218.548 30.65C218.79 30.5057 218.999 30.3453 218.999 30.2651C218.999 30.1047 216.611 30.1207 216.514 30.2971C216.465 30.3773 216.643 30.5217 216.901 30.6179C217.176 30.6981 217.385 30.8104 217.385 30.8425C217.385 30.9388 214.964 36.617 214.9 36.6972C214.851 36.7293 214.496 36.1358 214.076 35.3819L213.334 34.0185L214.157 32.3984C214.819 31.0671 215.061 30.7463 215.448 30.6019C216.288 30.3292 215.981 30.1528 214.641 30.1528C213.334 30.1528 212.979 30.3453 213.754 30.634C214.141 30.7783 214.157 30.8104 213.947 31.3077C213.818 31.5964 213.544 32.1899 213.318 32.639L212.898 33.425L212.236 32.1097L211.575 30.7944L211.978 30.634C212.801 30.3292 212.398 30.1528 210.848 30.1528C209.283 30.1528 208.96 30.2971 209.767 30.6179C210.106 30.7623 210.445 31.2596 211.236 32.7673L212.285 34.7242L211.736 35.7348C211.445 36.2962 211.139 36.6811 211.074 36.617C210.881 36.4085 208.024 31.0029 208.024 30.8265C208.024 30.7463 208.201 30.6179 208.427 30.5698C209.25 30.3613 208.621 30.1528 207.168 30.1528H205.699L206.232 30.6981Z" fill="white"/>
<path d="M73.904 44.6006C73.627 44.686 73.6909 44.7714 74.2237 44.9634L74.9056 45.1982L74.863 49.1033L74.7991 53.0085L74.2237 53.0725C73.8827 53.1152 73.627 53.2432 73.627 53.3499C73.627 53.4566 74.586 53.542 75.7581 53.542C77.0368 53.542 77.8892 53.4566 77.8892 53.3286C77.8892 53.2006 77.6974 53.1152 77.4417 53.1152C76.3548 53.1152 76.1843 52.7951 76.1843 50.8745V49.0606H77.3138C78.4859 49.0606 78.9548 49.3167 78.9548 49.9569C78.9548 50.1703 79.0613 50.341 79.1679 50.341C79.2958 50.341 79.381 49.6582 79.381 48.7406C79.381 47.1614 79.1253 46.6279 78.8695 47.6736C78.699 48.3564 78.0597 48.6765 77.0794 48.5912L76.2909 48.5272V46.82V45.1128L77.5482 45.0488C78.8269 44.9848 79.5941 45.3475 79.5941 45.9877C79.5941 46.1371 79.7007 46.3292 79.8072 46.3932C79.9351 46.4785 80.0203 46.1158 80.0203 45.4756V44.4086L77.1433 44.4513C75.5663 44.4513 74.1171 44.5366 73.904 44.6006Z" fill="white"/>
<path d="M132.143 47.1251C132.03 47.4396 131.849 47.9429 131.781 48.2575L131.623 48.8237L132.302 48.2575C133.116 47.5445 134.202 47.2928 134.586 47.7332C134.79 47.9429 134.858 48.8027 134.813 50.5223C134.745 52.829 134.7 53.0177 134.292 53.0806C134.044 53.1226 133.749 53.2484 133.636 53.3533C133.501 53.4581 134.225 53.542 135.423 53.542C136.622 53.542 137.346 53.4581 137.233 53.3533C137.097 53.2484 136.803 53.1226 136.555 53.0806C136.125 53.0177 136.102 52.829 136.034 50.3545C135.989 47.838 135.989 47.6913 136.441 47.5654C137.165 47.3557 138.206 47.6493 138.364 48.1107C138.613 48.8027 138.93 48.551 138.93 47.6703C138.93 46.8734 138.907 46.8524 138.342 47.0412C138.025 47.167 136.735 47.2509 135.491 47.2509C133.682 47.2509 133.116 47.188 132.799 46.9154C132.415 46.5798 132.37 46.6008 132.143 47.1251Z" fill="white"/>
<path d="M84.6939 47.1812C83.383 47.8688 82.7598 48.8891 82.7598 50.3531C82.7598 53.1922 85.5965 54.8779 88.1324 53.5249C89.4433 52.8151 90.0665 51.817 90.0665 50.3531C90.0665 49.5324 89.9375 48.9779 89.5722 48.4455C88.992 47.5361 87.4662 46.6933 86.4131 46.6933C85.9833 46.6933 85.2097 46.9151 84.6939 47.1812ZM87.7455 47.5805C88.5622 48.2237 88.8415 49.1553 88.7341 50.8188C88.6481 52.1497 88.5837 52.3715 87.9604 52.926C86.9934 53.8132 85.8329 53.8132 84.8658 52.926C84.2641 52.3715 84.1781 52.1497 84.0922 50.8632C83.9417 48.5121 84.8443 47.1591 86.5421 47.1369C86.9074 47.1369 87.4662 47.3365 87.7455 47.5805Z" fill="white"/>
<path d="M125.052 49.3523C124.316 50.8112 123.668 52.2057 123.579 52.4632C123.512 52.7207 123.177 53.0639 122.842 53.2356C122.261 53.5359 122.306 53.5359 123.69 53.5359C124.896 53.5359 125.052 53.493 124.651 53.2999C124.025 53.021 124.025 52.9781 124.584 51.7552C125.008 50.7898 125.03 50.7683 126.035 50.7683C126.928 50.7683 127.084 50.8327 127.285 51.369C127.799 52.6777 127.799 53.1068 127.241 53.3214C126.816 53.493 127.084 53.5359 128.379 53.5359C129.92 53.5574 130.009 53.5359 129.563 53.2356C129.25 53.021 128.625 51.7552 127.821 49.8028C127.129 48.0865 126.504 46.6919 126.459 46.6919C126.392 46.6919 125.767 47.8934 125.052 49.3523ZM126.437 49.1592L126.794 50.1247H125.99C125.343 50.1247 125.231 50.0603 125.365 49.7385C125.454 49.5454 125.633 49.1163 125.745 48.773C125.856 48.4512 125.99 48.1938 126.035 48.1938C126.08 48.1938 126.258 48.6228 126.437 49.1592Z" fill="white"/>
<path d="M148.667 47.1745C147.581 47.7547 146.693 49.1604 146.693 50.3431C146.693 51.548 147.581 52.9538 148.69 53.5339C150.686 54.538 153.037 53.8686 153.969 52.0166C154.235 51.4811 154.457 50.7224 154.457 50.3431C154.457 49.9637 154.235 49.2051 153.969 48.6695C153.037 46.8175 150.642 46.1481 148.667 47.1745ZM151.773 47.4423C152.948 48.0448 153.481 50.477 152.815 52.1059C152.394 53.11 151.662 53.5786 150.509 53.5786C149.333 53.5786 148.623 52.9315 148.246 51.548C147.47 48.6472 149.533 46.2597 151.773 47.4423Z" fill="white"/>
<path d="M93.0011 46.9673C93.459 47.1956 93.4808 47.3554 93.4808 49.7073C93.4808 53.315 93.9823 54 96.555 54C97.4272 54 97.7542 53.8858 98.3211 53.3378L99.0406 52.6757L99.106 50.027C99.1932 47.4239 99.1932 47.3554 99.7601 47.0358C100.327 46.7161 100.305 46.7161 98.997 46.6933C97.5144 46.6933 97.3182 46.8074 98.1903 47.1499L98.7572 47.3783L98.67 49.9128C98.6045 52.356 98.5827 52.4702 97.9941 52.9953C97.34 53.589 96.446 53.7032 95.5739 53.2922C94.8326 52.9268 94.7454 52.63 94.6146 49.8443L94.5055 47.3783L95.0942 47.1499C95.3995 47.0358 95.6611 46.8759 95.6611 46.8074C95.6611 46.7389 94.9416 46.6933 94.0913 46.7161C92.7831 46.7161 92.5869 46.7618 93.0011 46.9673Z" fill="white"/>
<path d="M102.411 46.9181C102.476 47.0305 102.714 47.1429 102.953 47.1429C103.494 47.1429 103.603 47.5701 103.603 49.8408C103.603 52.5162 103.473 53.1007 102.779 53.3705C102.281 53.5728 102.454 53.6178 103.82 53.6178C105.401 53.6178 105.423 53.6178 104.751 53.3031L104.036 52.9883V50.5153V48.0647L106.853 51.0323L109.649 54L109.67 50.6951V47.3902L110.277 47.053C110.841 46.7158 110.819 46.7158 109.345 46.7158C108.284 46.6933 107.937 46.7607 108.154 46.9181C108.327 47.0305 108.652 47.1429 108.869 47.1429C109.194 47.1429 109.237 47.4127 109.237 49.5485V51.9541L106.832 49.3237L104.426 46.6933H103.364C102.693 46.6933 102.324 46.7832 102.411 46.9181Z" fill="white"/>
<path d="M112.9 46.8987C112.9 47.009 113.124 47.1415 113.415 47.1856C113.886 47.2518 113.908 47.3401 113.975 50.0107C114.043 52.6371 114.02 52.7695 113.527 53.1447C113.035 53.5199 113.08 53.542 115.364 53.542C117.379 53.542 117.872 53.4758 118.723 53.0344C120.044 52.3943 120.851 50.9156 120.627 49.5692C120.447 48.4878 119.574 47.4063 118.566 47.009C117.738 46.6559 112.9 46.5676 112.9 46.8987ZM117.536 47.3622C118.723 47.8919 119.395 48.9071 119.395 50.1872C119.395 51.3791 118.902 52.3281 118.051 52.7695C117.267 53.1668 115.789 53.2109 115.409 52.8357C115.117 52.5488 115.005 47.3401 115.297 47.0752C115.565 46.7883 116.596 46.9208 117.536 47.3622Z" fill="white"/>
<path d="M141.454 46.9133C141.517 47.0239 141.729 47.1346 141.897 47.1346C142.13 47.1346 142.193 47.6658 142.193 50.0118V52.8891L141.623 53.1547C141.032 53.4203 141.032 53.4203 141.94 53.5088C142.425 53.5531 143.185 53.5531 143.628 53.5088L144.41 53.4203L143.84 53.1547L143.248 52.8891V50.1225C143.248 47.3559 143.248 47.3338 143.776 47.1346C144.621 46.8026 144.41 46.6919 142.805 46.6919C141.876 46.6919 141.37 46.7805 141.454 46.9133Z" fill="white"/>
<path d="M156.283 46.8074C156.283 46.8759 156.532 47.0358 156.848 47.1499C157.414 47.3554 157.414 47.3783 157.414 50.2096V53.0638L156.803 53.4063C156.193 53.7488 156.238 53.7488 157.866 53.7488C159.539 53.726 159.539 53.726 158.838 53.4063L158.092 53.0867V50.6206V48.1775L160.94 51.0773C162.5 52.6985 163.834 54 163.879 54C163.924 54 163.97 52.5158 163.97 50.6891V47.4011L164.603 47.0586C165.19 46.7161 165.168 46.7161 163.653 46.6933C162.184 46.6933 161.799 46.9673 162.952 47.1956C163.359 47.2641 163.404 47.4696 163.472 49.5018C163.518 50.8033 163.45 51.7166 163.314 51.7166C163.201 51.7166 162.048 50.575 160.782 49.205L158.453 46.6933H157.368C156.781 46.6933 156.283 46.7389 156.283 46.8074Z" fill="white"/>
</svg>
