<svg width="242" height="78" viewBox="0 0 242 78" fill="none" xmlns="http://www.w3.org/2000/svg">
<path d="M88.4436 33.3877C83.7924 33.3877 80.3379 29.7977 80.3379 25.2609V25.2142C80.3379 20.7226 83.7247 17.0422 88.5791 17.0422C91.5595 17.0422 93.3432 18.0357 94.8093 19.4807L92.5981 22.0321C91.3789 20.9258 90.137 20.2484 88.5565 20.2484C85.8922 20.2484 83.9731 22.4596 83.9731 25.1706V25.2142C83.9731 27.9237 85.8471 30.1815 88.5565 30.1815C90.3628 30.1815 91.4692 29.4605 92.711 28.3316L94.9237 30.5654C93.298 32.3039 91.4918 33.3877 88.4436 33.3877Z" fill="white"/>
<path d="M104.668 21.3773L102.568 26.5026H106.769L104.668 21.3773ZM109.455 33.1182L108.01 29.5733H101.326L99.8812 33.1182H96.3379L103.11 17.2017H106.316L113.09 33.1182H109.455Z" fill="white"/>
<path d="M120.915 33.3438C118.522 33.3438 116.106 32.5068 114.209 30.8134L116.264 28.3539C117.685 29.528 119.176 30.273 120.983 30.273C122.404 30.273 123.263 29.7086 123.263 28.7829V28.7362C123.263 27.8556 122.72 27.4056 120.078 26.7267C116.896 25.9139 114.841 25.0333 114.841 21.8964V21.8512C114.841 18.9837 117.144 17.0871 120.373 17.0871C122.676 17.0871 124.64 17.8096 126.242 19.0966L124.437 21.7157C123.036 20.7448 121.66 20.1578 120.326 20.1578C118.996 20.1578 118.296 20.7674 118.296 21.5351V21.5803C118.296 22.6189 118.973 22.9576 121.704 23.656C124.91 24.4929 126.716 25.6444 126.716 28.399V28.4442C126.716 31.5826 124.324 33.3438 120.915 33.3438Z" fill="white"/>
<path d="M136.548 20.5183V33.1172H133.071V20.5183H128.262V17.3121H141.357V20.5183H136.548Z" fill="white"/>
<path d="M49.8898 26.8906H40.3265V17.3272H49.8898V26.8906ZM50.6329 15.9999H39V27.6332L52.4159 38.1719H59.298L59.3367 24.6347L50.6329 15.9999Z" fill="white"/>
<path d="M60.5176 23.3604H70.0809V32.9238H60.5176V23.3604ZM51.0703 30.6679L51.1106 44.2051H57.9915L71.4086 33.6664V22.0331H59.7757L51.0703 30.6679Z" fill="white" fill-opacity="0.9"/>
<path d="M62.8316 43.0748H50.1408V30.384H62.8316V43.0748ZM49.1571 28.623L43.9941 33.8363V49.7949H56.552L64.593 44.0597V28.623H49.1571Z" fill="white" fill-opacity="0.8"/>
<path d="M49.8898 51.2379H40.3265V41.6749H49.8898V51.2379ZM50.6329 40.3472H39V51.9805L50.5475 61.1572H58.9085V47.6424L50.6329 40.3472Z" fill="white" fill-opacity="0.7"/>
<path d="M85.0143 48.8477C82.8844 48.8477 81.3145 47.1723 81.3145 45.0424C81.3145 42.9336 82.8739 41.2161 85.046 41.2161C86.3841 41.2161 87.1849 41.6887 87.924 42.3857L87.355 42.9968C86.7333 42.4067 86.0379 41.9838 85.0354 41.9838C83.4022 41.9838 82.1785 43.3023 82.1785 45.0213C82.1785 46.7403 83.4128 48.0785 85.0354 48.0785C86.0484 48.0785 86.7123 47.6871 87.4182 47.0128L87.9661 47.5516C87.197 48.3314 86.354 48.8477 85.0143 48.8477Z" fill="white"/>
<path d="M92.6315 41.9847C90.9441 41.9847 89.7429 43.3334 89.7429 45.0223C89.7429 46.7082 90.9667 48.0795 92.6526 48.0795C94.3399 48.0795 95.5411 46.7292 95.5411 45.0419C95.5411 43.356 94.3174 41.9847 92.6315 41.9847ZM92.6315 48.8486C90.3857 48.8486 88.8789 47.0875 88.8789 45.0419C88.8789 42.9977 90.4067 41.2155 92.6526 41.2155C94.8984 41.2155 96.4051 42.9752 96.4051 45.0223C96.4051 47.0664 94.8758 48.8486 92.6315 48.8486Z" fill="white"/>
<path d="M101.705 46.6981H101.663L98.9749 42.7559V48.7227H98.1621V41.3424H99.0066L101.695 45.369L104.382 41.3424H105.226V48.7227H104.394V42.7453L101.705 46.6981Z" fill="white"/>
<path d="M110.85 46.6981H110.808L108.119 42.7559V48.7227H107.307V41.3424H108.151L110.839 45.369L113.526 41.3424H114.371V48.7227H113.538V42.7453L110.85 46.6981Z" fill="white"/>
<path d="M122.484 45.57C122.484 47.721 121.251 48.8379 119.406 48.8379C117.581 48.8379 116.338 47.721 116.338 45.6332V41.3417H117.172V45.5805C117.172 47.1716 118.013 48.0672 119.427 48.0672C120.787 48.0672 121.651 47.2453 121.651 45.6332V41.3417H122.484V45.57Z" fill="white"/>
<path d="M129.883 41.343H130.694V48.7217H130.03L125.264 42.6706V48.7217H124.453V41.343H125.233L129.883 47.2571V41.343Z" fill="white"/>
<path d="M133.682 48.7217H132.848V41.343H133.682V48.7217Z" fill="white"/>
<path d="M138.637 48.7217H137.792V42.1106H135.314V41.343H141.114V42.1106H138.637V48.7217Z" fill="white"/>
<path d="M145.821 48.7217H144.978V45.8015L141.91 41.343H142.922L145.411 45.0323L147.921 41.343H148.888L145.821 45.791V48.7217Z" fill="white"/>
<path d="M156.484 42.2597L154.797 46.0228H158.16L156.484 42.2597ZM160.247 48.7217H159.35L158.486 46.7709H154.47L153.596 48.7217H152.742L156.105 41.2888H156.885L160.247 48.7217Z" fill="white"/>
<path d="M164.809 42.1116H162.532V45.1056H164.799C165.906 45.1056 166.695 44.5366 166.695 43.5777C166.695 42.6595 166 42.1116 164.809 42.1116ZM166.781 48.7227L164.64 45.8537H162.532V48.7227H161.699V41.3424H164.872C166.495 41.3424 167.538 42.217 167.538 43.5461C167.538 44.7789 166.695 45.4954 165.536 45.7077L167.803 48.7227H166.781Z" fill="white"/>
<path d="M172.035 48.7217H171.191V42.1106H168.713V41.343H174.513V42.1106H172.035V48.7217Z" fill="white"/>
<path d="M178.557 44.6315C180.202 44.9897 180.961 45.5918 180.961 46.7313C180.961 48.0048 179.905 48.8281 178.441 48.8281C177.271 48.8281 176.312 48.4368 175.426 47.6465L175.944 47.0369C176.711 47.7323 177.45 48.08 178.472 48.08C179.464 48.08 180.118 47.5622 180.118 46.8141C180.118 46.1187 179.749 45.7288 178.198 45.4022C176.502 45.0334 175.721 44.484 175.721 43.2617C175.721 42.0816 176.744 41.2372 178.146 41.2372C179.221 41.2372 179.991 41.5427 180.739 42.1448L180.255 42.7861C179.57 42.2276 178.883 41.9853 178.125 41.9853C177.164 41.9853 176.555 42.5136 176.555 43.188C176.555 43.8939 176.934 44.2853 178.557 44.6315Z" fill="white"/>
<path d="M84.2872 55.1676C85.9324 55.5259 86.691 56.128 86.691 57.2675C86.691 58.5409 85.6359 59.3643 84.1713 59.3643C83.0017 59.3643 82.0428 58.9729 81.1562 58.1826L81.6741 57.573C82.4417 58.2684 83.1808 58.6162 84.2029 58.6162C85.1948 58.6162 85.8481 58.0983 85.8481 57.3502C85.8481 56.6548 85.4793 56.265 83.9289 55.9383C82.2325 55.5695 81.4513 55.0201 81.4513 53.7979C81.4513 52.6178 82.4748 51.7733 83.8762 51.7733C84.951 51.7733 85.7217 52.0789 86.4698 52.681L85.9851 53.3222C85.3002 52.7638 84.6138 52.5214 83.8551 52.5214C82.8948 52.5214 82.2852 53.0498 82.2852 53.7241C82.2852 54.4301 82.6645 54.8214 84.2872 55.1676Z" fill="white"/>
<path d="M91.0193 59.2598H90.1749V52.6487H87.6973V51.8811H93.497V52.6487H91.0193V59.2598Z" fill="white"/>
<path d="M97.2166 52.7978L95.5293 56.5609H98.892L97.2166 52.7978ZM100.98 59.2598H100.083L99.2186 57.309H95.2026L94.3281 59.2598H93.4746L96.8373 51.8269H97.617L100.98 59.2598Z" fill="white"/>
<path d="M107.543 57.1825C107.543 56.3712 106.869 55.9061 105.582 55.9061H103.252V58.5117H105.731C106.848 58.5117 107.543 58.0164 107.543 57.1825ZM107.134 53.8409C107.134 53.1033 106.553 52.6292 105.499 52.6292H103.252V55.1685H105.436C106.437 55.1685 107.134 54.7154 107.134 53.8409ZM107.975 53.725C107.975 54.6959 107.387 55.1911 106.806 55.444C107.682 55.7074 108.388 56.2117 108.388 57.2352C108.388 58.5117 107.324 59.2598 105.709 59.2598H102.432V51.8811H105.572C107.027 51.8811 107.975 52.5961 107.975 53.725Z" fill="white"/>
<path d="M110.945 59.2578H110.111V51.8791H110.945V59.2578Z" fill="white"/>
<path d="M113.102 51.8791H113.935V58.4886H118.088V59.2578H113.102V51.8791Z" fill="white"/>
<path d="M120.531 59.2578H119.697V51.8791H120.531V59.2578Z" fill="white"/>
<path d="M122.51 52.6282V51.8801H128.266V52.4385L123.481 58.5107H128.266V59.2588H122.354V58.7003L127.127 52.6282H122.51Z" fill="white"/>
<path d="M133.103 52.7978L131.416 56.5609H134.779L133.103 52.7978ZM136.866 59.2598H135.969L135.105 57.309H131.089L130.215 59.2598H129.361L132.724 51.8269H133.504L136.866 59.2598Z" fill="white"/>
<path d="M140.16 59.2588H139.316V52.6478H136.838V51.8801H142.638V52.6478H140.16V59.2588Z" fill="white"/>
<path d="M145.101 59.2578H144.268V51.8791H145.101V59.2578Z" fill="white"/>
<path d="M150.684 52.5218C148.997 52.5218 147.796 53.8705 147.796 55.5594C147.796 57.2453 149.019 58.6166 150.705 58.6166C152.393 58.6166 153.594 57.2664 153.594 55.579C153.594 53.8931 152.37 52.5218 150.684 52.5218ZM150.684 59.3857C148.438 59.3857 146.932 57.6246 146.932 55.579C146.932 53.5349 148.459 51.7527 150.705 51.7527C152.951 51.7527 154.458 53.5123 154.458 55.5594C154.458 57.6035 152.929 59.3857 150.684 59.3857Z" fill="white"/>
<path d="M161.646 51.8791H162.458V59.2578H161.794L157.028 53.2067V59.2578H156.217V51.8791H156.997L161.646 57.7932V51.8791Z" fill="white"/>
<path d="M170.496 59.2598H169.651V52.6487H167.174V51.8811H172.974V52.6487H170.496V59.2598Z" fill="white"/>
<path d="M177.639 52.6478H175.362V55.6417H177.629C178.736 55.6417 179.525 55.0727 179.525 54.1139C179.525 53.1957 178.83 52.6478 177.639 52.6478ZM179.611 59.2588L177.471 56.3898H175.362V59.2588H174.529V51.8786H177.702C179.325 51.8786 180.368 52.7531 180.368 54.0823C180.368 55.3151 179.525 56.0316 178.366 56.2438L180.633 59.2588H179.611Z" fill="white"/>
<path d="M188.177 56.1071C188.177 58.2581 186.944 59.375 185.099 59.375C183.275 59.375 182.031 58.2581 182.031 56.1703V51.8789H182.865V56.1177C182.865 57.7087 183.707 58.6043 185.12 58.6043C186.481 58.6043 187.345 57.7825 187.345 56.1703V51.8789H188.177V56.1071Z" fill="white"/>
<path d="M192.791 55.1676C194.436 55.5259 195.195 56.128 195.195 57.2675C195.195 58.5409 194.14 59.3643 192.675 59.3643C191.506 59.3643 190.547 58.9729 189.66 58.1826L190.178 57.573C190.946 58.2684 191.685 58.6162 192.707 58.6162C193.699 58.6162 194.352 58.0983 194.352 57.3502C194.352 56.6548 193.983 56.265 192.433 55.9383C190.736 55.5695 189.955 55.0201 189.955 53.7979C189.955 52.6177 190.979 51.7733 192.38 51.7733C193.455 51.7733 194.226 52.0789 194.974 52.681L194.489 53.3222C193.804 52.7638 193.118 52.5214 192.359 52.5214C191.399 52.5214 190.788 53.0498 190.788 53.7241C190.788 54.4301 191.168 54.8214 192.791 55.1676Z" fill="white"/>
<path d="M199.521 59.2598H198.677V52.6487H196.199V51.8811H201.999V52.6487H199.521V59.2598Z" fill="white"/>
<rect x="0.5" y="0.5" width="241" height="77" stroke="white"/>
</svg>
