<svg width="242" height="78" viewBox="0 0 242 78" fill="none" xmlns="http://www.w3.org/2000/svg">
<rect x="0.5" y="0.5" width="241" height="77" stroke="white"/>
<path d="M63.4688 29.5371H69.8917C76.1114 29.5371 81.3554 32.1795 81.3554 39.2935C81.3554 45.5538 76.2333 48.9279 70.4608 48.9279H63.4688V29.5371ZM67.7372 44.944H69.973C73.9568 44.944 76.9244 43.4399 76.9244 39.0496C76.9244 35.2283 73.8755 33.4803 70.2576 33.4803H67.7372V44.944V44.944Z" fill="white"/>
<path d="M83.5488 35.5947H87.6546V37.7493H87.6953C88.5896 36.1232 89.7279 35.2695 91.5165 35.2695C91.9637 35.2695 92.4922 35.3102 92.8987 35.3915V39.1314C92.3296 38.9688 91.7604 38.8469 91.1507 38.8469C88.0205 38.8469 87.6546 40.6355 87.6546 43.3185V48.8878H83.5488V35.5947Z" fill="white"/>
<path d="M106.842 46.6113C105.542 48.278 103.387 49.2537 101.233 49.2537C97.1268 49.2537 93.834 46.53 93.834 42.2616C93.834 38.0338 97.1268 35.2695 101.233 35.2695C105.054 35.2695 107.452 37.9932 107.452 42.2616V43.5624H97.9398C98.265 45.1072 99.4439 46.1235 101.029 46.1235C102.371 46.1235 103.265 45.4324 103.956 44.4974L106.842 46.6113ZM103.346 40.7168C103.387 39.3347 102.29 38.1964 100.826 38.1964C99.0374 38.1964 98.0211 39.416 97.9398 40.7168H103.346Z" fill="white"/>
<path d="M117.818 47.2207H117.777C116.883 48.6435 115.216 49.2126 113.55 49.2126C111.07 49.2126 108.834 47.7898 108.834 45.1068C108.834 40.5132 114.403 40.4319 117.818 40.4319C117.818 38.9685 116.598 38.0335 115.176 38.0335C113.834 38.0335 112.696 38.6432 111.842 39.6189L109.647 37.383C111.151 35.9602 113.346 35.2285 115.501 35.2285C120.298 35.2285 121.558 37.6676 121.558 42.0986V48.8468H117.777V47.2207H117.818ZM116.802 43.0743C115.541 43.0743 112.737 43.1962 112.737 44.9849C112.737 45.9605 113.793 46.4483 114.688 46.4483C116.314 46.4483 117.818 45.5947 117.818 43.9686V43.0743H116.802Z" fill="white"/>
<path d="M124.16 35.5944H128.103V37.383H128.144C128.672 36.3261 130.014 35.2285 132.047 35.2285C133.917 35.2285 135.421 36.0009 136.152 37.627C137.128 35.9196 138.388 35.2285 140.38 35.2285C143.998 35.2285 145.096 37.7896 145.096 41.001V48.8468H140.949V41.123C140.949 39.9034 140.502 38.8465 139.161 38.8465C137.291 38.8465 136.681 40.188 136.681 41.8141V48.8468H132.575V41.8547C132.575 40.8791 132.616 38.8872 130.746 38.8872C128.591 38.8872 128.266 40.5539 128.266 42.2612V48.8874H124.16V35.5944Z" fill="white"/>
<path d="M147.658 29.5371H151.927V36.7324H160.22V29.5371H164.488V48.9279H160.22V40.513H151.927V48.8872H147.658V29.5371Z" fill="white"/>
<path d="M173.715 35.2695C177.821 35.2695 181.114 37.9932 181.114 42.2616C181.114 46.4894 177.821 49.2537 173.715 49.2537C169.609 49.2537 166.316 46.53 166.316 42.2616C166.316 37.9932 169.609 35.2695 173.715 35.2695ZM173.715 45.595C175.748 45.595 177.008 44.2129 177.008 42.2209C177.008 40.229 175.788 38.8469 173.715 38.8469C171.682 38.8469 170.422 40.229 170.422 42.2209C170.422 44.2535 171.682 45.595 173.715 45.595Z" fill="white"/>
<path d="M190.503 39.4973C189.893 38.7656 189.121 38.359 188.105 38.359C187.414 38.359 186.601 38.6436 186.601 39.4566C186.601 41.4079 193.511 39.7412 193.511 44.8226C193.511 48.1967 190.219 49.213 187.373 49.213C185.503 49.213 183.47 48.7658 182.129 47.4243L184.609 44.66C185.381 45.595 186.275 46.1235 187.495 46.1235C188.43 46.1235 189.365 45.8796 189.365 45.1479C189.365 42.9933 182.454 44.8226 182.454 39.7412C182.454 36.611 185.259 35.2695 188.023 35.2695C189.771 35.2695 191.723 35.7167 192.942 37.0175L190.503 39.4973Z" fill="white"/>
<path d="M204.569 38.8873H200.951V43.3184C200.951 44.7412 201.114 45.7981 202.903 45.7981C203.35 45.7981 204.203 45.7575 204.569 45.4322V48.847C203.675 49.1722 202.659 49.2535 201.683 49.2535C198.959 49.2535 196.845 48.1152 196.845 45.229V38.8873H194.203V35.5946H196.845V31.6514H200.951V35.5946H204.569V38.8873Z" fill="white"/>
<path d="M56.1097 44.456C54.1178 45.5536 51.8413 46.1634 49.4022 46.1227C42.1663 45.9601 36.475 40.147 36.597 33.0736C36.6377 30.6751 37.3694 28.4393 38.5889 26.5693C34.727 28.7239 32.0847 32.7484 32.0034 37.4233C31.8408 44.456 37.5726 50.3098 44.768 50.4724C49.5648 50.5537 53.752 48.1553 56.1097 44.456Z" fill="white"/>
<path d="M45.5384 26C43.5872 26 41.7578 26.4878 40.1318 27.3822C39.1155 29.0489 38.5464 30.9595 38.4651 32.9108C38.3431 39.0491 43.3433 44.1306 49.5629 44.2525C51.4329 44.2525 53.5468 43.8054 55.1729 42.911C56.1485 41.2443 56.7176 39.2931 56.7176 37.2198C56.7989 31.0408 51.7581 26 45.5384 26Z" fill="white"/>
<path d="M205.992 29.618C205.992 29.4147 206.033 29.2115 206.114 29.0082C206.195 28.805 206.317 28.683 206.439 28.5204C206.561 28.3985 206.724 28.2765 206.927 28.1952C207.09 28.1139 207.293 28.0732 207.496 28.0732C207.7 28.0732 207.903 28.1139 208.065 28.1952C208.228 28.2765 208.391 28.3578 208.553 28.5204C208.675 28.6424 208.797 28.805 208.878 29.0082C208.96 29.2115 209 29.3741 209 29.618C209 29.8213 208.96 30.0245 208.878 30.2278C208.797 30.3904 208.675 30.553 208.553 30.7156C208.431 30.8375 208.269 30.9595 208.065 31.0408C207.903 31.1221 207.7 31.1628 207.496 31.1628C207.293 31.1628 207.09 31.1221 206.927 31.0408C206.765 30.9595 206.602 30.8782 206.439 30.7156C206.317 30.5936 206.195 30.431 206.114 30.2278C206.033 30.0245 205.992 29.8213 205.992 29.618ZM206.277 29.618C206.277 29.7806 206.317 29.9839 206.358 30.1058C206.439 30.2684 206.521 30.3904 206.602 30.5123C206.724 30.6343 206.846 30.7156 207.008 30.7969C207.171 30.8782 207.334 30.8782 207.496 30.8782C207.659 30.8782 207.822 30.8375 207.984 30.7969C208.147 30.7156 208.269 30.6343 208.391 30.5123C208.513 30.3904 208.594 30.2684 208.635 30.1058C208.716 29.9432 208.716 29.7806 208.716 29.618C208.716 29.4554 208.675 29.2521 208.635 29.1302C208.553 28.9676 208.472 28.8456 208.391 28.7237C208.269 28.6017 208.147 28.5204 207.984 28.4391C207.822 28.3578 207.659 28.3578 207.496 28.3578C207.334 28.3578 207.171 28.3985 207.008 28.4391C206.846 28.5204 206.724 28.6017 206.602 28.7237C206.48 28.8456 206.399 28.9676 206.358 29.1302C206.277 29.2521 206.277 29.4147 206.277 29.618ZM206.927 28.7237H207.578C207.984 28.7237 208.187 28.8863 208.187 29.2115C208.187 29.3741 208.147 29.496 208.065 29.5773C207.984 29.6587 207.862 29.6993 207.74 29.6993L208.228 30.4717H207.943L207.456 29.6993H207.171V30.4717H206.887L206.927 28.7237ZM207.171 29.496H207.456C207.496 29.496 207.578 29.496 207.618 29.496C207.659 29.496 207.74 29.496 207.781 29.4554C207.822 29.4554 207.862 29.4147 207.903 29.3741C207.943 29.3334 207.943 29.2928 207.943 29.2115C207.943 29.1708 207.943 29.0895 207.903 29.0489C207.862 29.0082 207.862 28.9676 207.822 28.9676C207.781 28.9676 207.74 28.9269 207.7 28.9269C207.659 28.9269 207.618 28.9269 207.578 28.9269H207.212L207.171 29.496Z" fill="white"/>
</svg>
