<svg width="242" height="78" viewBox="0 0 242 78" fill="none" xmlns="http://www.w3.org/2000/svg">
<path d="M49.5726 54.1453C40.4343 54.1453 33 46.7107 33 37.5732C33 28.4349 40.4343 21 49.5726 21C58.7112 21 66.1453 28.4349 66.1453 37.5732C66.1453 46.7109 58.7109 54.1453 49.5726 54.1453ZM57.5967 34.1062C57.5967 35.2992 56.6299 36.2659 55.4369 36.2659C54.7268 36.2659 54.0965 35.9231 53.7029 35.3938H35.7452C35.6341 36.1044 35.5762 36.832 35.5762 37.5732C35.5762 45.2908 41.8545 51.5699 49.5724 51.5699C55.2243 51.5699 60.1045 48.2023 62.3118 43.3692H45.7796C45.3887 43.9251 44.7421 44.2892 44.0102 44.2892C42.8173 44.2892 41.8508 43.3226 41.8508 42.1294C41.8508 40.937 42.8173 39.9697 44.0102 39.9697C44.6983 39.9697 45.3119 40.2915 45.7073 40.7935V40.7927H63.1957C63.4402 39.7582 63.5696 38.6808 63.5696 37.5734C63.5696 29.8553 57.2905 23.5762 49.5726 23.5762C43.5234 23.5762 38.3583 27.4338 36.4074 32.8181H53.7029C54.0965 32.2895 54.7271 31.9462 55.4369 31.9462C56.6299 31.9459 57.5967 32.9133 57.5967 34.1062Z" fill="white"/>
<path d="M85.2633 28.7309H81.1111L78.5094 47.2842H82.3725L83.3449 38.7696C83.45 37.8761 83.5551 36.9826 83.6339 36.0891C83.6602 35.3796 83.6865 34.6963 83.6865 33.9868C83.8442 34.5649 83.9756 35.1168 84.1595 35.6687C84.3698 36.457 84.6326 37.2191 84.9216 37.9813L88.2854 47.2842H90.8082L93.8829 38.5594C94.4085 37.0089 94.9078 35.4321 95.3546 33.8554C95.3546 34.4861 95.3546 35.1168 95.3809 35.7475C95.4334 36.6147 95.5385 37.4819 95.6174 38.3492L96.7211 47.2842H100.637L98.0088 28.7309H93.8829L91.3075 36.0366C90.9922 36.9826 90.6506 37.9287 90.3352 38.8748C90.0724 39.7683 89.8096 40.6355 89.5468 41.529C89.4154 41.0034 89.284 40.4778 89.1264 39.9522C88.7847 38.8222 88.3905 37.7447 88.0226 36.641L85.2633 28.7309ZM108.297 35.4059C106.405 35.4321 105.223 36.0891 104.566 36.5359C103.62 37.1666 101.99 38.612 101.99 41.529C101.99 42.4225 102.095 44.4197 103.909 46.0228C104.382 46.4695 104.855 46.7323 105.065 46.8637C105.617 47.1528 106.826 47.7047 108.508 47.7047C111.03 47.7047 113.317 46.4432 114.368 44.1044C114.552 43.7102 114.92 42.7641 114.92 41.5553C114.92 40.9771 114.815 39.3215 113.737 37.9024C113.028 36.9564 111.346 35.3796 108.297 35.4059ZM108.429 38.6645C110.058 38.6382 111.109 40.031 111.109 41.5553C111.109 43.0795 110.058 44.446 108.455 44.446C107.378 44.446 106.405 43.8153 105.985 42.8167C105.748 42.2648 105.748 41.8181 105.748 41.6078C105.748 40.5304 106.221 39.5317 107.194 39.0061C107.746 38.7171 108.166 38.6908 108.429 38.6645ZM117.194 27.6797V47.2842H120.978V46.049C121.241 46.3381 121.372 46.4958 121.687 46.7323C122.791 47.5733 123.974 47.5995 124.499 47.5995C125.34 47.5995 127.338 47.4681 128.862 45.6286C130.202 44.0255 130.281 42.1071 130.281 41.4239C130.281 38.9799 129.125 37.5082 128.415 36.8775C127.048 35.6161 125.498 35.511 124.815 35.511C123.159 35.511 122.108 36.1942 121.609 36.6147L120.899 37.3243V27.6797H117.194ZM125.445 39.4529C125.787 39.7683 126.234 40.4778 126.234 41.6078C126.234 43.2109 125.235 44.6037 123.553 44.6037C122.344 44.6037 121.372 43.9467 120.952 42.8167C120.741 42.2911 120.741 41.8443 120.741 41.6341C120.741 40.5041 121.188 39.4792 122.239 38.9536C122.423 38.8485 122.923 38.6645 123.527 38.6645C123.869 38.6645 124.762 38.7171 125.445 39.4529ZM132.883 33.067C133.461 33.6451 134.144 33.724 134.459 33.724C135.668 33.724 136.693 32.7516 136.693 31.5165C136.693 30.3076 135.695 29.2827 134.459 29.2565C133.251 29.2565 132.226 30.2551 132.226 31.4902C132.226 32.0684 132.462 32.6728 132.883 33.067ZM132.567 35.8526V47.2842H136.325V35.8526H132.567ZM139.137 27.6797V47.2842H142.895V27.6797H139.137ZM157.165 42.3436C157.191 41.1873 157.165 40.2676 156.955 39.4266C156.666 38.4543 155.798 36.3782 153.065 35.6161C152.75 35.5373 152.119 35.3796 151.278 35.3796C149.78 35.3796 148.677 35.9052 148.204 36.168C146.785 36.9826 146.206 38.0338 145.944 38.612C145.313 39.8997 145.287 40.9771 145.287 41.5553C145.287 43.2897 145.865 44.5248 146.233 45.0767C146.863 46.0228 148.466 47.6521 151.41 47.6521C153.17 47.6521 154.852 47.0477 156.087 45.76C156.508 45.3395 156.692 44.9979 156.85 44.7876L153.827 43.3423C153.617 43.6839 152.934 44.8139 151.489 44.8139C150.542 44.8139 149.675 44.3409 149.229 43.4999C149.018 43.132 148.939 42.7378 148.861 42.3436H157.165ZM148.861 40.1624C148.992 39.6894 149.071 39.4529 149.15 39.2427C149.728 38.1126 150.7 37.955 151.173 37.955C151.699 37.955 152.093 38.1126 152.277 38.2178C153.249 38.7171 153.512 39.8471 153.565 40.1624H148.861ZM173.576 29.5455C173.103 29.3353 172.604 29.1251 172.104 28.9411C170.396 28.363 168.714 28.2841 168.11 28.2841C167.584 28.2841 166.086 28.3367 164.588 28.9148C163.406 29.3616 162.355 30.15 161.514 31.096C160.778 31.8844 160.41 32.5414 160.2 32.9356C159.438 34.4335 159.07 36.3519 159.07 38.0075C159.07 42.2122 161.198 44.6825 162.407 45.7074C164.615 47.5995 167.322 47.6784 168.241 47.6784C170.817 47.6784 172.709 46.7849 173.55 46.4432L173.576 42.1071C173.261 42.3436 172.945 42.5802 172.656 42.7904C171.736 43.4211 170.554 43.789 170.081 43.8941C169.424 44.0255 168.951 44.0255 168.688 44.0255C165.193 44.0255 163.931 41.6604 163.511 40.4252C163.169 39.4003 163.143 38.5331 163.143 38.1126C163.143 34.9328 164.878 33.2772 165.981 32.6465C167.059 32.0421 168.162 32.0158 168.609 32.0158C171.211 32.0158 172.919 33.54 173.576 34.1182V29.5455ZM181.644 35.4059C179.752 35.4321 178.569 36.0891 177.912 36.5359C176.966 37.1666 175.337 38.612 175.337 41.529C175.337 42.4225 175.442 44.4197 177.255 46.0228C177.728 46.4695 178.201 46.7323 178.411 46.8637C178.963 47.1528 180.172 47.7047 181.854 47.7047C184.377 47.7047 186.663 46.4432 187.714 44.1044C187.898 43.7102 188.266 42.7641 188.266 41.5553C188.266 40.9771 188.161 39.3215 187.084 37.9024C186.374 36.9564 184.692 35.3796 181.644 35.4059ZM181.775 38.6645C183.405 38.6382 184.456 40.031 184.456 41.5553C184.456 43.0795 183.405 44.446 181.801 44.446C180.724 44.446 179.752 43.8153 179.331 42.8167C179.095 42.2648 179.095 41.8181 179.095 41.6078C179.095 40.5304 179.568 39.5317 180.54 39.0061C181.092 38.7171 181.512 38.6908 181.775 38.6645ZM190.908 33.067C191.486 33.6451 192.169 33.724 192.485 33.724C193.694 33.724 194.718 32.7516 194.718 31.5165C194.718 30.3076 193.72 29.2827 192.485 29.2565C191.276 29.2565 190.251 30.2551 190.251 31.4902C190.251 32.0684 190.487 32.6728 190.908 33.067ZM190.593 35.8526V47.2842H194.351V35.8526H190.593ZM208.62 47.2842V39.9522C208.62 38.901 208.568 37.9024 207.963 36.9826C207.569 36.4045 206.544 35.511 204.757 35.511C202.655 35.4847 201.42 36.825 200.894 37.3505V35.8526H197.162V47.2842H200.842V41.5815C200.842 40.6618 200.92 39.742 201.761 39.1113C202.287 38.6908 202.865 38.6645 203.102 38.6645C203.312 38.6645 203.811 38.6645 204.284 39.0587C204.862 39.5843 204.889 40.3201 204.889 41.0034V47.2842H208.62Z" fill="white"/>
<rect x="0.5" y="0.5" width="241" height="77" stroke="white"/>
</svg>
