<svg width="242" height="78" viewBox="0 0 242 78" fill="none" xmlns="http://www.w3.org/2000/svg">
<g clip-path="url(#clip0)">
<path d="M58.0004 30.4766V36.8729H62.393V41.0319H58.0004V51.7777H53.4785V26.1924H62.8812V30.4766H58.0004Z" fill="white"/>
<path d="M63.5664 51.7777V26.1924H68.2893V51.7777H63.5664Z" fill="white"/>
<path d="M77.2627 51.7777L77.0671 50.9448C76.5788 51.5853 75.4084 51.9682 74.3026 51.9682C71.5364 51.9682 69.6497 50.5302 69.5187 47.557C69.4541 46.7259 69.3571 41.4165 69.3571 39.0503C69.3571 36.6841 69.2907 32.4934 69.5528 30.383C69.7772 28.3662 71.145 26 74.9829 26C78.855 26 80.0272 28.3344 80.2533 30.2225C80.2875 31.0853 80.3198 34.9231 80.3198 34.9231H75.8949V31.3729C75.8949 30.3813 75.6023 29.9984 75.0153 29.9984C74.4624 29.9984 74.1375 30.413 74.1375 31.5C74.1051 33.2274 74.1051 37.3228 74.1051 39.0168C74.1051 40.5836 74.1375 45.5719 74.1698 46.6041C74.1698 47.7881 74.4301 48.2681 75.1463 48.2681C75.7979 48.2681 76.1228 47.8516 76.1228 46.7329V41.2877H74.7891V37.3864H80.449V46.0518C80.449 48.9633 80.5154 51.7777 80.5154 51.7777H77.2627Z" fill="white"/>
<path d="M87.8362 51.7777V40.9031H85.9819V51.7777H81.4941V26.1924H85.9819V36.97H87.8362V26.1924H92.3239V51.7777H87.8362Z" fill="white"/>
<path d="M100.395 30.4766V51.7777H95.8387V30.4766H93.0742V26.1924H103.225V30.4766H100.395Z" fill="white"/>
<path d="M109.733 28.1757V37.8964H113.278V39.8161H109.733V51.7777H107.715V26.1924H113.54V28.1757H109.733Z" fill="white"/>
<path d="M121.244 30.3495C121.244 31.4999 121.276 36.3629 121.276 38.8879C121.276 41.7023 121.276 46.0518 121.244 47.7104C121.147 50.5336 120.105 51.9629 117.729 51.9629C115.352 51.9629 114.347 50.6201 114.28 47.774C114.248 47.0682 114.248 41.6652 114.248 38.9144C114.248 36.5482 114.248 31.3041 114.28 30.4447C114.347 27.5033 115.357 26.0635 117.729 26.0635C120.014 26.0635 121.154 27.3745 121.244 30.3495ZM119.136 48.0986C119.201 46.9799 119.201 40.903 119.201 38.9514C119.201 37.2257 119.201 31.2123 119.168 30.1889C119.136 28.7191 118.809 28.0715 117.768 28.0715C116.598 28.0715 116.37 28.9043 116.37 30.2154C116.37 31.2741 116.338 37.1869 116.338 39.0379C116.338 40.9788 116.338 47.0011 116.37 48.088C116.402 49.175 116.695 49.9761 117.806 49.9761C118.777 49.9867 119.071 49.115 119.136 48.0986Z" fill="white"/>
<path d="M128.734 37.4499C128.506 38.0887 128.016 38.9198 127.594 39.0803L129.708 51.7848H127.594L125.739 39.6873L124.731 39.7191V51.7777H122.779V26.1924H125.87C127.666 26.1924 128.506 27.1523 128.895 28.8391C129.059 29.5749 129.155 31.0783 129.155 33.0934C129.155 35.2108 129.026 36.5218 128.734 37.4499ZM126.912 29.7743C126.845 28.8233 126.423 28.1175 125.707 28.1175H124.763V37.8399C125.111 37.8434 125.459 37.8221 125.804 37.7764C126.359 37.7128 126.587 37.2964 126.716 36.88C126.944 36.273 127.041 34.4185 127.041 33.4269C127.041 32.1088 126.944 30.0937 126.912 29.7743Z" fill="white"/>
<path d="M136.502 28.1175V51.7777H134.461V28.1175H132.15V26.1924H138.851V28.1175H136.502Z" fill="white"/>
<path d="M144.45 51.7777V39.8161H141.815V51.7777H139.797V26.1924H141.815V37.8964H144.45V26.1924H146.467V51.7777H144.45Z" fill="white"/>
<path d="M148.223 51.7777V26.1924H154.046V28.1175H150.24V37.8964H153.592V39.8161H150.24V49.8579H154.08V51.7777H148.223Z" fill="white"/>
<path d="M162.83 30.4766V36.8729H167.223V41.0319H162.83V51.7777H158.309V26.1924H167.711V30.4766H162.83Z" fill="white"/>
<path d="M173.828 52.0001C170.574 52.0001 168.264 50.4014 168.264 46.7559V26.1924H172.751V46.7242C172.751 47.8111 173.046 48.0987 173.696 48.0987C174.345 48.0987 174.575 47.7794 174.575 46.7559V26.1924H179.099V46.7559C179.099 50.1456 177.146 52.0001 173.828 52.0001Z" fill="white"/>
<path d="M187.104 30.4766V51.7777H182.548V30.4766H179.783V26.1924H189.934V30.4766H187.104Z" fill="white"/>
<path d="M196.082 52.0001C192.83 52.0001 190.518 50.4014 190.518 46.7559V26.1924H195.005V46.7242C195.005 47.8111 195.298 48.0987 195.95 48.0987C196.601 48.0987 196.827 47.7794 196.827 46.7559V26.1924H201.351V46.7559C201.355 50.1456 199.401 52.0001 196.082 52.0001Z" fill="white"/>
<path d="M212.873 37.8328C212.549 38.7292 211.994 39.3997 211.54 39.6238L213.915 51.7777H209.384L207.433 40.9348H206.944V51.7777H202.584V26.1924H208.637C210.296 26.1924 211.89 26.9282 212.541 28.3345C213.028 29.3932 213.419 31.2124 213.419 33.5151C213.426 35.5619 213.198 36.9065 212.873 37.8328ZM208.745 31.5318C208.68 30.8613 208.386 30.3178 207.801 30.3178H207.021V37.1306C207.086 37.1306 207.671 37.1306 207.899 37.097C208.321 37.0335 208.517 36.7441 208.617 36.3912C208.781 35.943 208.845 34.7591 208.845 33.9915C208.845 33.0687 208.773 31.8229 208.741 31.5318H208.745Z" fill="white"/>
<path d="M214.693 51.7777V26.1924H223.967V30.4766H219.217V36.8729H223.543V40.8713H219.217V47.587H223.999V51.7777H214.693Z" fill="white"/>
<path d="M46.0917 26H20V51.6471H46.0917V26Z" fill="white"/>
<path d="M41.041 36.9099C40.8417 39.4049 38.9281 42.4786 33.3221 46.3376C27.7321 42.4786 25.8186 39.4102 25.6211 36.9099V36.0435C25.8329 33.4391 27.5795 32.0786 29.091 31.9357C29.3224 31.9116 29.5549 31.8998 29.7875 31.9004C31.5341 31.9004 32.3724 32.6398 33.3292 33.7637C34.2896 32.6398 35.1243 31.9004 36.8692 31.9004C37.103 31.8997 37.3367 31.9115 37.5692 31.9357C39.0807 32.0786 40.8273 33.4391 41.041 36.0435V36.9099Z" fill="black"/>
</g>
<rect x="0.5" y="0.5" width="241" height="77" stroke="white"/>
<defs>
<clipPath id="clip0">
<rect width="204" height="26" fill="white" transform="translate(20 26)"/>
</clipPath>
</defs>
</svg>
