<svg width="268" height="78" viewBox="0 0 268 78" fill="none" xmlns="http://www.w3.org/2000/svg">
<path d="M93.65 69H96.158V62.312H101.218V60.266H96.158V55.756H102.648V53.71H93.65V69ZM123.056 61.322C123.056 56.746 119.602 53.512 115.246 53.512C110.934 53.512 107.436 56.746 107.436 61.322C107.436 65.92 110.934 69.154 115.246 69.154C119.602 69.154 123.056 65.92 123.056 61.322ZM110.01 61.322C110.01 57.868 112.21 55.712 115.246 55.712C118.282 55.712 120.482 57.868 120.482 61.322C120.482 64.776 118.282 66.976 115.246 66.976C112.21 66.976 110.01 64.776 110.01 61.322ZM128.802 63.412C128.802 67.306 131.53 69.154 134.742 69.154C137.932 69.154 140.748 67.306 140.748 63.412V53.71H138.24V63.456C138.24 65.832 136.898 66.954 134.764 66.954C132.652 66.954 131.31 65.832 131.31 63.456V53.71H128.802V63.412ZM157.368 53.688V65.084L149.822 53.688H147.314V69H149.822V57.582L157.368 69H159.876V53.688H157.368ZM171.463 53.71H166.469V69H171.463C176.369 69 179.581 66.118 179.581 61.41C179.581 56.68 176.369 53.71 171.463 53.71ZM168.977 66.954V55.756H171.463C175.071 55.756 177.007 57.912 177.007 61.41C177.007 64.886 175.071 66.954 171.463 66.954H168.977ZM195.685 69H198.325L192.847 53.688H189.943L184.465 69H187.083L188.183 65.876H194.585L195.685 69ZM193.881 63.83H188.887L191.395 56.724L193.881 63.83ZM203.215 55.756H207.307V69H209.815V55.756H213.885V53.71H203.215V55.756ZM219.725 69H222.233V53.71H219.725V69ZM243.609 61.322C243.609 56.746 240.155 53.512 235.799 53.512C231.487 53.512 227.989 56.746 227.989 61.322C227.989 65.92 231.487 69.154 235.799 69.154C240.155 69.154 243.609 65.92 243.609 61.322ZM230.563 61.322C230.563 57.868 232.763 55.712 235.799 55.712C238.835 55.712 241.035 57.868 241.035 61.322C241.035 64.776 238.835 66.976 235.799 66.976C232.763 66.976 230.563 64.776 230.563 61.322ZM259.431 53.688V65.084L251.885 53.688H249.377V69H251.885V57.582L259.431 69H261.939V53.688H259.431Z" fill="#111111"/>
<path d="M38 69.4036C40.0692 71.0044 42.1924 73.086 44.5709 73.086C46.5154 73.086 48.1818 72.5701 49.8278 71.4144C48.1519 69.7356 46.6058 68.8352 44.3448 68.6105C43.2073 68.4952 40.7528 67.9743 38 69.4036Z" fill="#275CDC"/>
<path d="M48.186 60.4202C44.8217 60.3078 42.2812 62.1457 41.2619 63.2672C40.0814 64.5688 39.5233 65.2473 38.8418 67.4749C41.1532 67.1699 43.3691 67.7215 45.6017 66.263C47.1244 65.2685 47.4987 62.4887 47.838 60.4231" fill="#275CDC"/>
<path d="M47.2207 68.056C48.8215 69.27 50.6156 70.1274 53.2109 70.1274C55.3786 70.1274 57.1902 69.5407 59.0478 68.1822C57.0837 66.9068 55.2195 66.3545 53.0423 66.3545C50.7988 66.3545 49.0141 66.9593 47.2207 68.056Z" fill="#275CDC"/>
<path d="M54.7015 55.8472C52.2624 56.9044 51.1388 57.8164 50.2202 58.8846C48.8368 60.4985 48.9901 62.0584 49.0287 66.2639C50.7163 65.5832 50.8002 65.2498 51.9713 63.9598C54.0273 61.6943 54.9722 58.7985 54.7015 55.8472Z" fill="#275CDC"/>
<path d="M53.5547 64.5691C55.3401 65.5373 57.2079 66.2494 59.0874 66.0276C60.4576 65.8649 63.1579 64.1335 64.534 62.2927C63.093 61.323 62.1116 61.5616 60.1738 61.5616C58.4329 61.5601 55.2525 62.9479 53.5547 64.5691Z" fill="#275CDC"/>
<path d="M59.6792 58.4048C62.3394 55.4674 62.3328 51.7113 62.1993 49.9019C59.1604 50.9408 57.8654 52.8488 57.0832 54.1497C55.8232 56.2415 55.4007 58.3858 55.2949 61.7924C57.5859 60.6462 57.9026 60.3624 59.6792 58.4048Z" fill="#275CDC"/>
<path d="M63.4153 54.7007C61.4461 56.0658 60.5158 58.5254 59.6797 60.3545C62.5376 60.6536 65.3444 59.9496 67.1189 57.695C68.8065 55.55 68.3702 54.6744 69.3143 52.4396C67.1546 52.0814 65.1547 53.5194 63.4153 54.7007Z" fill="#275CDC"/>
<path d="M68.9647 39.9336C66.6066 41.2885 65.2604 42.8513 64.4002 45.0752C63.5363 47.3086 63.6662 50.1504 64.0646 52.4414C65.793 51.0012 67.1399 49.4609 68.0096 47.9076C69.3288 45.5553 69.6483 42.882 68.9647 39.9336Z" fill="#275CDC"/>
<path d="M31.3212 69.2604C29.2542 70.8605 27.1311 72.9428 24.751 72.9428C22.8066 72.9428 21.1394 72.4262 19.4941 71.272C21.1708 69.5931 22.7147 68.692 24.975 68.4673C26.1125 68.3535 28.5677 67.8311 31.3212 69.2604Z" fill="#275CDC"/>
<path d="M21.1289 60.2754C24.4924 60.166 27.033 62.0032 28.0515 63.1231C29.2313 64.4233 29.7917 65.1033 30.4717 67.3308C28.1617 67.0295 25.9466 67.5774 23.7132 66.1211C22.1905 65.1274 21.8162 62.3454 21.4769 60.2805" fill="#275CDC"/>
<path d="M22.3674 67.7669C20.7666 68.9839 18.9732 69.8405 16.378 69.8405C14.2103 69.8405 12.3986 69.2531 10.541 67.8961C12.5051 66.62 14.3686 66.0684 16.5465 66.0684C18.7901 66.0684 20.5762 66.6747 22.3674 67.7669Z" fill="#275CDC"/>
<path d="M14.6145 55.7036C17.0522 56.7608 18.1765 57.6736 19.0944 58.7425C20.4777 60.3571 20.3253 61.9156 20.2859 66.1211C18.599 65.4396 18.5151 65.1069 17.3426 63.8184C15.2872 61.5508 14.3409 58.6549 14.6145 55.7036Z" fill="#275CDC"/>
<path d="M15.5289 64.5691C13.7435 65.5373 11.8742 66.2494 9.99543 66.0276C8.62375 65.8649 5.92562 64.1335 4.54883 62.2927C5.98982 61.323 6.97116 61.5616 8.91048 61.5616C10.6484 61.5601 13.8296 62.9479 15.5289 64.5691Z" fill="#275CDC"/>
<path d="M9.63384 58.2622C6.97365 55.3233 6.98022 51.5695 7.11301 49.7585C10.1533 50.7983 11.4462 52.7084 12.2284 54.0064C13.4891 56.0975 13.9123 58.2425 14.0174 61.6513C11.7271 60.5044 11.4105 60.2198 9.63384 58.2622Z" fill="#275CDC"/>
<path d="M5.8997 54.5584C7.86893 55.9228 8.79992 58.3824 9.63461 60.2115C6.77669 60.5107 3.96985 59.8066 2.19615 57.5528C0.508545 55.407 0.944855 54.5322 0 52.2973C2.15894 51.9384 4.16102 53.3728 5.8997 54.5584Z" fill="#275CDC"/>
<path d="M0.349604 39.7913C2.70773 41.1462 4.05461 42.7083 4.9141 44.93C5.77869 47.164 5.64955 50.0066 5.24972 52.2976C3.52271 50.8581 2.17657 49.3186 1.3076 47.7653C-0.0152022 45.4122 -0.334048 42.7389 0.349604 39.7913Z" fill="#275CDC"/>
<path d="M30.5553 73.8956L30.5137 73.3688L32.2166 72.3196L33.7948 71.5323L35.5108 70.5342L37.0503 69.9024L38.2578 69.272L38.5329 69.5354V69.8513L36.7738 70.7436L35.0176 71.5841L33.7948 72.3721L32.7645 73.2265L31.9284 73.8956L31.5716 73.9999H30.9128L30.5553 73.8956Z" fill="#275CDC"/>
<path d="M38.6957 73.7171L38.7372 73.1925L37.0336 72.1433L35.4562 71.3546L33.7394 70.3572L32.2013 69.7254L30.9938 69.0935L30.7188 69.3584V69.6728L32.4757 70.5666L34.2333 71.4071L35.4562 72.1937L36.4864 73.0488L37.3225 73.7171L37.68 73.8244H38.3389L38.6957 73.7171Z" fill="#275CDC"/>
<path d="M34.6573 59.6785C20.6865 59.6785 9.31836 48.3118 9.31836 34.3389C9.31836 20.3667 20.6865 9 34.6573 9C48.628 9 59.9962 20.366 59.9962 34.3389C59.9962 48.3118 48.628 59.6785 34.6573 59.6785ZM46.9272 29.0368C46.9272 30.8615 45.4468 32.3398 43.6243 32.3398C42.5379 32.3398 41.5755 31.8159 40.9728 31.0067H13.5151C13.3451 32.0917 13.2576 33.2051 13.2576 34.3382C13.2576 46.139 22.8564 55.7386 34.6573 55.7386C43.2989 55.7386 50.7607 50.5904 54.1359 43.1994H28.8568C28.2607 44.0494 27.2713 44.6075 26.1528 44.6075C24.3281 44.6075 22.8499 43.1279 22.8499 41.3046C22.8499 39.4798 24.3281 38.003 26.1528 38.003C27.2035 38.003 28.1425 38.4955 28.7466 39.2631V39.2624H55.4857C55.8592 37.6798 56.0577 36.0316 56.0577 34.3389C56.0577 22.5388 46.4566 12.9378 34.6558 12.9378C25.4072 12.9378 17.5091 18.8367 14.5264 27.069H40.9714C41.574 26.2598 42.5364 25.736 43.6228 25.736C45.4468 25.736 46.9272 27.2149 46.9272 29.0368Z" fill="#275CDC"/>
<path d="M105.145 32.934L110.621 24.979V41H114.839V15.84H112.286L104.183 27.865L95.5252 15.84H92.9352V41H97.0792V24.387L103.554 33.156L105.145 32.934ZM137.616 32.009C137.616 33.8837 137.234 35.5363 136.469 36.967C135.705 38.3977 134.619 39.5077 133.213 40.297C131.807 41.0863 130.167 41.481 128.292 41.481C126.418 41.481 124.79 41.0863 123.408 40.297C122.027 39.5077 120.954 38.41 120.189 37.004C119.449 35.5733 119.079 33.9083 119.079 32.009C119.079 30.1343 119.449 28.494 120.189 27.088C120.954 25.6573 122.039 24.5473 123.445 23.758C124.851 22.9687 126.492 22.574 128.366 22.574C130.241 22.574 131.869 22.9687 133.25 23.758C134.656 24.5227 135.729 25.6203 136.469 27.051C137.234 28.4817 137.616 30.1343 137.616 32.009ZM128.292 37.892C129.797 37.892 131.006 37.337 131.918 36.227C132.856 35.117 133.324 33.7233 133.324 32.046C133.324 30.2947 132.868 28.8763 131.955 27.791C131.067 26.681 129.871 26.126 128.366 26.126C126.886 26.126 125.678 26.681 124.74 27.791C123.828 28.901 123.359 30.307 123.334 32.009C123.334 33.7603 123.778 35.1787 124.666 36.264C125.579 37.3493 126.788 37.892 128.292 37.892ZM148.778 22.574C150.603 22.574 152.194 22.9687 153.551 23.758C154.908 24.5227 155.944 25.6203 156.659 27.051C157.399 28.4817 157.769 30.159 157.769 32.083C157.769 33.933 157.399 35.5733 156.659 37.004C155.919 38.41 154.858 39.5077 153.477 40.297C152.12 41.0863 150.529 41.481 148.704 41.481C148.038 41.481 147.286 41.333 146.447 41.037C145.633 40.741 144.868 40.3463 144.153 39.853L143.302 41H141.119V15.285L145.263 14.878V23.536C146.472 22.8947 147.643 22.574 148.778 22.574ZM148.704 37.892C150.184 37.892 151.343 37.3493 152.182 36.264C153.045 35.1787 153.477 33.785 153.477 32.083C153.477 30.307 153.058 28.8763 152.219 27.791C151.38 26.681 150.209 26.126 148.704 26.126C148.063 26.126 147.458 26.2247 146.891 26.422C146.348 26.6193 145.806 26.9153 145.263 27.31V36.782C146.274 37.522 147.421 37.892 148.704 37.892ZM162.946 20.169C163.637 20.169 164.216 19.9347 164.685 19.466C165.178 18.9727 165.425 18.3807 165.425 17.69C165.425 17.024 165.178 16.4567 164.685 15.988C164.216 15.4947 163.637 15.248 162.946 15.248C162.28 15.248 161.713 15.4947 161.244 15.988C160.775 16.4567 160.541 17.024 160.541 17.69C160.541 18.3807 160.763 18.9727 161.207 19.466C161.676 19.9347 162.255 20.169 162.946 20.169ZM165.092 41V23.055H160.911V41H165.092ZM173.844 41V14.878L169.7 15.285V41H173.844ZM194.16 31.898C194.16 29.1847 193.481 26.9523 192.125 25.201C190.768 23.4497 188.77 22.574 186.131 22.574C184.33 22.574 182.764 22.9687 181.432 23.758C180.124 24.5473 179.113 25.6573 178.398 27.088C177.707 28.494 177.362 30.1343 177.362 32.009C177.362 34.9197 178.213 37.226 179.915 38.928C181.641 40.6053 184.133 41.444 187.389 41.444C189.806 41.444 192.014 40.7533 194.012 39.372L192.754 36.338C191.693 36.8807 190.78 37.2877 190.016 37.559C189.276 37.8057 188.425 37.929 187.463 37.929C184.009 37.929 182.098 36.3257 181.728 33.119H194.16V31.898ZM181.802 30.344C181.974 29.012 182.418 27.976 183.134 27.236C183.874 26.496 184.836 26.126 186.02 26.126C187.179 26.126 188.104 26.4837 188.795 27.199C189.485 27.9143 189.942 28.9627 190.164 30.344H181.802ZM215.094 16.876C214.206 16.3827 213.121 16.0003 211.838 15.729C210.555 15.4577 209.47 15.322 208.582 15.322C206.165 15.322 204.043 15.8893 202.218 17.024C200.417 18.1587 199.024 19.7373 198.037 21.76C197.05 23.758 196.557 26.0273 196.557 28.568C196.557 30.9853 197.001 33.1807 197.889 35.154C198.802 37.1027 200.146 38.6567 201.922 39.816C203.698 40.9507 205.844 41.518 208.36 41.518C209.445 41.518 210.642 41.37 211.949 41.074C213.281 40.778 214.391 40.408 215.279 39.964L213.688 36.856C211.937 37.6207 210.099 38.003 208.175 38.003C206.67 38.003 205.363 37.5837 204.253 36.745C203.168 35.8817 202.329 34.7347 201.737 33.304C201.17 31.8733 200.886 30.2823 200.886 28.531C200.886 26.607 201.219 24.9173 201.885 23.462C202.551 21.982 203.451 20.8473 204.586 20.058C205.745 19.244 207.04 18.837 208.471 18.837C209.482 18.837 210.296 18.911 210.913 19.059C211.554 19.1823 212.529 19.4537 213.836 19.873L215.094 16.876ZM235.464 32.009C235.464 33.8837 235.082 35.5363 234.317 36.967C233.552 38.3977 232.467 39.5077 231.061 40.297C229.655 41.0863 228.015 41.481 226.14 41.481C224.265 41.481 222.637 41.0863 221.256 40.297C219.875 39.5077 218.802 38.41 218.037 37.004C217.297 35.5733 216.927 33.9083 216.927 32.009C216.927 30.1343 217.297 28.494 218.037 27.088C218.802 25.6573 219.887 24.5473 221.293 23.758C222.699 22.9687 224.339 22.574 226.214 22.574C228.089 22.574 229.717 22.9687 231.098 23.758C232.504 24.5227 233.577 25.6203 234.317 27.051C235.082 28.4817 235.464 30.1343 235.464 32.009ZM226.14 37.892C227.645 37.892 228.853 37.337 229.766 36.227C230.703 35.117 231.172 33.7233 231.172 32.046C231.172 30.2947 230.716 28.8763 229.803 27.791C228.915 26.681 227.719 26.126 226.214 26.126C224.734 26.126 223.525 26.681 222.588 27.791C221.675 28.901 221.207 30.307 221.182 32.009C221.182 33.7603 221.626 35.1787 222.514 36.264C223.427 37.3493 224.635 37.892 226.14 37.892ZM240.632 20.169C241.322 20.169 241.902 19.9347 242.371 19.466C242.864 18.9727 243.111 18.3807 243.111 17.69C243.111 17.024 242.864 16.4567 242.371 15.988C241.902 15.4947 241.322 15.248 240.632 15.248C239.966 15.248 239.398 15.4947 238.93 15.988C238.461 16.4567 238.227 17.024 238.227 17.69C238.227 18.3807 238.449 18.9727 238.893 19.466C239.361 19.9347 239.941 20.169 240.632 20.169ZM242.778 41V23.055H238.597V41H242.778ZM251.16 28.457C253.158 26.8043 254.909 25.978 256.414 25.978C258.264 25.978 259.189 27.2237 259.189 29.715V41H263.37V29.456C263.37 27.2853 262.901 25.5833 261.964 24.35C261.026 23.092 259.509 22.463 257.413 22.463C256.327 22.463 255.168 22.7097 253.935 23.203C252.701 23.6963 251.567 24.3623 250.531 25.201L249.791 23.055H247.016V41H251.16V28.457Z" fill="#111111"/>
</svg>
