<svg width="484" height="62" viewBox="0 0 484 62" fill="none" xmlns="http://www.w3.org/2000/svg">
<path d="M90.158 10.6747V25.9275H100.58V35.845H90.158V61.4697H79.4297V0.458496H101.738V10.6747H90.158Z" fill="white"/>
<path d="M103.361 61.4697V0.458496H114.567V61.4697H103.361Z" fill="white"/>
<path d="M135.86 61.4698L135.396 59.4838C134.238 61.0112 131.461 61.9243 128.837 61.9243C122.274 61.9243 117.798 58.495 117.487 51.4051C117.334 49.4233 117.104 36.7624 117.104 31.1199C117.104 25.4774 116.946 15.4842 117.568 10.4518C118.1 5.64248 121.346 0 130.451 0C139.638 0 142.419 5.56675 142.956 10.069C143.036 12.1265 143.113 21.2782 143.113 21.2782H132.615V12.8124C132.615 10.4476 131.921 9.53458 130.528 9.53458C129.216 9.53458 128.445 10.5234 128.445 13.1153C128.369 17.2346 128.369 27.0006 128.369 31.04C128.369 34.7764 128.445 46.6715 128.522 49.1329C128.522 51.9563 129.14 53.1008 130.839 53.1008C132.385 53.1008 133.156 52.1078 133.156 49.4401V36.4552H129.991V27.1521H143.42V47.8159C143.42 54.7586 143.577 61.4698 143.577 61.4698H135.86Z" fill="white"/>
<path d="M160.945 61.4697V35.5378H156.546V61.4697H145.898V0.458496H156.546V26.1589H160.945V0.458496H171.593V61.4697H160.945Z" fill="white"/>
<path d="M190.741 10.6747V61.4697H179.932V10.6747H173.373V0.458496H197.457V10.6747H190.741Z" fill="white"/>
<path d="M212.896 5.18792V28.368H221.308V32.9459H212.896V61.4697H208.109V0.458496H221.93V5.18792H212.896Z" fill="white"/>
<path d="M240.205 10.3718C240.205 13.1152 240.281 24.7115 240.281 30.7327C240.281 37.4439 240.281 47.8158 240.205 51.7711C239.975 58.5033 237.504 61.9115 231.866 61.9115C226.227 61.9115 223.842 58.7095 223.684 51.9225C223.607 50.2395 223.607 37.3556 223.607 30.7958C223.607 25.1533 223.607 12.6481 223.684 10.599C223.842 3.58483 226.239 0.151367 231.866 0.151367C237.287 0.151367 239.992 3.27766 240.205 10.3718ZM235.205 52.6967C235.358 50.0291 235.358 35.5379 235.358 30.8842C235.358 26.7691 235.358 12.4293 235.281 9.9889C235.205 6.48391 234.429 4.93969 231.959 4.93969C229.182 4.93969 228.641 6.92571 228.641 10.052C228.641 12.5766 228.565 26.6765 228.565 31.0904C228.565 35.7188 228.565 50.0796 228.641 52.6715C228.718 55.2634 229.412 57.1737 232.049 57.1737C234.353 57.1989 235.051 55.1204 235.205 52.6967Z" fill="white"/>
<path d="M257.977 27.3034C257.436 28.8266 256.273 30.8084 255.272 31.1913L260.289 61.4865H255.272L250.873 32.6387L248.479 32.7145V61.4697H243.85V0.458496H251.184C255.442 0.458496 257.436 2.74747 258.36 6.77C258.747 8.5246 258.977 12.1095 258.977 16.9147C258.977 21.9639 258.671 25.0902 257.977 27.3034ZM253.654 9.00006C253.496 6.73213 252.495 5.04906 250.796 5.04906H248.556V28.2333C249.382 28.2416 250.207 28.191 251.026 28.0818C252.342 27.9304 252.883 26.9374 253.189 25.9443C253.73 24.4969 253.96 20.0746 253.96 17.7099C253.96 14.5668 253.73 9.76165 253.654 9.00006Z" fill="white"/>
<path d="M276.406 5.04906V61.4697H271.563V5.04906H266.082V0.458496H281.981V5.04906H276.406Z" fill="white"/>
<path d="M295.26 61.4697V32.9459H289.008V61.4697H284.221V0.458496H289.008V28.368H295.26V0.458496H300.047V61.4697H295.26Z" fill="white"/>
<path d="M304.213 61.4697V0.458496H318.029V5.04906H309V28.368H316.951V32.9459H309V56.8917H318.11V61.4697H304.213Z" fill="white"/>
<path d="M338.871 10.6747V25.9275H349.293V35.845H338.871V61.4697H328.143V0.458496H350.451V10.6747H338.871Z" fill="white"/>
<path d="M364.966 61.9999C357.245 61.9999 351.764 58.1877 351.764 49.4947V0.458496H362.411V49.4189C362.411 52.0108 363.11 52.6967 364.651 52.6967C366.193 52.6967 366.738 51.9351 366.738 49.4947V0.458496H377.471V49.4947C377.471 57.5776 372.837 61.9999 364.966 61.9999Z" fill="white"/>
<path d="M396.462 10.6747V61.4697H385.653V10.6747H379.094V0.458496H403.178V10.6747H396.462Z" fill="white"/>
<path d="M417.765 61.9999C410.048 61.9999 404.562 58.1877 404.562 49.4947V0.458496H415.21V49.4189C415.21 52.0108 415.904 52.6967 417.45 52.6967C418.996 52.6967 419.533 51.9351 419.533 49.4947V0.458496H430.265V49.4947C430.274 57.5776 425.64 61.9999 417.765 61.9999Z" fill="white"/>
<path d="M457.6 28.2165C456.829 30.354 455.513 31.9529 454.435 32.4873L460.07 61.4697H449.32L444.691 35.6136H443.533V61.4697H433.188V0.458496H447.549C451.484 0.458496 455.266 2.21309 456.812 5.56661C457.966 8.09121 458.895 12.4293 458.895 17.9203C458.912 22.8012 458.371 26.0075 457.6 28.2165ZM447.804 13.1909C447.651 11.592 446.952 10.296 445.564 10.296H443.716V26.5418C443.869 26.5418 445.257 26.5418 445.798 26.4619C446.799 26.3104 447.263 25.6204 447.502 24.7788C447.889 23.7101 448.043 20.8867 448.043 19.0564C448.043 16.8558 447.872 13.8852 447.796 13.1909H447.804Z" fill="white"/>
<path d="M461.922 61.4697V0.458496H483.924V10.6747H472.654V25.9275H482.919V35.4621H472.654V51.4765H484V61.4697H461.922Z" fill="white"/>
<path d="M61.9039 0H0V61.1585H61.9039V0Z" fill="white"/>
<path d="M49.9242 26.016C49.4515 31.9656 44.9114 39.2954 31.6107 48.4975C18.3484 39.2954 13.8083 31.9782 13.3398 26.016V23.95C13.8424 17.7395 17.9864 14.4954 21.5724 14.1545C22.1213 14.0969 22.6729 14.0689 23.2249 14.0704C27.3688 14.0704 29.3578 15.8334 31.6278 18.5137C33.9063 15.8334 35.8867 14.0704 40.0264 14.0704C40.5812 14.0686 41.1357 14.0967 41.6874 14.1545C45.2735 14.4954 49.4174 17.7395 49.9242 23.95V26.016Z" fill="#222222"/>
</svg>
