<svg width="437" height="61" viewBox="0 0 437 61" fill="none" xmlns="http://www.w3.org/2000/svg">
<path d="M78.4004 9.30029H94.2004C109.5 9.30029 122.4 15.8003 122.4 33.3003C122.4 48.7003 109.8 57.0003 95.6004 57.0003H78.4004V9.30029ZM88.9004 47.2003H94.4004C104.2 47.2003 111.5 43.5003 111.5 32.7003C111.5 23.3003 104 19.0003 95.1004 19.0003H88.9004V47.2003V47.2003Z" fill="white"/>
<path d="M127.801 24.1999H137.901V29.4999H138.001C140.201 25.4999 143.001 23.3999 147.401 23.3999C148.501 23.3999 149.801 23.4999 150.801 23.6999V32.8999C149.401 32.4999 148.001 32.1999 146.501 32.1999C138.801 32.1999 137.901 36.5999 137.901 43.1999V56.8999H127.801V24.1999Z" fill="white"/>
<path d="M185.1 51.2999C181.9 55.3999 176.6 57.7999 171.3 57.7999C161.2 57.7999 153.1 51.0999 153.1 40.5999C153.1 30.1999 161.2 23.3999 171.3 23.3999C180.7 23.3999 186.6 30.0999 186.6 40.5999V43.7999H163.2C164 47.5999 166.9 50.0999 170.8 50.0999C174.1 50.0999 176.3 48.3999 178 46.0999L185.1 51.2999ZM176.5 36.7999C176.6 33.3999 173.9 30.5999 170.3 30.5999C165.9 30.5999 163.4 33.5999 163.2 36.7999H176.5Z" fill="white"/>
<path d="M212.1 52.8003H212C209.8 56.3003 205.7 57.7003 201.6 57.7003C195.5 57.7003 190 54.2003 190 47.6003C190 36.3003 203.7 36.1003 212.1 36.1003C212.1 32.5003 209.1 30.2003 205.6 30.2003C202.3 30.2003 199.5 31.7003 197.4 34.1003L192 28.6003C195.7 25.1003 201.1 23.3003 206.4 23.3003C218.2 23.3003 221.3 29.3003 221.3 40.2003V56.8003H212V52.8003H212.1ZM209.6 42.6003C206.5 42.6003 199.6 42.9003 199.6 47.3003C199.6 49.7003 202.2 50.9003 204.4 50.9003C208.4 50.9003 212.1 48.8003 212.1 44.8003V42.6003H209.6Z" fill="white"/>
<path d="M227.701 24.2003H237.401V28.6003H237.501C238.801 26.0003 242.101 23.3003 247.101 23.3003C251.701 23.3003 255.401 25.2003 257.201 29.2003C259.601 25.0003 262.701 23.3003 267.601 23.3003C276.501 23.3003 279.201 29.6003 279.201 37.5003V56.8003H269.001V37.8003C269.001 34.8003 267.901 32.2003 264.601 32.2003C260.001 32.2003 258.501 35.5003 258.501 39.5003V56.8003H248.401V39.6003C248.401 37.2003 248.501 32.3003 243.901 32.3003C238.601 32.3003 237.801 36.4003 237.801 40.6003V56.9003H227.701V24.2003Z" fill="white"/>
<path d="M285.5 9.30029H296V27.0003H316.4V9.30029H326.9V57.0003H316.4V36.3003H296V56.9003H285.5V9.30029Z" fill="white"/>
<path d="M349.6 23.3999C359.7 23.3999 367.8 30.0999 367.8 40.5999C367.8 50.9999 359.7 57.7999 349.6 57.7999C339.5 57.7999 331.4 51.0999 331.4 40.5999C331.4 30.0999 339.5 23.3999 349.6 23.3999ZM349.6 48.7999C354.6 48.7999 357.7 45.3999 357.7 40.4999C357.7 35.5999 354.7 32.1999 349.6 32.1999C344.6 32.1999 341.5 35.5999 341.5 40.4999C341.5 45.4999 344.6 48.7999 349.6 48.7999Z" fill="white"/>
<path d="M390.901 33.7999C389.401 31.9999 387.501 30.9999 385.001 30.9999C383.301 30.9999 381.301 31.6999 381.301 33.6999C381.301 38.4999 398.301 34.3999 398.301 46.8999C398.301 55.1999 390.201 57.6999 383.201 57.6999C378.601 57.6999 373.601 56.5999 370.301 53.2999L376.401 46.4999C378.301 48.7999 380.501 50.0999 383.501 50.0999C385.801 50.0999 388.101 49.4999 388.101 47.6999C388.101 42.3999 371.101 46.8999 371.101 34.3999C371.101 26.6999 378.001 23.3999 384.801 23.3999C389.101 23.3999 393.901 24.4999 396.901 27.6999L390.901 33.7999Z" fill="white"/>
<path d="M425.5 32.3H416.6V43.2C416.6 46.7 417 49.3 421.4 49.3C422.5 49.3 424.6 49.2 425.5 48.4V56.8C423.3 57.6 420.8 57.8 418.4 57.8C411.7 57.8 406.5 55 406.5 47.9V32.3H400V24.2H406.5V14.5H416.6V24.2H425.5V32.3Z" fill="white"/>
<path d="M60.3005 46C55.4005 48.7 49.8005 50.2 43.8005 50.1C26.0005 49.7 12.0005 35.4 12.3005 18C12.4005 12.1 14.2005 6.6 17.2005 2C7.70049 7.3 1.20049 17.2 1.00049 28.7C0.600492 46 14.7005 60.4 32.4005 60.8C44.2005 61 54.5005 55.1 60.3005 46Z" fill="white"/>
<path d="M34.2999 0.600098C29.4999 0.600098 24.9999 1.8001 20.9999 4.0001C18.4999 8.1001 17.0999 12.8001 16.8999 17.6001C16.5999 32.7001 28.8999 45.2001 44.1999 45.5001C48.7999 45.5001 53.9999 44.4001 57.9999 42.2001C60.3999 38.1001 61.7999 33.3001 61.7999 28.2001C61.9999 13.0001 49.5999 0.600098 34.2999 0.600098Z" fill="white"/>
<path d="M429 9.50019C429 9.00019 429.1 8.50019 429.3 8.00019C429.5 7.50019 429.8 7.20019 430.1 6.80019C430.4 6.50019 430.8 6.20019 431.3 6.00019C431.7 5.80019 432.2 5.7002 432.7 5.7002C433.2 5.7002 433.7 5.80019 434.1 6.00019C434.5 6.20019 434.9 6.40019 435.3 6.80019C435.6 7.10019 435.9 7.50019 436.1 8.00019C436.3 8.50019 436.4 8.90019 436.4 9.50019C436.4 10.0002 436.3 10.5002 436.1 11.0002C435.9 11.4002 435.6 11.8002 435.3 12.2002C435 12.5002 434.6 12.8002 434.1 13.0002C433.7 13.2002 433.2 13.3002 432.7 13.3002C432.2 13.3002 431.7 13.2002 431.3 13.0002C430.9 12.8002 430.5 12.6002 430.1 12.2002C429.8 11.9002 429.5 11.5002 429.3 11.0002C429.1 10.5002 429 10.0002 429 9.50019ZM429.7 9.50019C429.7 9.90019 429.8 10.4002 429.9 10.7002C430.1 11.1002 430.3 11.4002 430.5 11.7002C430.8 12.0002 431.1 12.2002 431.5 12.4002C431.9 12.6002 432.3 12.6002 432.7 12.6002C433.1 12.6002 433.5 12.5002 433.9 12.4002C434.3 12.2002 434.6 12.0002 434.9 11.7002C435.2 11.4002 435.4 11.1002 435.5 10.7002C435.7 10.3002 435.7 9.90019 435.7 9.50019C435.7 9.10019 435.6 8.60019 435.5 8.30019C435.3 7.90019 435.1 7.60019 434.9 7.30019C434.6 7.00019 434.3 6.80019 433.9 6.60019C433.5 6.40019 433.1 6.40019 432.7 6.40019C432.3 6.40019 431.9 6.50019 431.5 6.60019C431.1 6.80019 430.8 7.00019 430.5 7.30019C430.2 7.60019 430 7.90019 429.9 8.30019C429.7 8.60019 429.7 9.00019 429.7 9.50019ZM431.3 7.30019H432.9C433.9 7.30019 434.4 7.70019 434.4 8.50019C434.4 8.90019 434.3 9.20019 434.1 9.40019C433.9 9.60019 433.6 9.7002 433.3 9.7002L434.5 11.6002H433.8L432.6 9.7002H431.9V11.6002H431.2L431.3 7.30019ZM431.9 9.2002H432.6C432.7 9.2002 432.9 9.2002 433 9.2002C433.1 9.2002 433.3 9.20019 433.4 9.10019C433.5 9.10019 433.6 9.00019 433.7 8.90019C433.8 8.80019 433.8 8.70019 433.8 8.50019C433.8 8.40019 433.8 8.20019 433.7 8.10019C433.6 8.00019 433.6 7.90019 433.5 7.90019C433.4 7.90019 433.3 7.80019 433.2 7.80019C433.1 7.80019 433 7.80019 432.9 7.80019H432L431.9 9.2002Z" fill="white"/>
</svg>
