<svg width="398" height="74" viewBox="0 0 398 74" fill="none" xmlns="http://www.w3.org/2000/svg">
<path d="M0.675215 0.486774C-0.247579 1.21689 -0.224509 2.38507 0.744424 3.23686L1.45959 3.86963H36.4104H71.3612L72.0302 3.35855C72.9069 2.70145 72.9992 1.16821 72.1917 0.4381C71.6842 3.26355e-05 70.5538 3.26355e-05 36.4796 3.26355e-05C1.36731 3.26355e-05 1.2981 3.26355e-05 0.675215 0.486774Z" fill="white"/>
<path d="M2.66432 11.1132C2.31779 11.2966 2.06367 11.6403 2.01746 12.007C1.90195 12.9008 2.66432 13.2905 5.69072 13.9322C7.09995 14.2072 8.5785 14.6426 8.97124 14.8718C9.41018 15.1239 12.7831 19.2722 17.5191 25.3685C21.8161 30.9147 26.7831 37.3089 28.5619 39.5779C32.0273 44.024 32.189 44.3907 31.3342 45.7658C30.7104 46.7513 12.76 67.5842 12.0669 68.1342C10.8887 69.0509 8.76332 69.7843 5.59831 70.426C2.01746 71.1136 1.32439 71.5032 1.60162 72.5574C1.69403 72.9012 1.99436 73.245 2.27159 73.3367C2.54881 73.4513 9.08675 73.52 16.7798 73.4971C31.7269 73.4742 31.5421 73.4971 31.5421 72.3741C31.5421 71.6407 30.9184 71.3886 28.0768 70.8615C23.7567 70.1052 22.5091 69.5781 21.8854 68.2717C21.1692 66.8049 22.8326 63.5734 29.4167 53.5581C33.3903 47.5076 33.0438 47.9431 33.9217 47.9431C34.4299 47.9431 34.8688 48.1264 35.1692 48.4473C36.6477 50.0745 49.2384 67.2404 49.5388 68.0425C49.8622 68.9363 49.8622 69.028 49.4695 69.4405C48.9612 70.0135 48.7533 70.0593 45.1031 70.5177C41.4992 70.9532 40.783 71.2511 40.783 72.3283C40.783 72.7408 40.9216 73.1992 41.0834 73.3138C41.2451 73.4513 47.2285 73.52 56.2846 73.52C72.2714 73.4971 71.971 73.52 71.971 72.3512C71.971 71.3428 70.9776 70.9073 67.4661 70.4031C65.2483 70.0823 63.8622 69.5781 62.4298 68.5926C61.6443 68.0654 58.7335 64.5131 51.2483 54.9332C45.6807 47.8056 40.9909 41.6176 40.8061 41.1822C40.2055 39.6695 40.4134 39.3258 46.8589 31.4189C55.1526 21.1973 56.8391 19.2034 58.8721 17.3012C61.0437 15.2614 62.7301 14.3905 66.1955 13.5426C68.8291 12.9008 69.5222 12.4883 69.3836 11.7549C69.3374 11.5487 68.8984 11.2507 68.4133 11.0674C67.6278 10.7694 66.7499 10.7694 61.8292 10.9986C57.5321 11.2049 54.9678 11.2278 51.4332 11.0215C45.4497 10.7007 43.3936 10.7923 42.9546 11.3882C42.0305 12.6258 42.8853 13.2217 46.3969 13.7947C49.1922 14.2301 50.2318 14.6197 50.8094 15.4448C51.2945 16.1094 51.2714 16.6824 50.7401 17.8283C49.9777 19.4784 39.8589 35.4296 39.1428 36.0713C38.7731 36.438 38.2649 36.7131 38.0108 36.7131C37.387 36.7131 36.0702 35.5213 34.9151 33.8712C34.3606 33.092 31.6576 29.2875 28.9085 25.4143C23.8029 18.2408 23.2253 17.3012 23.2253 16.1323C23.2253 14.7801 24.3804 14.2989 28.1923 14.0238C29.717 13.9322 31.2418 13.7259 31.5652 13.6113C32.8359 13.13 32.4431 11.457 30.9415 10.9528C30.5025 10.8153 28.0075 10.8153 23.4563 10.9986C18.6973 11.2049 15.3244 11.2049 12.2518 11.0444C6.19897 10.7465 3.35739 10.7694 2.66432 11.1132Z" fill="white"/>
<path d="M94.6474 8.60858C93.5617 11.1362 92.8492 13.4974 93.0867 13.8965C93.2564 14.1293 93.9689 13.6305 95.0885 12.5995C97.4634 10.2715 99.533 9.67282 101.908 10.5375L102.79 10.8701L102.688 20.1489C102.62 26.3016 102.451 29.594 102.213 29.8268C102.01 30.0264 101.128 30.359 100.245 30.5918C97.192 31.3567 98.3116 31.656 104.385 31.6893C108.795 31.7225 110.22 31.6227 110.22 31.2902C110.22 30.8246 109.474 30.492 108.388 30.492C107.981 30.492 107.302 30.2592 106.895 29.9599C106.149 29.461 106.149 29.3945 106.149 20.2154C106.149 12.3667 106.217 10.9033 106.658 10.5375C107.031 10.2382 107.811 10.1717 109.304 10.338C112.833 10.7038 113.545 11.0696 113.952 12.5662C114.427 14.2624 115.038 14.0961 115.411 12.1671C115.716 10.5708 115.411 7.21177 114.97 7.21177C114.834 7.21177 114.461 7.5776 114.156 8.04321L113.613 8.87464H105.301C98.2437 8.87464 96.9545 8.80813 96.5134 8.34252C96.2081 8.07646 95.9706 7.67737 95.9706 7.51109C95.9706 6.71291 95.1902 7.3448 94.6474 8.60858Z" fill="white"/>
<path d="M191.191 8.67925C191.191 8.97902 191.643 9.21218 192.416 9.34542C194.448 9.71181 194.738 9.87835 194.899 10.6111C195.254 11.9768 194.931 29.4303 194.544 29.83C194.351 30.0299 193.577 30.2964 192.771 30.4296C191.868 30.5961 191.353 30.8626 191.353 31.1624C191.353 31.5621 192.642 31.662 199.509 31.6953C205.57 31.6953 207.73 31.6287 207.956 31.3289C208.375 30.796 208.794 26.4992 208.439 26.4992C208.278 26.4992 207.537 27.1654 206.795 27.9648C205.183 29.7301 203.7 30.2297 200.605 30.0965L198.445 29.9966L198.348 20.2039C198.316 13.7421 198.381 10.2781 198.606 10.0116C198.8 9.77843 199.606 9.47865 200.38 9.34542C201.314 9.21218 201.83 8.97902 201.83 8.64594C201.83 8.24624 200.928 8.17962 196.511 8.17962C192.062 8.17962 191.191 8.24624 191.191 8.67925Z" fill="white"/>
<path d="M312.178 8.42196C311.712 8.871 312.743 9.56183 313.907 9.56183C316.368 9.56183 316.435 9.73453 316.302 16.6773C316.235 20.0969 316.102 24.7254 315.969 27.0052L315.77 31.1501L314.14 31.3919C312.81 31.5646 311.38 32.2554 311.978 32.3936C312.677 32.6009 322.654 32.5318 322.787 32.3245C323.02 31.91 322.288 31.5992 320.492 31.3574C317.931 31.0465 317.898 30.8738 317.998 21.1332L318.098 12.9469L326.711 23.3438C332.232 30.0103 335.558 33.7407 335.957 33.7407C336.522 33.7407 336.556 33.2226 336.556 22.5839C336.556 10.1836 336.622 9.8727 338.584 9.56183C339.216 9.42366 339.915 9.21641 340.148 9.07825C341.145 8.42196 339.848 8.18018 335.525 8.18018C331.8 8.18018 330.902 8.2838 330.902 8.66375C330.902 9.18187 331.9 9.56183 333.429 9.56183C333.962 9.56183 334.593 9.73453 334.826 9.97632C335.292 10.4599 335.425 27.5233 334.959 27.5233C334.793 27.5233 331.135 23.1711 326.778 17.8517L318.896 8.18018H315.637C313.841 8.18018 312.277 8.2838 312.178 8.42196Z" fill="white"/>
<path d="M219.387 15.3922C217.848 16.2438 217.047 16.959 216.278 18.1512C214.932 20.263 214.419 22.9538 214.868 25.2359C215.316 27.4839 215.669 28.1311 217.239 29.9022C221.342 34.3983 229.258 33.3424 232.014 27.9267C234.322 23.4306 232.88 18.0149 228.745 15.4263C227.495 14.6429 226.822 14.4726 224.355 14.3704C221.598 14.2342 221.374 14.2682 219.387 15.3922ZM226.726 16.0394C228.201 16.9931 228.874 17.9128 229.515 19.8883C230.284 22.3066 230.027 26.5983 228.97 28.6079C227.143 32.1843 222.079 32.7634 219.611 29.6638C218.489 28.2332 218.105 26.6324 218.105 23.2944C218.105 20.9101 218.233 20.263 219.002 18.6962C219.611 17.4359 220.284 16.6184 221.182 16.1075C222.848 15.0857 225.22 15.0516 226.726 16.0394Z" fill="white"/>
<path d="M272.707 14.9787C269.012 16.4858 266.886 19.6028 266.854 23.6104C266.854 28.0632 269.568 31.557 273.787 32.4818C276.043 32.9613 279.673 32.6873 282.093 31.8653L283.827 31.2487L283.99 28.5085C284.187 25.3915 284.383 24.912 285.495 24.912C285.985 24.912 286.28 24.7065 286.28 24.3982C286.28 23.9529 285.593 23.8844 282.028 23.8844C278.463 23.8844 277.777 23.9529 277.777 24.3982C277.777 24.7407 278.104 24.912 278.856 24.912C279.444 24.912 280.262 25.1517 280.654 25.46C281.276 25.9053 281.374 26.2821 281.374 28.0975C281.374 30.6322 281.178 30.9747 279.706 31.42C277.188 32.1735 274.735 31.5912 272.806 29.7758C270.941 28.029 270.255 26.3163 270.255 23.3706C270.255 20.4249 270.941 18.7122 272.806 16.9653C274.408 15.4582 276.338 14.8417 278.398 15.15C279.673 15.3555 280.164 15.6637 281.603 17.2736C283.009 18.815 283.369 19.0548 283.532 18.5752C283.663 18.2327 283.631 17.4106 283.467 16.7256C283.205 15.6295 282.976 15.424 281.537 14.9102C279.248 14.0881 274.833 14.1224 272.707 14.9787Z" fill="white"/>
<path d="M351.676 14.7293C347.555 16.3681 345.614 19.0995 345.58 23.3332C345.546 30.1276 351.676 34.2589 358.692 32.1762C361.348 31.3909 363.834 28.8302 364.618 26.0988C366.014 21.3188 363.528 16.334 359.032 14.7975C357.262 14.183 353.141 14.1488 351.676 14.7293ZM358.351 16.095C360.803 17.7338 361.893 20.4994 361.655 24.4258C361.348 29.0692 359.067 31.6982 355.354 31.6982C351.268 31.6982 349.054 28.8985 349.02 23.6747C348.986 19.6117 350.552 16.5388 353.209 15.5487C354.537 15.0365 357.227 15.3097 358.351 16.095Z" fill="white"/>
<path d="M120.987 15.6538C120.987 15.8123 121.499 16.0658 122.112 16.2243L123.203 16.4778V23.4498V30.3902L121.942 30.6754C121.226 30.8338 120.646 31.1507 120.646 31.3409C120.646 31.6261 121.805 31.7212 124.702 31.6895C129.542 31.6578 130.394 31.3409 127.36 30.7388L126.406 30.5169L126.508 27.2844L126.611 24.0519H131.382H136.153L136.255 27.0626C136.358 30.3268 136.085 30.8655 134.381 30.8655C133.938 30.8655 133.597 31.0557 133.597 31.3092C133.597 31.6261 134.483 31.7212 137.789 31.6895C140.311 31.6578 141.947 31.531 141.947 31.3409C141.947 31.1507 141.572 30.9606 141.095 30.9289C139.425 30.7071 139.391 30.5803 139.391 23.3547C139.391 18.2208 139.493 16.5412 139.834 16.4778C140.038 16.3827 140.652 16.256 141.197 16.1609C141.708 16.0341 142.117 15.8123 142.117 15.6538C142.117 15.2418 134.381 15.2418 134.142 15.6221C133.904 15.939 134.722 16.2876 135.676 16.2876C136.255 16.2876 136.324 16.5412 136.324 19.4567V22.6259H131.382H126.406L126.508 19.5518L126.611 16.4778L127.735 16.2243C129.916 15.6855 128.826 15.3369 124.907 15.3369C122.589 15.3369 120.987 15.4637 120.987 15.6538Z" fill="white"/>
<path d="M148.769 15.5991C148.769 15.7581 149.287 16.0126 149.907 16.1717L151.011 16.4262L151.114 23.2337C151.149 27.1146 151.045 30.1684 150.873 30.3275C150.7 30.4865 150.045 30.7092 149.39 30.8364C148.769 30.9637 148.252 31.1863 148.252 31.3454C148.252 31.5363 151.321 31.6635 156.08 31.6635L163.908 31.6953L164.288 30.1366C164.943 27.2736 164.563 26.4465 163.494 28.4824C162.598 30.232 161.46 30.7092 158.218 30.7092C154.39 30.7092 154.287 30.6137 154.287 26.701V23.5518H157.184C159.908 23.5518 160.149 23.6154 160.805 24.3788C161.218 24.856 161.529 25.4286 161.529 25.6513C161.529 25.9058 161.667 26.0966 161.839 26.0966C162.218 26.0966 162.529 20.9751 162.184 20.5616C162.046 20.4343 161.667 20.7524 161.391 21.2932C160.701 22.4702 160.011 22.6611 156.873 22.5338L154.459 22.4384V19.4164V16.3943L157.391 16.2989C160.77 16.2035 162.425 16.7761 163.219 18.2394C163.839 19.5118 164.357 18.9074 164.219 16.9988L164.115 15.44L156.459 15.3446C151.528 15.3128 148.769 15.3764 148.769 15.5991Z" fill="white"/>
<path d="M239.248 15.6648C239.248 15.8288 239.775 16.0583 240.401 16.1895C242.378 16.5502 242.543 17.1405 242.51 22.8795C242.51 25.667 242.378 28.6185 242.279 29.4384C242.082 30.7501 241.917 30.9469 240.895 31.2748C238.82 31.9635 239.512 32.2587 243.103 32.2259C246.661 32.2259 248.012 31.7667 245.673 31.3732C245.014 31.2748 244.322 31.0125 244.091 30.7829C243.597 30.291 243.301 18.9442 243.795 18.9442C243.96 18.9442 247.122 22.0269 250.78 25.831C254.437 29.6351 257.567 32.7178 257.731 32.7178C257.896 32.7178 258.028 29.2088 258.028 24.88C258.028 16.5175 257.995 16.6158 259.774 16.1895C261.718 15.7304 260.565 15.3369 257.204 15.3369C253.119 15.3369 252.46 15.8944 255.886 16.3863C256.512 16.4847 256.545 16.7798 256.644 22.1253L256.71 27.7986L250.549 21.5678L244.355 15.3369H241.818C240.401 15.3369 239.248 15.468 239.248 15.6648Z" fill="white"/>
<path d="M371.223 16.4559C371.792 17.0484 374.07 20.9323 376.281 25.0795C378.459 29.2267 380.402 32.6498 380.603 32.7156C380.771 32.7814 381.709 31.3332 382.647 29.5229C383.551 27.6797 384.389 26.1986 384.489 26.1986C384.556 26.1986 385.394 27.6797 386.365 29.49C387.304 31.3332 388.242 32.7485 388.409 32.7156C388.577 32.6498 390.319 29.0621 392.262 24.7504C395.176 18.3321 396.014 16.7851 396.785 16.3572C397.287 16.061 397.723 15.7318 397.723 15.5673C397.723 15.2381 392.764 15.271 392.563 15.6331C392.463 15.7977 392.831 16.0939 393.367 16.2914C393.937 16.4559 394.372 16.6863 394.372 16.7522C394.372 16.9497 389.347 28.6013 389.213 28.7659C389.113 28.8317 388.376 27.6139 387.505 26.0669L385.963 23.2692L387.672 19.9449C389.046 17.213 389.548 16.5547 390.352 16.2585C392.094 15.6989 391.458 15.3369 388.677 15.3369C385.963 15.3369 385.226 15.7318 386.835 16.3243C387.639 16.6205 387.672 16.6863 387.237 17.7067C386.969 18.2991 386.399 19.517 385.93 20.4386L385.059 22.0514L383.685 19.3524L382.312 16.6534L383.149 16.3243C384.858 15.6989 384.02 15.3369 380.804 15.3369C377.555 15.3369 376.885 15.6331 378.56 16.2914C379.263 16.5876 379.967 17.6079 381.608 20.7019L383.786 24.7174L382.647 26.791C382.044 27.943 381.407 28.733 381.273 28.6013C380.871 28.1734 374.941 17.0813 374.941 16.7193C374.941 16.5547 375.31 16.2914 375.779 16.1926C377.488 15.7647 376.181 15.3369 373.166 15.3369H370.117L371.223 16.4559Z" fill="white"/>
<path d="M93.617 48.4627C93.041 48.6442 93.1739 48.8258 94.2816 49.2343L95.6993 49.7335L95.6107 58.0394L95.4778 66.3453L94.2816 66.4815C93.5727 66.5722 93.041 66.8446 93.041 67.0715C93.041 67.2984 95.0347 67.48 97.4715 67.48C100.13 67.48 101.902 67.2984 101.902 67.0261C101.902 66.7538 101.503 66.5722 100.972 66.5722C98.7121 66.5722 98.3576 65.8914 98.3576 61.8066V57.9486H100.706C103.143 57.9486 104.117 58.4933 104.117 59.8549C104.117 60.3088 104.339 60.6719 104.56 60.6719C104.826 60.6719 105.003 59.2195 105.003 57.2678C105.003 53.9092 104.472 52.7745 103.94 54.9985C103.586 56.4509 102.256 57.1317 100.218 56.9501L98.5791 56.814V53.183V49.552L101.193 49.4158C103.851 49.2797 105.446 50.0512 105.446 51.4129C105.446 51.7306 105.668 52.1391 105.889 52.2752C106.155 52.4568 106.333 51.6852 106.333 50.3236V48.0542L100.351 48.145C97.0728 48.145 94.06 48.3265 93.617 48.4627Z" fill="white"/>
<path d="M215.801 54.0715C215.564 54.7288 215.184 55.7804 215.041 56.4377L214.709 57.6208L216.133 56.4377C217.843 54.9479 220.122 54.4221 220.929 55.3423C221.356 55.7804 221.499 57.577 221.404 61.1701C221.261 65.9902 221.166 66.3845 220.312 66.516C219.789 66.6036 219.172 66.8665 218.935 67.0856C218.65 67.3047 220.169 67.48 222.686 67.48C225.202 67.48 226.722 67.3047 226.484 67.0856C226.199 66.8665 225.582 66.6036 225.06 66.516C224.158 66.3845 224.11 65.9902 223.968 60.8196C223.873 55.5614 223.873 55.2546 224.822 54.9917C226.342 54.5535 228.526 55.167 228.858 56.131C229.381 57.577 230.045 57.0512 230.045 55.2108C230.045 53.5457 229.998 53.5019 228.811 53.8962C228.146 54.1592 225.44 54.3344 222.828 54.3344C219.03 54.3344 217.843 54.203 217.178 53.6333C216.371 52.9322 216.276 52.9761 215.801 54.0715Z" fill="white"/>
<path d="M116.524 54.1912C113.773 55.6344 112.465 57.7759 112.465 60.8484C112.465 66.8074 118.419 70.3455 123.742 67.5057C126.493 66.0159 127.801 63.921 127.801 60.8484C127.801 59.1259 127.531 57.9621 126.764 56.8448C125.546 54.936 122.343 53.167 120.133 53.167C119.231 53.167 117.607 53.6325 116.524 54.1912ZM122.93 55.0292C124.644 56.3792 125.23 58.3345 125.005 61.8261C124.824 64.6193 124.689 65.0849 123.381 66.2487C121.351 68.1109 118.915 68.1109 116.885 66.2487C115.622 65.0849 115.442 64.6193 115.261 61.9192C114.946 56.9844 116.84 54.1446 120.404 54.0981C121.17 54.0981 122.343 54.5171 122.93 55.0292Z" fill="white"/>
<path d="M200.661 58.7254C199.115 61.7739 197.756 64.6878 197.568 65.2258C197.428 65.7638 196.725 66.4811 196.022 66.8397C194.803 67.4673 194.897 67.4673 197.802 67.4673C200.333 67.4673 200.661 67.3777 199.818 66.9742C198.505 66.3914 198.505 66.3017 199.677 63.7464C200.568 61.7291 200.614 61.6842 202.723 61.6842C204.598 61.6842 204.926 61.8187 205.348 62.9395C206.426 65.6741 206.426 66.5707 205.254 67.019C204.364 67.3777 204.926 67.4673 207.644 67.4673C210.878 67.5121 211.065 67.4673 210.128 66.8397C209.472 66.3914 208.16 63.7464 206.473 59.6669C205.02 56.0805 203.708 53.1665 203.614 53.1665C203.473 53.1665 202.161 55.677 200.661 58.7254ZM203.567 58.322L204.317 60.3393H202.63C201.271 60.3393 201.036 60.2048 201.317 59.5324C201.505 59.1289 201.88 58.2323 202.114 57.515C202.348 56.8426 202.63 56.3046 202.723 56.3046C202.817 56.3046 203.192 57.2012 203.567 58.322Z" fill="white"/>
<path d="M250.562 54.1771C248.272 55.3948 246.402 58.3453 246.402 60.8275C246.402 63.3565 248.272 66.307 250.609 67.5247C254.815 69.6322 259.77 68.2272 261.733 64.34C262.294 63.216 262.761 61.6236 262.761 60.8275C262.761 60.0313 262.294 58.439 261.733 57.3149C259.77 53.4277 254.722 52.0227 250.562 54.1771ZM257.106 54.7391C259.583 56.0036 260.705 61.1085 259.302 64.5273C258.414 66.6349 256.872 67.6184 254.442 67.6184C251.964 67.6184 250.469 66.2602 249.674 63.3565C248.038 57.2681 252.385 52.2569 257.106 54.7391Z" fill="white"/>
<path d="M133.324 53.7421C134.285 54.2213 134.331 54.5568 134.331 59.4931C134.331 67.0652 135.384 68.5029 140.784 68.5029C142.614 68.5029 143.301 68.2633 144.49 67.1131L146.001 65.7233L146.138 60.164C146.321 54.7006 146.321 54.5568 147.511 53.8859C148.701 53.2149 148.655 53.2149 145.909 53.167C142.797 53.167 142.385 53.4066 144.216 54.1255L145.406 54.6047L145.223 59.9244C145.085 65.0523 145.04 65.292 143.804 66.3942C142.431 67.6403 140.555 67.8799 138.724 67.0173C137.168 66.2505 136.985 65.6274 136.711 59.7806L136.482 54.6047L137.717 54.1255C138.358 53.8859 138.907 53.5504 138.907 53.4066C138.907 53.2628 137.397 53.167 135.612 53.2149C132.867 53.2149 132.455 53.3108 133.324 53.7421Z" fill="white"/>
<path d="M153.39 53.6389C153.527 53.8748 154.031 54.1107 154.535 54.1107C155.681 54.1107 155.91 55.0073 155.91 59.7732C155.91 65.3886 155.635 66.6154 154.169 67.1817C153.115 67.6064 153.481 67.7007 156.368 67.7007C159.713 67.7007 159.759 67.7007 158.338 67.0401L156.826 66.3795V61.1889V56.0454L162.783 62.2742L168.694 68.5029L168.74 61.5664V54.6298L170.023 53.922C171.214 53.2142 171.168 53.2142 168.053 53.2142C165.807 53.167 165.074 53.3086 165.532 53.6389C165.899 53.8748 166.586 54.1107 167.044 54.1107C167.732 54.1107 167.823 54.677 167.823 59.1598V64.2089L162.737 58.6879L157.651 53.167H155.406C153.985 53.167 153.206 53.3557 153.39 53.6389Z" fill="white"/>
<path d="M174.834 53.5985C174.834 53.8291 175.306 54.1058 175.919 54.198C176.91 54.3364 176.958 54.5209 177.099 60.1011C177.241 65.5891 177.193 65.8659 176.155 66.6499C175.117 67.4339 175.212 67.48 180.025 67.48C184.272 67.48 185.31 67.3416 187.103 66.4193C189.887 65.0819 191.586 61.992 191.114 59.1788C190.737 56.919 188.896 54.6592 186.773 53.8291C185.027 53.0912 174.834 52.9067 174.834 53.5985ZM184.602 54.567C187.103 55.6738 188.519 57.7952 188.519 60.4701C188.519 62.9604 187.481 64.9435 185.688 65.8659C184.036 66.696 180.921 66.7882 180.119 66.0042C179.506 65.4047 179.27 54.5209 179.883 53.9674C180.45 53.3679 182.62 53.6446 184.602 54.567Z" fill="white"/>
<path d="M235.619 53.629C235.741 53.8602 236.146 54.0914 236.47 54.0914C236.915 54.0914 237.037 55.2014 237.037 60.1036V66.1157L235.943 66.6707C234.809 67.2256 234.809 67.2256 236.551 67.4106C237.483 67.5031 238.941 67.5031 239.792 67.4106L241.291 67.2256L240.197 66.6707L239.063 66.1157V60.3348C239.063 54.5539 239.063 54.5077 240.075 54.0914C241.696 53.3977 241.291 53.1665 238.212 53.1665C236.429 53.1665 235.457 53.3515 235.619 53.629Z" fill="white"/>
<path d="M265.83 53.4066C265.83 53.5504 266.358 53.8859 267.029 54.1255C268.228 54.5568 268.228 54.6047 268.228 60.5474V66.538L266.933 67.2569C265.638 67.9758 265.734 67.9758 269.187 67.9758C272.735 67.9278 272.735 67.9278 271.248 67.2569L269.666 66.5859V61.4101V56.2821L275.708 62.3686C279.016 65.7712 281.846 68.5029 281.941 68.5029C282.037 68.5029 282.133 65.3878 282.133 61.5538V54.6527L283.476 53.9338C284.723 53.2149 284.675 53.2149 281.462 53.167C278.345 53.167 277.53 53.7421 279.975 54.2213C280.839 54.3651 280.934 54.7964 281.078 59.0617C281.174 61.7935 281.03 63.7104 280.743 63.7104C280.503 63.7104 278.057 61.3142 275.372 58.4387L270.433 53.167H268.132C266.885 53.167 265.83 53.2628 265.83 53.4066Z" fill="white"/>
</svg>
