<svg width="339" height="65" viewBox="0 0 339 65" fill="none" xmlns="http://www.w3.org/2000/svg">
<path d="M31.7408 63.4817C14.2386 63.4817 0 49.2425 0 31.7419C0 14.2397 14.2386 0 31.7408 0C49.2436 0 63.4817 14.2397 63.4817 31.7419C63.4817 49.243 49.243 63.4817 31.7408 63.4817ZM47.1089 25.1017C47.1089 27.3865 45.2572 29.2382 42.9724 29.2382C41.6125 29.2382 40.4052 28.5816 39.6514 27.5677H5.25774C5.04498 28.9287 4.93403 30.3223 4.93403 31.7419C4.93403 46.5231 16.9586 58.5492 31.7403 58.5492C42.5653 58.5492 51.9121 52.0994 56.1397 42.8427H24.4762C23.7275 43.9074 22.4892 44.6047 21.0874 44.6047C18.8026 44.6047 16.9515 42.7536 16.9515 40.4683C16.9515 38.1845 18.8026 36.3318 21.0874 36.3318C22.4052 36.3318 23.5804 36.9482 24.3378 37.9096V37.9081H57.8325C58.3008 35.9267 58.5487 33.8633 58.5487 31.7424C58.5487 16.9601 46.5226 4.93403 31.7408 4.93403C20.155 4.93403 10.2625 12.3223 6.52611 22.6347H39.6514C40.4052 21.6224 41.613 20.9648 42.9724 20.9648C45.2572 20.9643 47.1089 22.8169 47.1089 25.1017Z" fill="#275CDC"/>
<path d="M100.098 15.8397H92.1459L87.1631 51.374H94.5619L96.4241 35.0665C96.6255 33.3552 96.8268 31.6439 96.9778 29.9326C97.0281 28.5737 97.0784 27.265 97.0784 25.9061C97.3804 27.0134 97.6321 28.0704 97.9844 29.1273C98.3871 30.6373 98.8904 32.0969 99.444 33.5565L105.887 51.374H110.718L116.607 34.6638C117.614 31.6942 118.57 28.6743 119.426 25.6544C119.426 26.8624 119.426 28.0704 119.476 29.2783C119.577 30.9393 119.778 32.6002 119.929 34.2612L122.043 51.374H129.543L124.509 15.8397H116.607L111.675 29.832C111.071 31.6439 110.416 33.4559 109.812 35.2678C109.309 36.9791 108.806 38.6401 108.302 40.3513C108.051 39.3447 107.799 38.3381 107.497 37.3314C106.843 35.1671 106.088 33.1035 105.383 30.9896L100.098 15.8397ZM144.215 28.624C140.591 28.6743 138.326 29.9326 137.068 30.7883C135.256 31.9962 132.135 34.7645 132.135 40.3513C132.135 42.0626 132.336 45.8878 135.809 48.9581C136.715 49.8137 137.621 50.3171 138.024 50.5687C139.081 51.1224 141.396 52.1793 144.617 52.1793C149.449 52.1793 153.828 49.7634 155.841 45.2839C156.194 44.5289 156.898 42.7169 156.898 40.4017C156.898 39.2944 156.697 36.1235 154.633 33.4055C153.274 31.5936 150.053 28.5737 144.215 28.624ZM144.466 34.8652C147.587 34.8148 149.6 37.4824 149.6 40.4017C149.6 43.3209 147.587 45.9382 144.517 45.9382C142.453 45.9382 140.591 44.7302 139.785 42.8176C139.332 41.7606 139.332 40.905 139.332 40.5023C139.332 38.4387 140.238 36.5261 142.101 35.5195C143.158 34.9658 143.963 34.9155 144.466 34.8652ZM161.253 13.8264V51.374H168.501V49.0084C169.004 49.5621 169.256 49.8641 169.86 50.3171C171.974 51.9277 174.239 51.978 175.245 51.978C176.856 51.978 180.681 51.7263 183.601 48.2031C186.167 45.1329 186.318 41.4586 186.318 40.15C186.318 35.4691 184.104 32.6506 182.745 31.4426C180.128 29.0267 177.158 28.8253 175.849 28.8253C172.679 28.8253 170.665 30.134 169.709 30.9393L168.35 32.2982V13.8264H161.253ZM177.057 36.3751C177.712 36.9791 178.567 38.3381 178.567 40.5023C178.567 43.5726 176.655 46.2402 173.434 46.2402C171.118 46.2402 169.256 44.9819 168.451 42.8176C168.048 41.811 168.048 40.9553 168.048 40.5527C168.048 38.3884 168.904 36.4254 170.917 35.4188C171.269 35.2175 172.226 34.8652 173.383 34.8652C174.038 34.8652 175.749 34.9658 177.057 36.3751ZM191.302 24.1445C192.409 25.2518 193.718 25.4028 194.322 25.4028C196.637 25.4028 198.6 23.5405 198.6 21.1749C198.6 18.8596 196.687 16.8967 194.322 16.8463C192.006 16.8463 190.043 18.759 190.043 21.1246C190.043 22.2318 190.496 23.3895 191.302 24.1445ZM190.698 29.4796V51.374H197.895V29.4796H190.698ZM203.281 13.8264V51.374H210.478V13.8264H203.281ZM237.808 41.9116C237.859 39.697 237.808 37.9354 237.406 36.3248C236.852 34.4625 235.191 30.4863 229.957 29.0267C229.353 28.8757 228.145 28.5737 226.534 28.5737C223.665 28.5737 221.551 29.5803 220.645 30.0836C217.927 31.6439 216.82 33.6572 216.317 34.7645C215.109 37.2308 215.058 39.2944 215.058 40.4017C215.058 43.7236 216.166 46.0892 216.87 47.1461C218.078 48.9581 221.149 52.0787 226.786 52.0787C230.158 52.0787 233.379 50.921 235.745 48.4548C236.55 47.6495 236.902 46.9951 237.204 46.5925L231.416 43.8242C231.014 44.4786 229.705 46.6428 226.937 46.6428C225.125 46.6428 223.464 45.7369 222.608 44.1262C222.206 43.4216 222.055 42.6666 221.904 41.9116H237.808ZM221.904 37.7341C222.155 36.8281 222.306 36.3751 222.457 35.9725C223.564 33.8082 225.427 33.5062 226.333 33.5062C227.339 33.5062 228.094 33.8082 228.447 34.0095C230.309 34.9658 230.812 37.1301 230.913 37.7341H221.904ZM269.24 17.4C268.334 16.9973 267.378 16.5947 266.421 16.2424C263.15 15.1351 259.928 14.9841 258.771 14.9841C257.764 14.9841 254.895 15.0847 252.026 16.192C249.761 17.0477 247.748 18.5576 246.138 20.3696C244.728 21.8795 244.024 23.1378 243.621 23.8928C242.161 26.7617 241.457 30.436 241.457 33.6069C241.457 41.66 245.534 46.3912 247.849 48.3541C252.077 51.978 257.261 52.129 259.023 52.129C263.955 52.129 267.579 50.4177 269.19 49.7634L269.24 41.4586C268.636 41.9116 268.032 42.3646 267.478 42.7673C265.717 43.9752 263.452 44.6799 262.546 44.8812C261.287 45.1329 260.381 45.1329 259.878 45.1329C253.184 45.1329 250.768 40.603 249.963 38.2374C249.308 36.2745 249.258 34.6135 249.258 33.8082C249.258 27.718 252.58 24.5471 254.694 23.3392C256.758 22.1815 258.872 22.1312 259.727 22.1312C264.71 22.1312 267.982 25.0504 269.24 26.1577V17.4ZM284.692 28.624C281.068 28.6743 278.803 29.9326 277.545 30.7883C275.733 31.9962 272.612 34.7645 272.612 40.3513C272.612 42.0626 272.813 45.8878 276.286 48.9581C277.192 49.8137 278.098 50.3171 278.501 50.5687C279.558 51.1224 281.873 52.1793 285.094 52.1793C289.926 52.1793 294.305 49.7634 296.318 45.2839C296.671 44.5289 297.375 42.7169 297.375 40.4017C297.375 39.2944 297.174 36.1235 295.111 33.4055C293.752 31.5936 290.53 28.5737 284.692 28.624ZM284.943 34.8652C288.064 34.8148 290.077 37.4824 290.077 40.4017C290.077 43.3209 288.064 45.9382 284.994 45.9382C282.93 45.9382 281.068 44.7302 280.263 42.8176C279.81 41.7606 279.81 40.905 279.81 40.5023C279.81 38.4387 280.716 36.5261 282.578 35.5195C283.635 34.9658 284.44 34.9155 284.943 34.8652ZM302.435 24.1445C303.542 25.2518 304.851 25.4028 305.455 25.4028C307.77 25.4028 309.733 23.5405 309.733 21.1749C309.733 18.8596 307.82 16.8967 305.455 16.8463C303.14 16.8463 301.177 18.759 301.177 21.1246C301.177 22.2318 301.63 23.3895 302.435 24.1445ZM301.831 29.4796V51.374H309.028V29.4796H301.831ZM336.359 51.374V37.3314C336.359 35.3181 336.258 33.4055 335.1 31.6439C334.345 30.5366 332.382 28.8253 328.96 28.8253C324.933 28.775 322.568 31.3419 321.561 32.3486V29.4796H314.414V51.374H321.46V40.452C321.46 38.6904 321.611 36.9288 323.222 35.7208C324.229 34.9155 325.336 34.8652 325.789 34.8652C326.192 34.8652 327.148 34.8652 328.054 35.6201C329.161 36.6268 329.212 38.0361 329.212 39.3447V51.374H336.359Z" fill="white"/>
</svg>
