<svg width="337" height="63" viewBox="0 0 337 63" fill="none" xmlns="http://www.w3.org/2000/svg">
<path d="M0.572127 1.02483C-0.20978 1.64345 -0.190232 2.63325 0.630769 3.35497L1.23675 3.89111H30.8514H60.4661L61.033 3.45808C61.7758 2.90132 61.854 1.60221 61.1699 0.983585C60.7398 0.612411 59.782 0.612411 30.9101 0.612411C1.15856 0.612411 1.09991 0.612411 0.572127 1.02483Z" fill="#275CDC"/>
<path d="M2.25739 10.0289C1.96376 10.1843 1.74844 10.4756 1.70929 10.7863C1.61141 11.5436 2.25739 11.8738 4.82172 12.4175C6.0158 12.6505 7.2686 13.0195 7.60138 13.2137C7.97331 13.4273 10.8313 16.9422 14.8442 22.1077C18.4851 26.8072 22.6938 32.2252 24.201 34.1477C27.1373 37.9151 27.2743 38.2258 26.55 39.3909C26.0215 40.226 10.8117 57.8781 10.2244 58.3442C9.22611 59.1209 7.42521 59.7424 4.74342 60.2861C1.70929 60.8687 1.12203 61.1988 1.35693 62.0921C1.43523 62.3834 1.68971 62.6747 1.92461 62.7524C2.15951 62.8495 7.69926 62.9077 14.2178 62.8883C26.8828 62.8689 26.7262 62.8883 26.7262 61.9367C26.7262 61.3153 26.1977 61.1017 23.79 60.6551C20.1294 60.0142 19.0724 59.5676 18.5438 58.4607C17.937 57.2179 19.3464 54.4797 24.9253 45.9935C28.2922 40.8668 27.9986 41.2358 28.7425 41.2358C29.1731 41.2358 29.545 41.3911 29.7995 41.663C31.0523 43.0418 41.7207 57.5868 41.9752 58.2665C42.2492 59.0239 42.2492 59.1015 41.9165 59.4511C41.4858 59.9366 41.3096 59.9754 38.2168 60.3638C35.1631 60.7328 34.5562 60.9852 34.5562 61.8979C34.5562 62.2475 34.6737 62.6358 34.8107 62.7329C34.9478 62.8495 40.0177 62.9077 47.6911 62.9077C61.2371 62.8883 60.9826 62.9077 60.9826 61.9173C60.9826 61.0629 60.1409 60.6939 57.1654 60.2667C55.2862 59.9948 54.1117 59.5676 52.8981 58.7326C52.2325 58.2859 49.7661 55.2759 43.4238 47.1586C38.7062 41.1192 34.7324 35.876 34.5758 35.5071C34.0669 34.2254 34.243 33.9341 39.7045 27.2344C46.7319 18.5734 48.1609 16.8839 49.8835 15.2721C51.7236 13.5438 53.1526 12.8059 56.0888 12.0874C58.3204 11.5436 58.9076 11.1941 58.7902 10.5727C58.751 10.3979 58.3791 10.1454 57.968 9.99008C57.3025 9.73763 56.5586 9.73763 52.3891 9.93182C48.7482 10.1066 46.5753 10.126 43.5804 9.95124C38.5104 9.67937 36.7682 9.75705 36.3963 10.2619C35.6133 11.3106 36.3376 11.8155 39.313 12.301C41.6816 12.6699 42.5624 13.0001 43.0518 13.6992C43.4629 14.2623 43.4433 14.7478 42.9931 15.7188C42.3471 17.117 33.7732 30.6328 33.1664 31.1766C32.8532 31.4873 32.4226 31.7203 32.2072 31.7203C31.6787 31.7203 30.5629 30.7105 29.5842 29.3123C29.1144 28.652 26.8241 25.4284 24.4947 22.1466C20.1686 16.0683 19.6792 15.2721 19.6792 14.2817C19.6792 13.136 20.658 12.7282 23.8878 12.4952C25.1798 12.4175 26.4717 12.2427 26.7458 12.1456C27.8224 11.7378 27.4896 10.3202 26.2173 9.89298C25.8453 9.77646 23.7312 9.77646 19.8749 9.93182C15.8425 10.1066 12.9845 10.1066 10.381 9.97066C5.25237 9.71821 2.84464 9.73763 2.25739 10.0289Z" fill="#275CDC"/>
<path d="M80.1971 7.90677C79.2771 10.0484 78.6734 12.0492 78.8747 12.3874C79.0184 12.5846 79.6221 12.1619 80.5708 11.2884C82.5831 9.31576 84.3367 8.80852 86.3491 9.5412L87.0965 9.823L87.0103 17.6852C86.9528 22.8985 86.809 25.6883 86.6078 25.8855C86.4353 26.0546 85.6879 26.3364 84.9404 26.5337C82.3531 27.1818 83.3018 27.4354 88.4476 27.4636C92.1848 27.4918 93.3922 27.4073 93.3922 27.1255C93.3922 26.7309 92.7598 26.4491 91.8398 26.4491C91.4949 26.4491 90.9199 26.2519 90.575 25.9983C89.9425 25.5756 89.9425 25.5192 89.9425 17.7416C89.9425 11.0911 90 9.85118 90.3737 9.5412C90.6899 9.28758 91.3511 9.23122 92.616 9.37212C95.6058 9.6821 96.2095 9.99208 96.5545 11.2602C96.9569 12.6974 97.4744 12.5565 97.7906 10.922C98.0493 9.56938 97.7906 6.72321 97.4169 6.72321C97.3019 6.72321 96.9857 7.03319 96.7269 7.42771L96.267 8.13221H89.2238C83.2443 8.13221 82.1519 8.07585 81.7782 7.68133C81.5195 7.45589 81.3182 7.11773 81.3182 6.97683C81.3182 6.30051 80.657 6.83593 80.1971 7.90677Z" fill="white"/>
<path d="M162.002 7.96665C162.002 8.22065 162.384 8.41821 163.04 8.5311C164.761 8.84156 165.007 8.98267 165.143 9.60358C165.444 10.7607 165.171 25.5496 164.843 25.8883C164.679 26.0576 164.023 26.2834 163.34 26.3963C162.576 26.5374 162.139 26.7632 162.139 27.0172C162.139 27.3559 163.231 27.4405 169.05 27.4688C174.185 27.4688 176.016 27.4123 176.207 27.1583C176.562 26.7067 176.917 23.066 176.616 23.066C176.48 23.066 175.852 23.6304 175.223 24.3078C173.857 25.8036 172.601 26.2269 169.978 26.114L168.148 26.0294L168.066 17.7318C168.039 12.2565 168.094 9.32135 168.285 9.09557C168.449 8.898 169.132 8.644 169.787 8.5311C170.579 8.41821 171.017 8.22065 171.017 7.93842C171.017 7.59975 170.252 7.5433 166.509 7.5433C162.74 7.5433 162.002 7.59975 162.002 7.96665Z" fill="white"/>
<path d="M264.516 7.74844C264.122 8.12892 264.996 8.71427 265.982 8.71427C268.067 8.71427 268.124 8.86061 268.011 14.7434C267.954 17.6409 267.842 21.5628 267.729 23.4945L267.56 27.0066L266.179 27.2115C265.052 27.3578 263.84 27.9431 264.347 28.0602C264.939 28.2358 273.393 28.1773 273.506 28.0017C273.703 27.6505 273.083 27.3871 271.561 27.1822C269.392 26.9188 269.363 26.7724 269.448 18.5189L269.533 11.5825L276.831 20.3921C281.509 26.0407 284.327 29.2017 284.665 29.2017C285.144 29.2017 285.173 28.7626 285.173 19.7482C285.173 9.24109 285.229 8.97768 286.891 8.71427C287.427 8.5972 288.019 8.42159 288.216 8.30452C289.061 7.74844 287.962 7.54356 284.299 7.54356C281.143 7.54356 280.382 7.63137 280.382 7.95331C280.382 8.39233 281.227 8.71427 282.524 8.71427C282.974 8.71427 283.51 8.86061 283.707 9.06548C284.102 9.47523 284.214 23.9335 283.82 23.9335C283.679 23.9335 280.579 20.2457 276.888 15.7385L270.209 7.54356H267.447C265.925 7.54356 264.601 7.63137 264.516 7.74844Z" fill="white"/>
<path d="M185.891 13.6544C184.588 14.3759 183.909 14.982 183.257 15.9921C182.117 17.7815 181.682 20.0616 182.062 21.9953C182.442 23.9001 182.741 24.4485 184.072 25.9493C187.548 29.7589 194.256 28.8642 196.591 24.2753C198.546 20.4656 197.324 15.8767 193.821 13.6832C192.762 13.0194 192.192 12.8751 190.101 12.7885C187.765 12.6731 187.575 12.702 185.891 13.6544ZM192.11 14.2027C193.359 15.0109 193.93 15.7901 194.473 17.4641C195.125 19.5132 194.907 23.1497 194.011 24.8525C192.463 27.883 188.173 28.3736 186.081 25.7472C185.131 24.5351 184.805 23.1786 184.805 20.3502C184.805 18.3299 184.914 17.7815 185.565 16.4539C186.081 15.3861 186.652 14.6934 187.412 14.2605C188.824 13.3946 190.834 13.3658 192.11 14.2027Z" fill="white"/>
<path d="M231.072 13.304C227.94 14.581 226.139 17.2221 226.111 20.6179C226.111 24.391 228.411 27.3514 231.986 28.135C233.898 28.5414 236.974 28.3092 239.025 27.6126L240.493 27.0902L240.632 24.7683C240.798 22.1271 240.964 21.7208 241.906 21.7208C242.322 21.7208 242.571 21.5467 242.571 21.2855C242.571 20.9081 241.99 20.8501 238.969 20.8501C235.949 20.8501 235.367 20.9081 235.367 21.2855C235.367 21.5757 235.644 21.7208 236.281 21.7208C236.78 21.7208 237.473 21.924 237.805 22.1852C238.332 22.5625 238.415 22.8818 238.415 24.42C238.415 26.5677 238.249 26.858 237.002 27.2353C234.868 27.8738 232.79 27.3804 231.155 25.8422C229.575 24.362 228.993 22.9108 228.993 20.4147C228.993 17.9187 229.575 16.4675 231.155 14.9873C232.512 13.7103 234.147 13.1879 235.893 13.4491C236.974 13.6232 237.39 13.8844 238.609 15.2485C239.8 16.5546 240.105 16.7578 240.244 16.3514C240.355 16.0612 240.327 15.3646 240.188 14.7842C239.967 13.8554 239.773 13.6813 238.553 13.2459C236.614 12.5493 232.873 12.5784 231.072 13.304Z" fill="white"/>
<path d="M297.984 13.0926C294.492 14.4813 292.847 16.7957 292.818 20.3831C292.79 26.1402 297.984 29.6408 303.928 27.8761C306.179 27.2107 308.286 25.0409 308.949 22.7264C310.133 18.6762 308.026 14.4523 304.217 13.1505C302.716 12.6297 299.225 12.6008 297.984 13.0926ZM303.64 14.2498C305.718 15.6385 306.641 17.9819 306.439 21.3089C306.179 25.2434 304.246 27.471 301.1 27.471C297.638 27.471 295.762 25.0987 295.733 20.6724C295.704 17.2297 297.032 14.6259 299.282 13.7869C300.408 13.353 302.688 13.5844 303.64 14.2498Z" fill="white"/>
<path d="M102.515 13.8761C102.515 14.0104 102.948 14.2252 103.468 14.3595L104.392 14.5743V20.482V26.3628L103.324 26.6045C102.717 26.7388 102.227 27.0073 102.227 27.1684C102.227 27.4101 103.208 27.4907 105.663 27.4638C109.764 27.437 110.486 27.1684 107.915 26.6582L107.107 26.4702L107.193 23.7312L107.28 20.9922H111.323H115.366L115.452 23.5432C115.539 26.3091 115.308 26.7656 113.864 26.7656C113.489 26.7656 113.2 26.9268 113.2 27.1416C113.2 27.4101 113.951 27.4907 116.752 27.4638C118.889 27.437 120.275 27.3295 120.275 27.1684C120.275 27.0073 119.957 26.8462 119.553 26.8193C118.138 26.6314 118.109 26.524 118.109 20.4014C118.109 16.0512 118.196 14.628 118.485 14.5743C118.658 14.4937 119.178 14.3863 119.64 14.3058C120.073 14.1983 120.419 14.0104 120.419 13.8761C120.419 13.527 113.864 13.527 113.662 13.8492C113.46 14.1178 114.153 14.4132 114.962 14.4132C115.452 14.4132 115.51 14.628 115.51 17.0985V19.7838H111.323H107.107L107.193 17.179L107.28 14.5743L108.233 14.3595C110.081 13.903 109.157 13.6076 105.836 13.6076C103.873 13.6076 102.515 13.715 102.515 13.8761Z" fill="white"/>
<path d="M126.055 13.8297C126.055 13.9645 126.494 14.1801 127.02 14.3149L127.955 14.5305L128.042 20.2988C128.072 23.5873 127.984 26.1749 127.838 26.3097C127.692 26.4445 127.137 26.6332 126.581 26.741C126.055 26.8488 125.617 27.0375 125.617 27.1722C125.617 27.334 128.218 27.4418 132.25 27.4418L138.883 27.4688L139.205 26.148C139.76 23.7221 139.438 23.0212 138.532 24.7463C137.773 26.2288 136.809 26.6332 134.062 26.6332C130.818 26.6332 130.731 26.5523 130.731 23.2369V20.5684H133.185C135.494 20.5684 135.698 20.6223 136.253 21.2692C136.604 21.6735 136.867 22.1587 136.867 22.3474C136.867 22.563 136.984 22.7247 137.13 22.7247C137.451 22.7247 137.714 18.385 137.422 18.0346C137.305 17.9268 136.984 18.1964 136.75 18.6546C136.166 19.6519 135.581 19.8136 132.922 19.7058L130.877 19.625V17.0643V14.5036L133.361 14.4227C136.224 14.3419 137.627 14.827 138.299 16.0669C138.825 17.1451 139.263 16.633 139.146 15.0157L139.058 13.6949L132.572 13.6141C128.393 13.5871 126.055 13.641 126.055 13.8297Z" fill="white"/>
<path d="M202.721 13.8853C202.721 14.0243 203.167 14.2188 203.698 14.3299C205.373 14.6356 205.512 15.1358 205.485 19.9986C205.485 22.3606 205.373 24.8615 205.289 25.5562C205.122 26.6677 204.982 26.8344 204.117 27.1123C202.358 27.6958 202.944 27.9459 205.987 27.9181C209.002 27.9181 210.147 27.5291 208.165 27.1957C207.606 27.1123 207.02 26.89 206.825 26.6955C206.406 26.2787 206.155 16.6641 206.573 16.6641C206.713 16.6641 209.393 19.2762 212.492 22.4995C215.591 25.7229 218.243 28.335 218.382 28.335C218.522 28.335 218.633 25.3617 218.633 21.6937C218.633 14.6078 218.606 14.6912 220.113 14.3299C221.76 13.9409 220.783 13.6075 217.936 13.6075C214.474 13.6075 213.915 14.0798 216.819 14.4967C217.349 14.58 217.377 14.8301 217.461 19.3595L217.517 24.1668L212.296 18.8871L207.048 13.6075H204.898C203.698 13.6075 202.721 13.7186 202.721 13.8853Z" fill="white"/>
<path d="M314.546 14.5557C315.029 15.0577 316.959 18.3487 318.833 21.8628C320.678 25.3768 322.324 28.2774 322.494 28.3331C322.636 28.3889 323.431 27.1618 324.226 25.6278C324.992 24.066 325.702 22.811 325.787 22.811C325.844 22.811 326.554 24.066 327.377 25.6C328.172 27.1618 328.967 28.361 329.109 28.3331C329.251 28.2774 330.727 25.2374 332.373 21.5839C334.843 16.1454 335.552 14.8346 336.205 14.472C336.631 14.221 337 13.9421 337 13.8027C337 13.5238 332.799 13.5517 332.629 13.8585C332.543 13.9979 332.856 14.2489 333.31 14.4163C333.792 14.5557 334.161 14.7509 334.161 14.8067C334.161 14.974 329.903 24.8469 329.79 24.9864C329.705 25.0422 329.08 24.0103 328.342 22.6994L327.036 20.3288L328.484 17.512C329.648 15.1972 330.074 14.6394 330.755 14.3884C332.231 13.9142 331.692 13.6075 329.336 13.6075C327.036 13.6075 326.412 13.9421 327.774 14.4441C328.456 14.6951 328.484 14.7509 328.115 15.6155C327.888 16.1175 327.405 17.1494 327.008 17.9303L326.27 19.2969L325.106 17.01L323.942 14.723L324.652 14.4441C326.1 13.9142 325.39 13.6075 322.665 13.6075C319.911 13.6075 319.344 13.8585 320.763 14.4163C321.359 14.6673 321.955 15.5318 323.346 18.1534L325.191 21.556L324.226 23.313C323.715 24.2891 323.176 24.9585 323.062 24.8469C322.722 24.4844 317.697 15.0856 317.697 14.7788C317.697 14.6394 318.009 14.4163 318.407 14.3326C319.854 13.97 318.747 13.6075 316.193 13.6075H313.609L314.546 14.5557Z" fill="white"/>
<path d="M79.324 41.676C78.8359 41.8298 78.9486 41.9837 79.8871 42.3298L81.0884 42.7528L81.0133 49.7907L80.9007 56.8286L79.8871 56.944C79.2864 57.0209 78.8359 57.2516 78.8359 57.4439C78.8359 57.6362 80.5253 57.79 82.59 57.79C84.8425 57.79 86.3441 57.6362 86.3441 57.4055C86.3441 57.1747 86.0062 57.0209 85.5557 57.0209C83.6411 57.0209 83.3408 56.444 83.3408 52.9828V49.7138H85.3305C87.3952 49.7138 88.2211 50.1753 88.2211 51.329C88.2211 51.7136 88.4088 52.0213 88.5965 52.0213C88.8218 52.0213 88.9719 50.7906 88.9719 49.1369C88.9719 46.291 88.5214 45.3295 88.071 47.214C87.7706 48.4447 86.6444 49.0215 84.9175 48.8677L83.5285 48.7523V45.6757V42.599L85.7434 42.4836C87.9959 42.3683 89.3473 43.022 89.3473 44.1758C89.3473 44.445 89.535 44.7911 89.7227 44.9065C89.948 45.0603 90.0981 44.4065 90.0981 43.2528V41.3299L85.0302 41.4068C82.2521 41.4068 79.6994 41.5606 79.324 41.676Z" fill="white"/>
<path d="M182.853 46.4284C182.652 46.9853 182.33 47.8764 182.209 48.4334L181.928 49.4359L183.135 48.4334C184.583 47.171 186.514 46.7254 187.198 47.5051C187.56 47.8764 187.681 49.3987 187.6 52.4434C187.48 56.5276 187.399 56.8618 186.675 56.9732C186.233 57.0474 185.71 57.2702 185.508 57.4559C185.267 57.6415 186.554 57.79 188.687 57.79C190.819 57.79 192.106 57.6415 191.905 57.4559C191.664 57.2702 191.141 57.0474 190.698 56.9732C189.934 56.8618 189.894 56.5276 189.773 52.1463C189.692 47.6908 189.692 47.4309 190.497 47.2081C191.785 46.8368 193.635 47.3566 193.917 48.1735C194.359 49.3987 194.923 48.9532 194.923 47.3937C194.923 45.9828 194.882 45.9457 193.877 46.2799C193.313 46.5026 191.02 46.6512 188.807 46.6512C185.589 46.6512 184.583 46.5398 184.02 46.0571C183.336 45.463 183.255 45.5001 182.853 46.4284Z" fill="white"/>
<path d="M98.7347 46.5292C96.4033 47.7521 95.2949 49.5667 95.2949 52.1702C95.2949 57.2195 100.34 60.2175 104.85 57.8112C107.181 56.5489 108.29 54.7738 108.29 52.1702C108.29 50.7107 108.06 49.7245 107.411 48.7777C106.379 47.1604 103.665 45.6614 101.792 45.6614C101.028 45.6614 99.652 46.0559 98.7347 46.5292ZM104.162 47.2393C105.614 48.3833 106.111 50.0401 105.92 52.9986C105.767 55.3655 105.653 55.76 104.544 56.7461C102.824 58.324 100.76 58.324 99.0405 56.7461C97.9703 55.76 97.8175 55.3655 97.6646 53.0775C97.397 48.8961 99.0023 46.4898 102.022 46.4503C102.671 46.4503 103.665 46.8054 104.162 47.2393Z" fill="white"/>
<path d="M170.026 50.3719C168.715 52.955 167.564 55.4241 167.405 55.88C167.286 56.3358 166.69 56.9436 166.094 57.2475C165.062 57.7793 165.141 57.7793 167.603 57.7793C169.748 57.7793 170.026 57.7033 169.311 57.3615C168.199 56.8676 168.199 56.7916 169.192 54.6264C169.946 52.917 169.986 52.879 171.773 52.879C173.361 52.879 173.639 52.993 173.997 53.9426C174.91 56.2598 174.91 57.0196 173.917 57.3994C173.163 57.7033 173.639 57.7793 175.943 57.7793C178.683 57.8173 178.841 57.7793 178.047 57.2475C177.491 56.8676 176.379 54.6264 174.95 51.1696C173.719 48.1306 172.607 45.6615 172.527 45.6615C172.408 45.6615 171.296 47.7888 170.026 50.3719ZM172.488 50.03L173.123 51.7394H171.694C170.542 51.7394 170.343 51.6254 170.582 51.0556C170.74 50.7138 171.058 49.954 171.257 49.3462C171.455 48.7764 171.694 48.3206 171.773 48.3206C171.852 48.3206 172.17 49.0803 172.488 50.03Z" fill="white"/>
<path d="M212.308 46.5173C210.367 47.5491 208.783 50.0492 208.783 52.1525C208.783 54.2954 210.367 56.7956 212.348 57.8274C215.912 59.6132 220.11 58.4226 221.773 55.1288C222.248 54.1764 222.644 52.8271 222.644 52.1525C222.644 51.4778 222.248 50.1286 221.773 49.1761C220.11 45.8823 215.833 44.6918 212.308 46.5173ZM217.852 46.9935C219.951 48.065 220.902 52.3906 219.714 55.2876C218.961 57.0734 217.654 57.9067 215.595 57.9067C213.496 57.9067 212.229 56.7559 211.555 54.2954C210.169 49.1365 213.852 44.8902 217.852 46.9935Z" fill="white"/>
<path d="M112.969 46.1487C113.783 46.5548 113.822 46.8391 113.822 51.0218C113.822 57.438 114.714 58.6562 119.289 58.6562C120.841 58.6562 121.422 58.4532 122.43 57.4786L123.71 56.3009L123.826 51.5903C123.981 46.9609 123.981 46.8391 124.99 46.2705C125.998 45.702 125.959 45.702 123.632 45.6614C120.996 45.6614 120.647 45.8644 122.198 46.4736L123.206 46.8797L123.051 51.3873C122.934 55.7324 122.896 55.9355 121.849 56.8695C120.685 57.9253 119.096 58.1283 117.545 57.3974C116.226 56.7476 116.071 56.2197 115.838 51.2654L115.644 46.8797L116.691 46.4736C117.234 46.2705 117.7 45.9863 117.7 45.8644C117.7 45.7426 116.42 45.6614 114.908 45.702C112.581 45.702 112.232 45.7832 112.969 46.1487Z" fill="white"/>
<path d="M129.972 46.0612C130.088 46.2612 130.515 46.4611 130.942 46.4611C131.913 46.4611 132.107 47.2208 132.107 51.2592C132.107 56.0173 131.874 57.0569 130.632 57.5367C129.739 57.8966 130.049 57.9765 132.495 57.9765C135.33 57.9765 135.368 57.9765 134.165 57.4167L132.884 56.857V52.4587V48.1004L137.931 53.3783L142.939 58.6562L142.978 52.7786V46.9009L144.065 46.3011C145.075 45.7014 145.036 45.7014 142.396 45.7014C140.493 45.6614 139.872 45.7813 140.26 46.0612C140.571 46.2612 141.153 46.4611 141.542 46.4611C142.124 46.4611 142.202 46.9409 142.202 50.7394V55.0177L137.892 50.3395L133.582 45.6614H131.68C130.476 45.6614 129.816 45.8213 129.972 46.0612Z" fill="white"/>
<path d="M148.141 46.0276C148.141 46.223 148.54 46.4574 149.06 46.5356C149.9 46.6528 149.94 46.8091 150.06 51.5376C150.18 56.1878 150.14 56.4223 149.26 57.0866C148.381 57.751 148.461 57.79 152.539 57.79C156.138 57.79 157.017 57.6728 158.537 56.8912C160.896 55.758 162.335 53.1398 161.935 50.756C161.616 48.8412 160.056 46.9264 158.257 46.223C156.777 45.5977 148.141 45.4414 148.141 46.0276ZM156.417 46.8482C158.537 47.7861 159.736 49.5837 159.736 51.8502C159.736 53.9604 158.857 55.6407 157.337 56.4223C155.938 57.1257 153.299 57.2039 152.619 56.5395C152.099 56.0315 151.899 46.8091 152.419 46.3402C152.899 45.8322 154.738 46.0666 156.417 46.8482Z" fill="white"/>
<path d="M199.646 46.0534C199.749 46.2493 200.092 46.4453 200.367 46.4453C200.745 46.4453 200.848 47.3858 200.848 51.5396V56.634L199.921 57.1043C198.96 57.5745 198.96 57.5745 200.436 57.7313C201.225 57.8096 202.461 57.8096 203.182 57.7313L204.452 57.5745L203.525 57.1043L202.564 56.634V51.7356C202.564 46.8371 202.564 46.7979 203.422 46.4453C204.795 45.8574 204.452 45.6615 201.843 45.6615C200.333 45.6615 199.509 45.8183 199.646 46.0534Z" fill="white"/>
<path d="M225.244 45.8644C225.244 45.9863 225.691 46.2705 226.26 46.4736C227.276 46.8391 227.276 46.8797 227.276 51.9152V56.9913L226.179 57.6004C225.082 58.2096 225.163 58.2096 228.088 58.2096C231.095 58.1689 231.095 58.1689 229.835 57.6004L228.495 57.0319V52.6461V48.301L233.614 53.4583C236.417 56.3415 238.814 58.6562 238.896 58.6562C238.977 58.6562 239.058 56.0167 239.058 52.768V46.9203L240.196 46.3111C241.252 45.702 241.212 45.702 238.489 45.6614C235.848 45.6614 235.158 46.1487 237.23 46.5548C237.961 46.6766 238.042 47.0421 238.164 50.6563C238.246 52.971 238.124 54.5954 237.88 54.5954C237.677 54.5954 235.605 52.5649 233.329 50.1284L229.145 45.6614H227.194C226.138 45.6614 225.244 45.7426 225.244 45.8644Z" fill="white"/>
</svg>
