<svg width="177" height="35" viewBox="0 0 177 35" fill="none" xmlns="http://www.w3.org/2000/svg">
<path d="M16.5726 33.8608C7.43433 33.8608 0 26.4263 0 17.2887C0 8.15043 7.43433 0.715576 16.5726 0.715576C25.7112 0.715576 33.1453 8.15043 33.1453 17.2887C33.1453 26.4265 25.7109 33.8608 16.5726 33.8608ZM24.5967 13.8218C24.5967 15.0147 23.6299 15.9815 22.4369 15.9815C21.7268 15.9815 21.0965 15.6387 20.7029 15.1093H2.74519C2.6341 15.8199 2.57617 16.5476 2.57617 17.2887C2.57617 25.0064 8.85449 31.2855 16.5724 31.2855C22.2243 31.2855 27.1045 27.9179 29.3118 23.0847H12.7796C12.3887 23.6407 11.7421 24.0047 11.0102 24.0047C9.8173 24.0047 8.85077 23.0382 8.85077 21.845C8.85077 20.6526 9.8173 19.6853 11.0102 19.6853C11.6983 19.6853 12.3119 20.0071 12.7073 20.5091V20.5083H30.1957C30.4402 19.4737 30.5696 18.3964 30.5696 17.289C30.5696 9.57086 24.2905 3.29175 16.5726 3.29175C10.5234 3.29175 5.3583 7.14936 3.40743 12.5337H20.7029C21.0965 12.0051 21.7271 11.6618 22.4369 11.6618C23.6299 11.6615 24.5967 12.6288 24.5967 13.8218Z" fill="white"/>
<path d="M52.2633 8.4467H48.1111L45.5094 27H49.3725L50.3449 18.4855C50.45 17.592 50.5551 16.6985 50.6339 15.8049C50.6602 15.0954 50.6865 14.4121 50.6865 13.7026C50.8442 14.2807 50.9756 14.8326 51.1595 15.3845C51.3698 16.1729 51.6326 16.935 51.9216 17.6971L55.2854 27H57.8082L60.8829 18.2752C61.4085 16.7247 61.9078 15.148 62.3546 13.5712C62.3546 14.2019 62.3546 14.8326 62.3809 15.4633C62.4334 16.3305 62.5385 17.1978 62.6174 18.065L63.7211 27H67.6368L65.0088 8.4467H60.8829L58.3075 15.7524C57.9922 16.6985 57.6506 17.6445 57.3352 18.5906C57.0724 19.4841 56.8096 20.3513 56.5468 21.2448C56.4154 20.7192 56.284 20.1936 56.1264 19.668C55.7847 18.538 55.3905 17.4606 55.0226 16.3568L52.2633 8.4467ZM75.2974 15.1217C73.4053 15.148 72.2227 15.8049 71.5657 16.2517C70.6197 16.8824 68.9904 18.3278 68.9904 21.2448C68.9904 22.1383 69.0955 24.1355 70.9088 25.7386C71.3818 26.1853 71.8548 26.4481 72.0651 26.5795C72.6169 26.8686 73.8258 27.4205 75.5077 27.4205C78.0305 27.4205 80.3168 26.1591 81.368 23.8202C81.5519 23.426 81.9198 22.4799 81.9198 21.2711C81.9198 20.6929 81.8147 19.0373 80.7373 17.6182C80.0277 16.6722 78.3458 15.0954 75.2974 15.1217ZM75.4288 18.3803C77.0581 18.3541 78.1093 19.7469 78.1093 21.2711C78.1093 22.7953 77.0581 24.1618 75.4551 24.1618C74.3776 24.1618 73.4053 23.5311 72.9848 22.5325C72.7483 21.9806 72.7483 21.5339 72.7483 21.3236C72.7483 20.2462 73.2213 19.2476 74.1937 18.722C74.7456 18.4329 75.166 18.4066 75.4288 18.3803ZM84.1936 7.39552V27H87.9779V25.7649C88.2407 26.0539 88.3721 26.2116 88.6874 26.4481C89.7912 27.2891 90.9737 27.3154 91.4993 27.3154C92.3403 27.3154 94.3375 27.184 95.8617 25.3444C97.202 23.7413 97.2808 21.8229 97.2808 21.1397C97.2808 18.6957 96.1245 17.224 95.415 16.5933C94.0484 15.3319 92.4979 15.2268 91.8147 15.2268C90.1591 15.2268 89.1079 15.9101 88.6086 16.3305L87.899 17.0401V7.39552H84.1936ZM92.4454 19.1687C92.787 19.4841 93.2338 20.1936 93.2338 21.3236C93.2338 22.9267 92.2352 24.3195 90.5533 24.3195C89.3444 24.3195 88.3721 23.6625 87.9516 22.5325C87.7414 22.0069 87.7414 21.5602 87.7414 21.3499C87.7414 20.2199 88.1881 19.195 89.2393 18.6694C89.4233 18.5643 89.9226 18.3803 90.527 18.3803C90.8686 18.3803 91.7621 18.4329 92.4454 19.1687ZM99.8827 12.7828C100.461 13.361 101.144 13.4398 101.459 13.4398C102.668 13.4398 103.693 12.4675 103.693 11.2323C103.693 10.0235 102.695 8.99857 101.459 8.97229C100.251 8.97229 99.2257 9.97091 99.2257 11.206C99.2257 11.7842 99.4622 12.3886 99.8827 12.7828ZM99.5673 15.5684V27H103.325V15.5684H99.5673ZM106.137 7.39552V27H109.895V7.39552H106.137ZM124.165 22.0595C124.191 20.9032 124.165 19.9834 123.955 19.1424C123.666 18.1701 122.798 16.094 120.065 15.3319C119.75 15.2531 119.119 15.0954 118.278 15.0954C116.78 15.0954 115.677 15.621 115.204 15.8838C113.785 16.6985 113.206 17.7496 112.944 18.3278C112.313 19.6155 112.287 20.6929 112.287 21.2711C112.287 23.0055 112.865 24.2407 113.233 24.7925C113.863 25.7386 115.466 27.3679 118.41 27.3679C120.17 27.3679 121.852 26.7635 123.087 25.4758C123.508 25.0553 123.692 24.7137 123.85 24.5035L120.827 23.0581C120.617 23.3997 119.934 24.5297 118.489 24.5297C117.542 24.5297 116.675 24.0567 116.229 23.2158C116.018 22.8478 115.939 22.4537 115.861 22.0595H124.165ZM115.861 19.8783C115.992 19.4052 116.071 19.1687 116.15 18.9585C116.728 17.8285 117.7 17.6708 118.173 17.6708C118.699 17.6708 119.093 17.8285 119.277 17.9336C120.249 18.4329 120.512 19.5629 120.565 19.8783H115.861ZM140.576 9.26136C140.103 9.05113 139.604 8.84089 139.104 8.65694C137.396 8.07879 135.714 7.99995 135.11 7.99995C134.584 7.99995 133.086 8.05251 131.588 8.63066C130.406 9.07741 129.355 9.86579 128.514 10.8119C127.778 11.6002 127.41 12.2572 127.2 12.6514C126.438 14.1493 126.07 16.0677 126.07 17.7233C126.07 21.9281 128.198 24.3983 129.407 25.4232C131.615 27.3154 134.322 27.3942 135.241 27.3942C137.817 27.3942 139.709 26.5007 140.55 26.1591L140.576 21.8229C140.261 22.0595 139.945 22.296 139.656 22.5062C138.736 23.1369 137.554 23.5048 137.081 23.6099C136.424 23.7413 135.951 23.7413 135.688 23.7413C132.193 23.7413 130.931 21.3762 130.511 20.1411C130.169 19.1162 130.143 18.2489 130.143 17.8285C130.143 14.6487 131.878 12.993 132.981 12.3623C134.059 11.7579 135.162 11.7316 135.609 11.7316C138.211 11.7316 139.919 13.2558 140.576 13.834V9.26136ZM148.644 15.1217C146.752 15.148 145.569 15.8049 144.912 16.2517C143.966 16.8824 142.337 18.3278 142.337 21.2448C142.337 22.1383 142.442 24.1355 144.255 25.7386C144.728 26.1853 145.201 26.4481 145.411 26.5795C145.963 26.8686 147.172 27.4205 148.854 27.4205C151.377 27.4205 153.663 26.1591 154.714 23.8202C154.898 23.426 155.266 22.4799 155.266 21.2711C155.266 20.6929 155.161 19.0373 154.084 17.6182C153.374 16.6722 151.692 15.0954 148.644 15.1217ZM148.775 18.3803C150.405 18.3541 151.456 19.7469 151.456 21.2711C151.456 22.7953 150.405 24.1618 148.801 24.1618C147.724 24.1618 146.752 23.5311 146.331 22.5325C146.095 21.9806 146.095 21.5339 146.095 21.3236C146.095 20.2462 146.568 19.2476 147.54 18.722C148.092 18.4329 148.512 18.4066 148.775 18.3803ZM157.908 12.7828C158.486 13.361 159.169 13.4398 159.485 13.4398C160.694 13.4398 161.718 12.4675 161.718 11.2323C161.718 10.0235 160.72 8.99857 159.485 8.97229C158.276 8.97229 157.251 9.97091 157.251 11.206C157.251 11.7842 157.487 12.3886 157.908 12.7828ZM157.593 15.5684V27H161.351V15.5684H157.593ZM175.62 27V19.668C175.62 18.6169 175.568 17.6182 174.963 16.6985C174.569 16.1203 173.544 15.2268 171.757 15.2268C169.655 15.2005 168.42 16.5408 167.894 17.0664V15.5684H164.162V27H167.842V21.2974C167.842 20.3776 167.92 19.4578 168.761 18.8271C169.287 18.4066 169.865 18.3803 170.102 18.3803C170.312 18.3803 170.811 18.3803 171.284 18.7745C171.862 19.3001 171.889 20.0359 171.889 20.7192V27H175.62Z" fill="white"/>
</svg>
