<svg width="127" height="71" viewBox="0 0 127 71" fill="none" xmlns="http://www.w3.org/2000/svg">
<path d="M41.3979 0.279493C40.8354 0.69867 40.8495 1.36935 41.44 1.85839L41.8759 2.22168H63.1776H84.4794L84.8871 1.92826C85.4214 1.551 85.4777 0.670725 84.9856 0.251548C84.6762 4.15471e-05 83.9873 4.15471e-05 63.2198 4.15471e-05C41.8197 4.15471e-05 41.7775 4.15471e-05 41.3979 0.279493Z" fill="white"/>
<path d="M42.8344 7.01434C42.6235 7.12612 42.4688 7.33571 42.4407 7.55927C42.3704 8.1042 42.8344 8.34174 44.6763 8.73297C45.534 8.90064 46.4339 9.16612 46.6729 9.30584C46.9401 9.45954 48.9929 11.9886 51.8753 15.7053C54.4906 19.0866 57.5136 22.985 58.5963 24.3683C60.7054 27.079 60.8038 27.3025 60.2835 28.1409C59.9039 28.7417 48.9789 41.4428 48.557 41.7781C47.84 42.337 46.5464 42.7841 44.6201 43.1753C42.4407 43.5945 42.0189 43.8321 42.1876 44.4748C42.2439 44.6844 42.4266 44.894 42.5954 44.9499C42.7641 45.0197 46.7432 45.0616 51.4254 45.0477C60.5226 45.0337 60.4101 45.0477 60.4101 44.363C60.4101 43.9159 60.0305 43.7622 58.301 43.4408C55.6717 42.9797 54.9124 42.6584 54.5328 41.8619C54.0969 40.9677 55.1093 38.9976 59.1165 32.8915C61.5349 29.2028 61.324 29.4683 61.8583 29.4683C62.1677 29.4683 62.4348 29.58 62.6176 29.7757C63.5175 30.7677 71.1805 41.2332 71.3633 41.7222C71.5601 42.2671 71.5601 42.323 71.3211 42.5745C71.0117 42.9238 70.8852 42.9518 68.6636 43.2312C66.4702 43.4967 66.0343 43.6784 66.0343 44.3351C66.0343 44.5866 66.1187 44.866 66.2171 44.9359C66.3155 45.0197 69.9572 45.0616 75.4689 45.0616C85.1989 45.0477 85.0161 45.0616 85.0161 44.349C85.0161 43.7343 84.4115 43.4688 82.2743 43.1614C80.9244 42.9658 80.0808 42.6584 79.2091 42.0575C78.731 41.7362 76.9594 39.5704 72.4037 33.7299C69.0152 29.3844 66.1609 25.6118 66.0484 25.3464C65.6828 24.4242 65.8093 24.2146 69.7322 19.394C74.78 13.1623 75.8064 11.9467 77.0437 10.7869C78.3654 9.54338 79.3918 9.01242 81.5009 8.49543C83.1038 8.1042 83.5256 7.85269 83.4413 7.40557C83.4132 7.27982 83.146 7.09818 82.8507 6.98639C82.3727 6.80475 81.8384 6.80475 78.8435 6.94448C76.2282 7.07023 74.6675 7.0842 72.5162 6.95845C68.8745 6.76284 67.6232 6.81873 67.356 7.18201C66.7936 7.93653 67.3138 8.29982 69.451 8.64913C71.1524 8.91461 71.7851 9.15214 72.1366 9.65516C72.4319 10.0604 72.4178 10.4097 72.0944 11.1083C71.6304 12.1143 65.4719 21.8392 65.036 22.2305C64.811 22.454 64.5017 22.6217 64.3471 22.6217C63.9674 22.6217 63.166 21.8951 62.4629 20.8891C62.1255 20.414 60.4804 18.0946 58.8072 15.7332C55.6998 11.3598 55.3483 10.7869 55.3483 10.0743C55.3483 9.24995 56.0513 8.95653 58.3713 8.78886C59.2993 8.73297 60.2273 8.60721 60.4242 8.53735C61.1975 8.24393 60.9585 7.22393 60.0445 6.91653C59.7774 6.8327 58.2588 6.8327 55.4889 6.94448C52.5924 7.07023 50.5396 7.07023 48.6695 6.97242C44.9857 6.79078 43.2562 6.80475 42.8344 7.01434Z" fill="white"/>
<path d="M0.665736 49.1975C0.215798 50.2594 -0.0794738 51.2514 0.0189501 51.4191C0.0892529 51.5169 0.384525 51.3073 0.848523 50.8742C1.83276 49.8961 2.69046 49.6446 3.67469 50.0079L4.04027 50.1476L3.99809 54.0459C3.96997 56.6309 3.89966 58.0142 3.80124 58.112C3.71688 58.1958 3.3513 58.3355 2.98573 58.4333C1.72028 58.7547 2.18428 58.8805 4.70111 58.8944C6.52899 58.9084 7.11953 58.8665 7.11953 58.7268C7.11953 58.5311 6.8102 58.3914 6.36026 58.3914C6.19153 58.3914 5.91032 58.2936 5.7416 58.1679C5.43226 57.9583 5.43226 57.9303 5.43226 54.0739C5.43226 50.7764 5.46038 50.1616 5.64317 50.0079C5.79784 49.8821 6.12123 49.8542 6.73989 49.924C8.20219 50.0777 8.49746 50.2314 8.66619 50.8602C8.86304 51.5728 9.11613 51.5029 9.27079 50.6925C9.39734 50.0218 9.27079 48.6106 9.08801 48.6106C9.03177 48.6106 8.8771 48.7643 8.75055 48.9599L8.52559 49.3092H5.08075C2.15615 49.3092 1.62185 49.2813 1.43907 49.0857C1.31252 48.9739 1.2141 48.8062 1.2141 48.7364C1.2141 48.401 0.890704 48.6665 0.665736 49.1975Z" fill="white"/>
<path d="M40.584 49.2394C40.584 49.3651 40.7808 49.4629 41.1183 49.5188C42.0041 49.6725 42.1306 49.7424 42.2009 50.0498C42.3556 50.6226 42.215 57.9443 42.0463 58.1119C41.9619 58.1958 41.6245 58.3076 41.273 58.3635C40.8793 58.4333 40.6543 58.5451 40.6543 58.6708C40.6543 58.8385 41.2167 58.8804 44.2116 58.8944C46.855 58.8944 47.7971 58.8665 47.8955 58.7407C48.0783 58.5171 48.261 56.7147 48.1064 56.7147C48.0361 56.7147 47.7127 56.9941 47.3893 57.3295C46.6863 58.07 46.0395 58.2796 44.6897 58.2237L43.7476 58.1818L43.7054 54.0739C43.6914 51.3632 43.7195 49.91 43.8179 49.7983C43.9023 49.7005 44.2538 49.5747 44.5912 49.5188C44.999 49.4629 45.224 49.3651 45.224 49.2254C45.224 49.0577 44.8303 49.0298 42.904 49.0298C40.9636 49.0298 40.584 49.0577 40.584 49.2394Z" fill="white"/>
<path d="M90.878 49.1276C90.6812 49.3093 91.1171 49.5887 91.6092 49.5887C92.6497 49.5887 92.6778 49.6586 92.6215 52.4671C92.5934 53.8503 92.5372 55.7227 92.4809 56.6449L92.3966 58.3216L91.7076 58.4194C91.1452 58.4892 90.5406 58.7687 90.7937 58.8246C91.0889 58.9084 95.3071 58.8805 95.3633 58.7966C95.4618 58.629 95.1524 58.5032 94.3932 58.4054C93.3105 58.2796 93.2964 58.2098 93.3386 54.2695L93.3808 50.958L97.0225 55.1638C99.3565 57.8605 100.763 59.3695 100.931 59.3695C101.17 59.3695 101.184 59.1599 101.184 54.8564C101.184 49.8402 101.213 49.7145 102.042 49.5887C102.309 49.5328 102.604 49.449 102.703 49.3931C103.125 49.1276 102.576 49.0298 100.749 49.0298C99.1737 49.0298 98.7941 49.0717 98.7941 49.2254C98.7941 49.435 99.2159 49.5887 99.8627 49.5887C100.088 49.5887 100.355 49.6586 100.453 49.7564C100.65 49.952 100.706 56.8544 100.509 56.8544C100.439 56.8544 98.8925 55.0939 97.0506 52.9421L93.7183 49.0298H92.3403C91.5811 49.0298 90.9202 49.0717 90.878 49.1276Z" fill="white"/>
<path d="M52.3959 51.9919C51.721 52.3412 51.3695 52.6347 51.032 53.1237C50.4415 53.99 50.2165 55.0938 50.4134 56.03C50.6102 56.9522 50.7649 57.2177 51.4539 57.9443C53.2536 59.7886 56.7266 59.3555 57.9358 57.1338C58.9481 55.2895 58.3154 53.0678 56.5016 52.0059C55.9532 51.6845 55.658 51.6147 54.5753 51.5728C53.3661 51.5169 53.2677 51.5308 52.3959 51.9919ZM55.6158 52.2574C56.2626 52.6486 56.5578 53.0259 56.839 53.8363C57.1765 54.8284 57.064 56.5889 56.6 57.4133C55.7986 58.8804 53.577 59.1179 52.4943 57.8464C52.0022 57.2596 51.8335 56.6029 51.8335 55.2336C51.8335 54.2555 51.8897 53.99 52.2272 53.3473C52.4943 52.8303 52.7896 52.4949 53.1833 52.2854C53.9145 51.8662 54.9549 51.8522 55.6158 52.2574Z" fill="white"/>
<path d="M74.6789 51.8243C73.0901 52.4391 72.1762 53.7106 72.1621 55.3454C72.1621 57.1618 73.3291 58.587 75.1429 58.9643C76.1131 59.1599 77.6738 59.0481 78.7143 58.7128L79.4595 58.4613L79.5298 57.3435C79.6142 56.072 79.6986 55.8764 80.1766 55.8764C80.3875 55.8764 80.5141 55.7925 80.5141 55.6668C80.5141 55.4851 80.2188 55.4572 78.6862 55.4572C77.1536 55.4572 76.8583 55.4851 76.8583 55.6668C76.8583 55.8065 76.9989 55.8764 77.3223 55.8764C77.5754 55.8764 77.9269 55.9742 78.0957 56.0999C78.3628 56.2816 78.405 56.4353 78.405 57.1758C78.405 58.2098 78.3206 58.3495 77.6879 58.5311C76.6052 58.8385 75.5507 58.601 74.7211 57.8605C73.9197 57.1479 73.6244 56.4492 73.6244 55.2476C73.6244 54.046 73.9197 53.3473 74.7211 52.6347C75.4101 52.0199 76.2397 51.7684 77.1255 51.8942C77.6738 51.978 77.8848 52.1038 78.5034 52.7605C79.108 53.3892 79.2627 53.487 79.333 53.2914C79.3892 53.1517 79.3752 52.8164 79.3049 52.5369C79.1924 52.0898 79.094 52.006 78.4753 51.7964C77.4911 51.461 75.5929 51.475 74.6789 51.8243Z" fill="white"/>
<path d="M107.581 51.7265C105.88 52.3972 105.079 53.515 105.065 55.2476C105.05 58.0281 107.581 59.7188 110.478 58.8665C111.575 58.5451 112.601 57.4972 112.924 56.3794C113.501 54.4232 112.474 52.3832 110.618 51.7545C109.887 51.503 108.186 51.489 107.581 51.7265ZM110.337 52.2854C111.35 52.9561 111.8 54.0879 111.701 55.6947C111.575 57.595 110.632 58.6709 109.1 58.6709C107.413 58.6709 106.499 57.5251 106.485 55.3873C106.471 53.7246 107.117 52.4671 108.214 52.0619C108.762 51.8523 109.873 51.9641 110.337 52.2854Z" fill="white"/>
<path d="M11.7617 51.8243C11.7617 51.8941 11.9726 52.0059 12.2257 52.0758L12.6756 52.1876V55.2615V58.3215L12.1554 58.4473C11.8601 58.5171 11.6211 58.6569 11.6211 58.7407C11.6211 58.8665 12.0992 58.9084 13.2943 58.8944C15.2909 58.8804 15.6424 58.7407 14.391 58.4752L13.9973 58.3774L14.0395 56.9522L14.0817 55.527H16.0502H18.0186L18.0608 56.8544C18.103 58.2936 17.9905 58.5311 17.2875 58.5311C17.1047 58.5311 16.9641 58.615 16.9641 58.7267C16.9641 58.8665 17.3297 58.9084 18.6936 58.8944C19.734 58.8804 20.4089 58.8245 20.4089 58.7407C20.4089 58.6569 20.2543 58.573 20.0574 58.5591C19.3685 58.4613 19.3544 58.4054 19.3544 55.2196C19.3544 52.9561 19.3966 52.2155 19.5372 52.1876C19.6216 52.1457 19.8746 52.0898 20.0996 52.0478C20.3105 51.992 20.4792 51.8941 20.4792 51.8243C20.4792 51.6426 17.2875 51.6426 17.1891 51.8103C17.0907 51.95 17.4281 52.1037 17.8218 52.1037C18.0608 52.1037 18.089 52.2155 18.089 53.501V54.8982H16.0502H13.9973L14.0395 53.5429L14.0817 52.1876L14.5457 52.0758C15.4456 51.8383 14.9956 51.6846 13.3787 51.6846C12.4225 51.6846 11.7617 51.7404 11.7617 51.8243Z" fill="white"/>
<path d="M23.2871 51.8243C23.2871 51.8941 23.498 52.0059 23.7511 52.0758L24.201 52.1876L24.2432 55.1777C24.2573 56.8824 24.2151 58.2237 24.1448 58.2936C24.0745 58.3635 23.8073 58.4613 23.5402 58.5171C23.2871 58.573 23.0762 58.6708 23.0762 58.7407C23.0762 58.8245 24.3276 58.8804 26.2679 58.8804L29.4597 58.8944L29.6143 58.2098C29.8815 56.9522 29.7268 56.5889 29.2909 57.4832C28.9254 58.2517 28.4614 58.4613 27.1397 58.4613C25.579 58.4613 25.5368 58.4193 25.5368 56.7007V55.3174H26.7179C27.8286 55.3174 27.9271 55.3454 28.1942 55.6807C28.3629 55.8903 28.4895 56.1418 28.4895 56.2396C28.4895 56.3514 28.5457 56.4352 28.616 56.4352C28.7707 56.4352 28.8972 54.1857 28.7566 54.004C28.7004 53.9481 28.5457 54.0878 28.4332 54.3254C28.152 54.8424 27.8708 54.9262 26.5913 54.8703L25.6071 54.8284V53.501V52.1736L26.8022 52.1317C28.1802 52.0898 28.8551 52.3413 29.1785 52.984C29.4315 53.5429 29.6425 53.2774 29.5862 52.4391L29.544 51.7544L26.4226 51.7125C24.4119 51.6985 23.2871 51.7265 23.2871 51.8243Z" fill="white"/>
<path d="M60.6914 51.8244C60.6914 51.8942 60.9164 51.992 61.1835 52.0479C62.0272 52.2016 62.0975 52.4531 62.0834 54.8983C62.0834 56.086 62.0272 57.3435 61.985 57.6928C61.9006 58.2517 61.8303 58.3356 61.3944 58.4753C60.5086 58.7687 60.8039 58.8945 62.3365 58.8805C63.855 58.8805 64.4315 58.6849 63.4332 58.5172C63.152 58.4753 62.8567 58.3635 62.7583 58.2657C62.5474 58.0561 62.4209 53.2216 62.6318 53.2216C62.7021 53.2216 64.0519 54.535 65.6126 56.1558C67.1733 57.7767 68.5091 59.0901 68.5794 59.0901C68.6497 59.0901 68.7059 57.595 68.7059 55.7506C68.7059 52.1876 68.6919 52.2296 69.4511 52.0479C70.2807 51.8523 69.7886 51.6846 68.3544 51.6846C66.6109 51.6846 66.3297 51.9222 67.792 52.1317C68.0591 52.1737 68.0732 52.2994 68.1154 54.5769L68.1435 56.9942L65.5142 54.3394L62.8708 51.6846H61.7881C61.1835 51.6846 60.6914 51.7405 60.6914 51.8244Z" fill="white"/>
<path d="M115.513 52.1596C115.752 52.4111 116.708 54.0599 117.636 55.8204C118.55 57.581 119.365 59.0341 119.45 59.0621C119.52 59.09 119.914 58.4752 120.307 57.7067C120.687 56.9243 121.039 56.2955 121.081 56.2955C121.109 56.2955 121.46 56.9243 121.868 57.6928C122.262 58.4752 122.656 59.076 122.726 59.0621C122.796 59.0341 123.527 57.5111 124.343 55.6807C125.566 52.9561 125.918 52.2993 126.241 52.1177C126.452 51.9919 126.635 51.8522 126.635 51.7824C126.635 51.6426 124.554 51.6566 124.469 51.8103C124.427 51.8802 124.582 52.0059 124.807 52.0898C125.046 52.1596 125.229 52.2574 125.229 52.2854C125.229 52.3692 123.12 57.3155 123.063 57.3854C123.021 57.4133 122.712 56.8963 122.346 56.2396L121.699 55.0519L122.417 53.6407C122.993 52.481 123.204 52.2015 123.541 52.0758C124.273 51.8382 124.005 51.6845 122.838 51.6845C121.699 51.6845 121.39 51.8522 122.065 52.1037C122.402 52.2295 122.417 52.2574 122.234 52.6906C122.121 52.9421 121.882 53.4591 121.685 53.8503L121.32 54.535L120.743 53.3892L120.167 52.2434L120.518 52.1037C121.235 51.8382 120.884 51.6845 119.534 51.6845C118.17 51.6845 117.889 51.8103 118.592 52.0898C118.887 52.2155 119.183 52.6487 119.872 53.9621L120.786 55.6667L120.307 56.547C120.054 57.036 119.787 57.3714 119.731 57.3155C119.562 57.1339 117.074 52.4251 117.074 52.2714C117.074 52.2015 117.228 52.0898 117.425 52.0478C118.142 51.8662 117.594 51.6845 116.328 51.6845H115.049L115.513 52.1596Z" fill="white"/>
<path d="M34.1574 64.1342C33.9746 64.19 34.0168 64.2459 34.3683 64.3717L34.8182 64.5254L34.7901 67.0824L34.7479 69.6393L34.3683 69.6813C34.1433 69.7092 33.9746 69.793 33.9746 69.8629C33.9746 69.9328 34.6073 69.9886 35.3807 69.9886C36.2243 69.9886 36.7867 69.9328 36.7867 69.8489C36.7867 69.7651 36.6602 69.7092 36.4914 69.7092C35.7744 69.7092 35.6619 69.4996 35.6619 68.2421V67.0544H36.4071C37.1804 67.0544 37.4897 67.2221 37.4897 67.6413C37.4897 67.781 37.56 67.8928 37.6303 67.8928C37.7147 67.8928 37.7709 67.4456 37.7709 66.8448C37.7709 65.8109 37.6022 65.4615 37.4335 66.1462C37.321 66.5933 36.8992 66.8029 36.2524 66.747L35.7322 66.7051V65.5873V64.4695L36.5617 64.4276C37.4054 64.3857 37.9116 64.6232 37.9116 65.0424C37.9116 65.1402 37.9819 65.2659 38.0522 65.3078C38.1365 65.3637 38.1928 65.1262 38.1928 64.707V64.0084L36.2946 64.0363C35.2541 64.0363 34.298 64.0922 34.1574 64.1342Z" fill="white"/>
<path d="M71.3781 65.7131C71.3078 65.9226 71.1953 66.258 71.1531 66.4676L71.0547 66.8448L71.4765 66.4676C71.9827 65.9925 72.6576 65.8248 72.8966 66.1183C73.0232 66.258 73.0654 66.8309 73.0372 67.9766C72.995 69.5136 72.9669 69.6393 72.7138 69.6813C72.5592 69.7092 72.3764 69.793 72.3061 69.8629C72.2217 69.9328 72.6717 69.9886 73.4169 69.9886C74.1621 69.9886 74.612 69.9328 74.5417 69.8629C74.4574 69.793 74.2746 69.7092 74.1199 69.6813C73.8527 69.6393 73.8387 69.5136 73.7965 67.8648C73.7684 66.1881 73.7684 66.0903 74.0496 66.0065C74.4995 65.8667 75.1463 66.0624 75.2447 66.3698C75.3994 66.8309 75.5963 66.6632 75.5963 66.0763C75.5963 65.5454 75.5822 65.5314 75.2307 65.6572C75.0338 65.741 74.2324 65.7969 73.459 65.7969C72.3342 65.7969 71.9827 65.755 71.7858 65.5733C71.5468 65.3498 71.5187 65.3637 71.3781 65.7131Z" fill="white"/>
<path d="M41.0057 65.8249C40.148 66.258 39.7402 66.9008 39.7402 67.823C39.7402 69.6115 41.5962 70.6734 43.2554 69.821C44.1131 69.3739 44.5208 68.7452 44.5208 67.823C44.5208 67.306 44.4365 66.9567 44.1974 66.6213C43.8178 66.0484 42.8195 65.5175 42.1305 65.5175C41.8493 65.5175 41.3431 65.6572 41.0057 65.8249ZM43.0023 66.0764C43.5366 66.4816 43.7194 67.0684 43.6491 68.1164C43.5928 68.9547 43.5506 69.0945 43.1429 69.4438C42.5102 70.0027 41.7509 70.0027 41.1182 69.4438C40.7245 69.0945 40.6682 68.9547 40.612 68.1443C40.5136 66.6632 41.1041 65.8109 42.2149 65.7969C42.4539 65.7969 42.8195 65.9227 43.0023 66.0764Z" fill="white"/>
<path d="M66.8928 67.25C66.4288 68.2002 66.0211 69.1084 65.9648 69.2761C65.9226 69.4437 65.7117 69.6673 65.5008 69.7791C65.1352 69.9747 65.1634 69.9747 66.0351 69.9747C66.7944 69.9747 66.8928 69.9467 66.6397 69.821C66.246 69.6393 66.246 69.6114 66.5975 68.815C66.8647 68.1862 66.8788 68.1722 67.5115 68.1722C68.0739 68.1722 68.1723 68.2141 68.2989 68.5635C68.6223 69.4158 68.6223 69.6952 68.2708 69.835C68.0036 69.9467 68.1723 69.9747 68.9878 69.9747C69.958 69.9887 70.0143 69.9747 69.7331 69.7791C69.5362 69.6393 69.1425 68.815 68.6363 67.5435C68.2005 66.4257 67.8068 65.5174 67.7786 65.5174C67.7365 65.5174 67.3428 66.2999 66.8928 67.25ZM67.7646 67.1243L67.9895 67.7531H67.4834C67.0756 67.7531 67.0053 67.7111 67.0897 67.5015C67.1459 67.3758 67.2584 67.0963 67.3287 66.8728C67.399 66.6632 67.4834 66.4955 67.5115 66.4955C67.5396 66.4955 67.6521 66.775 67.7646 67.1243Z" fill="white"/>
<path d="M81.769 65.8389C81.08 66.2022 80.5176 67.0824 80.5176 67.823C80.5176 68.5775 81.08 69.4578 81.783 69.8211C83.0485 70.4498 84.5389 70.0307 85.1294 68.8709C85.2982 68.5356 85.4388 68.0605 85.4388 67.823C85.4388 67.5855 85.2982 67.1104 85.1294 66.775C84.5389 65.6153 83.0204 65.1961 81.769 65.8389ZM83.7374 66.0066C84.4827 66.3838 84.8201 67.9068 84.3983 68.9268C84.1311 69.5556 83.6671 69.849 82.936 69.849C82.1908 69.849 81.7408 69.4438 81.5018 68.5775C81.0097 66.7611 82.3173 65.266 83.7374 66.0066Z" fill="white"/>
<path d="M46.3207 65.8249C46.616 65.9646 46.6301 66.0624 46.6301 67.5016C46.6301 69.7092 46.9534 70.1284 48.6126 70.1284C49.175 70.1284 49.3859 70.0586 49.7515 69.7232L50.2155 69.318L50.2577 67.6972C50.3139 66.1043 50.3139 66.0624 50.6795 65.8668C51.0451 65.6712 51.031 65.6712 50.1874 65.6572C49.2313 65.6572 49.1047 65.7271 49.6671 65.9366L50.0327 66.0764L49.9765 67.6273C49.9343 69.1224 49.9202 69.1923 49.5406 69.5136C49.1188 69.8769 48.5423 69.9468 47.9799 69.6953C47.5018 69.4717 47.4456 69.2901 47.3612 67.5854L47.2909 66.0764L47.6705 65.9366C47.8674 65.8668 48.0361 65.769 48.0361 65.7271C48.0361 65.6851 47.5721 65.6572 47.0238 65.6712C46.1801 65.6712 46.0536 65.6991 46.3207 65.8249Z" fill="white"/>
<path d="M52.3245 65.7969C52.3667 65.8667 52.5214 65.9366 52.676 65.9366C53.0276 65.9366 53.0979 66.2021 53.0979 67.6133C53.0979 69.2761 53.0135 69.6393 52.5636 69.807C52.2402 69.9328 52.3526 69.9607 53.2385 69.9607C54.2649 69.9607 54.2789 69.9607 53.8431 69.7651L53.3791 69.5695V68.0325V66.5095L55.2069 68.3539L57.0208 70.1982L57.0348 68.1443V66.0903L57.4285 65.8807C57.7941 65.6711 57.78 65.6711 56.8239 65.6711C56.1349 65.6572 55.91 65.6991 56.0506 65.7969C56.1631 65.8667 56.374 65.9366 56.5146 65.9366C56.7255 65.9366 56.7536 66.1043 56.7536 67.4317V68.9267L55.1929 67.2919L53.6322 65.6572H52.9432C52.5073 65.6572 52.2683 65.713 52.3245 65.7969Z" fill="white"/>
<path d="M59.1426 65.7829C59.1426 65.8528 59.2832 65.9366 59.466 65.9645C59.7612 66.0065 59.7753 66.0624 59.8175 67.753C59.8597 69.4158 59.8456 69.4996 59.5363 69.7371C59.2269 69.9747 59.2551 69.9886 60.6892 69.9886C61.9547 69.9886 62.264 69.9467 62.7983 69.6673C63.6279 69.2621 64.1341 68.3259 63.9935 67.4736C63.881 66.7889 63.3326 66.1043 62.6999 65.8528C62.1797 65.6292 59.1426 65.5733 59.1426 65.7829ZM62.0531 66.0763C62.7983 66.4117 63.2201 67.0544 63.2201 67.8648C63.2201 68.6193 62.9108 69.2202 62.3765 69.4996C61.8844 69.7511 60.9564 69.7791 60.7174 69.5415C60.5346 69.3599 60.4643 66.0624 60.6471 65.8947C60.8158 65.713 61.4626 65.7969 62.0531 66.0763Z" fill="white"/>
<path d="M77.2114 65.7969C77.2536 65.8668 77.3942 65.9366 77.5067 65.9366C77.6613 65.9366 77.7035 66.272 77.7035 67.7531V69.5695L77.3239 69.7372C76.9302 69.9048 76.9302 69.9048 77.5348 69.9607C77.8582 69.9887 78.3644 69.9887 78.6596 69.9607L79.1799 69.9048L78.8002 69.7372L78.4065 69.5695V67.8229C78.4065 66.0764 78.4065 66.0624 78.7581 65.9366C79.3205 65.727 79.1799 65.6572 78.1113 65.6572C77.4926 65.6572 77.1552 65.7131 77.2114 65.7969Z" fill="white"/>
<path d="M86.8418 65.7271C86.8418 65.769 86.9965 65.8668 87.1933 65.9366C87.5448 66.0624 87.5448 66.0764 87.5448 67.809V69.5555L87.1652 69.7651C86.7856 69.9747 86.8137 69.9747 87.826 69.9747C88.8665 69.9607 88.8665 69.9607 88.4306 69.7651L87.9666 69.5695V68.0605V66.5654L89.7383 68.3399C90.7085 69.332 91.538 70.1284 91.5661 70.1284C91.5943 70.1284 91.6224 69.2202 91.6224 68.1024V66.0903L92.0161 65.8808C92.3817 65.6712 92.3676 65.6712 91.4255 65.6572C90.5116 65.6572 90.2726 65.8249 90.9897 65.9646C91.2428 66.0065 91.2709 66.1323 91.3131 67.3758C91.3412 68.1723 91.299 68.7312 91.2146 68.7312C91.1443 68.7312 90.4272 68.0325 89.6398 67.1942L88.1916 65.6572H87.5167C87.1511 65.6572 86.8418 65.6851 86.8418 65.7271Z" fill="white"/>
</svg>
