<svg width="197" height="41" viewBox="0 0 197 41" fill="none" xmlns="http://www.w3.org/2000/svg">
<path d="M0.376513 0.271919C-0.138055 0.679031 -0.12519 1.33041 0.415105 1.80537L0.813895 2.1582H20.3031H39.7924L40.1654 1.87322C40.6543 1.50682 40.7057 0.65189 40.2555 0.244778C39.9725 0.000510981 39.3421 0.000510981 20.3417 0.000510981C0.762438 0.000510981 0.723846 0.000510981 0.376513 0.271919Z" fill="white"/>
<path d="M1.48639 6.1969C1.29316 6.29914 1.15145 6.49084 1.12569 6.69531C1.06128 7.19372 1.48639 7.41098 3.17396 7.76881C3.95978 7.92217 4.78424 8.16498 5.00324 8.29278C5.248 8.43335 7.12881 10.7465 9.76966 14.1459C12.1658 17.2386 14.9354 20.8041 15.9274 22.0693C17.8597 24.5486 17.9499 24.7531 17.4732 25.5198C17.1254 26.0694 7.11592 37.6861 6.72946 37.9929C6.07246 38.504 4.8873 38.913 3.12243 39.2708C1.12569 39.6542 0.739222 39.8715 0.893809 40.4593C0.945338 40.651 1.11281 40.8427 1.26739 40.8939C1.42198 40.9578 5.06765 40.9961 9.35743 40.9833C17.6922 40.9705 17.5892 40.9833 17.5892 40.3571C17.5892 39.9482 17.2414 39.8076 15.6568 39.5136C13.2479 39.0919 12.5522 38.798 12.2044 38.0695C11.8051 37.2516 12.7326 35.4497 16.404 29.865C18.6197 26.4911 18.4265 26.7339 18.916 26.7339C19.1994 26.7339 19.4442 26.8362 19.6117 27.0151C20.4361 27.9224 27.457 37.4944 27.6244 37.9417C27.8048 38.4401 27.8048 38.4913 27.5858 38.7213C27.3024 39.0408 27.1864 39.0664 25.151 39.3219C23.1414 39.5648 22.7421 39.7309 22.7421 40.3315C22.7421 40.5616 22.8194 40.8172 22.9095 40.8811C22.9997 40.9578 26.3362 40.9961 31.386 40.9961C40.3005 40.9833 40.1331 40.9961 40.1331 40.3443C40.1331 39.782 39.5791 39.5392 37.621 39.2581C36.3843 39.0791 35.6114 38.798 34.8127 38.2485C34.3747 37.9545 32.7515 35.9737 28.5777 30.6317C25.4731 26.6572 22.858 23.2067 22.7549 22.9639C22.42 22.1204 22.5359 21.9287 26.1301 17.5197C30.7548 11.82 31.6952 10.7081 32.8288 9.64743C34.0398 8.51003 34.9802 8.0244 36.9125 7.55155C38.3811 7.19372 38.7675 6.96369 38.6903 6.55474C38.6645 6.43972 38.4197 6.27358 38.1492 6.17134C37.7112 6.00521 37.2217 6.00521 34.4778 6.133C32.0817 6.24802 30.6517 6.2608 28.6808 6.14578C25.3443 5.96687 24.1978 6.01799 23.953 6.35026C23.4377 7.04036 23.9143 7.37264 25.8724 7.69213C27.4312 7.93495 28.0109 8.1522 28.3329 8.61227C28.6035 8.98288 28.5906 9.30238 28.2943 9.94136C27.8692 10.8615 22.2268 19.7562 21.8274 20.114C21.6213 20.3185 21.3379 20.4719 21.1962 20.4719C20.8484 20.4719 20.1141 19.8073 19.47 18.8872C19.1608 18.4527 17.6536 16.3312 16.1206 14.1715C13.2736 10.1714 12.9516 9.64743 12.9516 8.99566C12.9516 8.24166 13.5957 7.97328 15.7212 7.81993C16.5715 7.76881 17.4217 7.65379 17.6021 7.58989C18.3106 7.32152 18.0916 6.3886 17.2542 6.10745C17.0095 6.03077 15.6182 6.03077 13.0804 6.133C10.4267 6.24802 8.54585 6.24802 6.83251 6.15856C3.45737 5.99243 1.87286 6.00521 1.48639 6.1969Z" fill="white"/>
<path d="M51.3941 10.1958C50.8756 11.4195 50.5354 12.5627 50.6488 12.7559C50.7298 12.8686 51.0701 12.6271 51.6048 12.128C52.739 11.0009 53.7273 10.7111 54.8616 11.1297L55.2828 11.2907L55.2342 15.783C55.2018 18.7617 55.1208 20.3557 55.0074 20.4684C54.9102 20.5651 54.4889 20.7261 54.0676 20.8388C52.6093 21.2091 53.144 21.354 56.0444 21.3701C58.1508 21.3862 58.8313 21.3379 58.8313 21.1769C58.8313 20.9515 58.4748 20.7905 57.9563 20.7905C57.7619 20.7905 57.4378 20.6778 57.2434 20.5329C56.8869 20.2913 56.8869 20.2591 56.8869 15.8152C56.8869 12.0153 56.9193 11.3068 57.13 11.1297C57.3082 10.9848 57.6809 10.9526 58.3938 11.0331C60.0789 11.2102 60.4192 11.3873 60.6136 12.1119C60.8404 12.9331 61.1321 12.8525 61.3103 11.9187C61.4562 11.1458 61.3103 9.51958 61.0997 9.51958C61.0349 9.51958 60.8566 9.6967 60.7108 9.92211L60.4516 10.3246H56.4818C53.1116 10.3246 52.4959 10.2924 52.2853 10.067C52.1395 9.93821 52.026 9.745 52.026 9.66449C52.026 9.27806 51.6534 9.58399 51.3941 10.1958Z" fill="white"/>
<path d="M97.3965 10.2449C97.3965 10.3898 97.6233 10.5025 98.0122 10.5669C99.033 10.7441 99.1788 10.8246 99.2598 11.1788C99.4381 11.839 99.276 20.2762 99.0816 20.4694C98.9844 20.566 98.5955 20.6948 98.1904 20.7592C97.7367 20.8397 97.4775 20.9686 97.4775 21.1135C97.4775 21.3067 98.1256 21.355 101.577 21.3711C104.623 21.3711 105.709 21.3389 105.822 21.194C106.033 20.9364 106.243 18.8593 106.065 18.8593C105.984 18.8593 105.611 19.1813 105.239 19.5677C104.429 20.4211 103.683 20.6626 102.128 20.5982L101.042 20.5499L100.994 15.8161C100.977 12.6924 101.01 11.0178 101.123 10.889C101.22 10.7763 101.625 10.6314 102.014 10.5669C102.484 10.5025 102.743 10.3898 102.743 10.2288C102.743 10.0356 102.29 10.0034 100.07 10.0034C97.834 10.0034 97.3965 10.0356 97.3965 10.2449Z" fill="white"/>
<path d="M155.353 10.1156C155.126 10.325 155.629 10.647 156.196 10.647C157.395 10.647 157.427 10.7275 157.362 13.9639C157.33 15.5579 157.265 17.7155 157.2 18.7782L157.103 20.7104L156.309 20.8231C155.661 20.9036 154.964 21.2256 155.256 21.29C155.596 21.3866 160.457 21.3544 160.522 21.2578C160.635 21.0646 160.279 20.9197 159.404 20.807C158.156 20.6621 158.14 20.5816 158.189 16.041L158.237 12.2249L162.434 17.0714C165.123 20.179 166.744 21.918 166.938 21.918C167.214 21.918 167.23 21.6764 167.23 16.7172C167.23 10.9368 167.262 10.7919 168.218 10.647C168.526 10.5826 168.866 10.486 168.98 10.4216C169.466 10.1156 168.834 10.0029 166.727 10.0029C164.913 10.0029 164.475 10.0512 164.475 10.2283C164.475 10.4699 164.961 10.647 165.707 10.647C165.966 10.647 166.274 10.7275 166.387 10.8402C166.614 11.0656 166.679 19.0197 166.452 19.0197C166.371 19.0197 164.589 16.9909 162.466 14.5113L158.626 10.0029H157.038C156.163 10.0029 155.402 10.0512 155.353 10.1156Z" fill="white"/>
<path d="M111.005 13.4191C110.228 13.8217 109.823 14.1598 109.434 14.7234C108.753 15.7217 108.494 16.9937 108.721 18.0725C108.948 19.1352 109.126 19.4411 109.92 20.2784C111.994 22.4038 115.996 21.9047 117.389 19.3445C118.556 17.2191 117.827 14.659 115.737 13.4352C115.105 13.0649 114.765 12.9844 113.517 12.9361C112.123 12.8717 112.01 12.8878 111.005 13.4191ZM114.716 13.7251C115.461 14.1759 115.802 14.6106 116.126 15.5445C116.514 16.6877 116.385 18.7165 115.85 19.6665C114.927 21.3572 112.367 21.6309 111.119 20.1657C110.552 19.4894 110.357 18.7326 110.357 17.1547C110.357 16.0276 110.422 15.7217 110.811 14.981C111.119 14.3852 111.459 13.9988 111.913 13.7573C112.755 13.2742 113.954 13.2581 114.716 13.7251Z" fill="white"/>
<path d="M136.685 13.2239C134.855 13.9323 133.801 15.3975 133.785 17.2814C133.785 19.3745 135.13 21.0168 137.22 21.4516C138.338 21.677 140.137 21.5482 141.336 21.1618L142.194 20.8719L142.275 19.5838C142.373 18.1186 142.47 17.8932 143.021 17.8932C143.264 17.8932 143.41 17.7966 143.41 17.6517C143.41 17.4424 143.069 17.4102 141.303 17.4102C139.537 17.4102 139.197 17.4424 139.197 17.6517C139.197 17.8127 139.359 17.8932 139.732 17.8932C140.023 17.8932 140.428 18.0059 140.623 18.1508C140.931 18.3601 140.979 18.5373 140.979 19.3906C140.979 20.5821 140.882 20.7431 140.153 20.9524C138.905 21.3067 137.69 21.0329 136.734 20.1796C135.811 19.3584 135.47 18.5534 135.47 17.1687C135.47 15.784 135.811 14.9789 136.734 14.1577C137.528 13.4493 138.484 13.1595 139.505 13.3044C140.137 13.401 140.38 13.5459 141.093 14.3026C141.789 15.0272 141.968 15.1399 142.049 14.9145C142.113 14.7535 142.097 14.367 142.016 14.045C141.887 13.5298 141.773 13.4332 141.06 13.1917C139.926 12.8052 137.739 12.8213 136.685 13.2239Z" fill="white"/>
<path d="M174.602 13.1107C172.641 13.8835 171.717 15.1716 171.701 17.1681C171.685 20.3723 174.602 22.3205 177.939 21.3384C179.203 20.968 180.386 19.7604 180.759 18.4723C181.423 16.2182 180.24 13.8674 178.101 13.1429C177.259 12.853 175.298 12.8369 174.602 13.1107ZM177.777 13.7547C178.944 14.5276 179.462 15.8318 179.349 17.6834C179.203 19.8731 178.118 21.1129 176.351 21.1129C174.407 21.1129 173.354 19.7926 173.338 17.3292C173.322 15.4131 174.067 13.964 175.331 13.4971C175.963 13.2556 177.243 13.3844 177.777 13.7547Z" fill="white"/>
<path d="M64.1796 13.2225C64.1796 13.3031 64.4227 13.4319 64.7143 13.5124L65.2328 13.6412V17.1836V20.7099L64.6333 20.8548C64.293 20.9353 64.0176 21.0964 64.0176 21.193C64.0176 21.3379 64.5685 21.3862 65.9457 21.3701C68.2465 21.354 68.6516 21.193 67.2096 20.887L66.7559 20.7743L66.8045 19.1319L66.8531 17.4895H69.1215H71.3899L71.4385 19.0192C71.4871 20.6777 71.3575 20.9514 70.5474 20.9514C70.3367 20.9514 70.1747 21.0481 70.1747 21.1769C70.1747 21.3379 70.596 21.3862 72.1677 21.3701C73.3667 21.354 74.1444 21.2896 74.1444 21.193C74.1444 21.0964 73.9662 20.9997 73.7393 20.9836C72.9454 20.8709 72.9292 20.8065 72.9292 17.1353C72.9292 14.5268 72.9778 13.6734 73.1398 13.6412C73.2371 13.5929 73.5287 13.5285 73.788 13.4802C74.031 13.4158 74.2254 13.3031 74.2254 13.2225C74.2254 13.0132 70.5474 13.0132 70.4339 13.2064C70.3205 13.3675 70.7094 13.5446 71.1631 13.5446C71.4385 13.5446 71.4709 13.6734 71.4709 15.1548V16.765H69.1215H66.7559L66.8045 15.2031L66.8531 13.6412L67.3878 13.5124C68.4248 13.2386 67.9063 13.0615 66.0429 13.0615C64.9411 13.0615 64.1796 13.1259 64.1796 13.2225Z" fill="white"/>
<path d="M77.4657 13.2235C77.4657 13.304 77.7087 13.4328 78.0004 13.5134L78.5189 13.6422L78.5675 17.088C78.5837 19.0524 78.5351 20.5982 78.4541 20.6787C78.3731 20.7592 78.0652 20.8719 77.7574 20.9363C77.4657 21.0007 77.2227 21.1135 77.2227 21.194C77.2227 21.2906 78.6647 21.355 80.9007 21.355L84.5788 21.3711L84.757 20.5821C85.0649 19.1329 84.8867 18.7143 84.3844 19.7448C83.9631 20.6304 83.4284 20.8719 81.9053 20.8719C80.1068 20.8719 80.0582 20.8236 80.0582 18.8431V17.249H81.4192C82.6993 17.249 82.8127 17.2812 83.1205 17.6677C83.315 17.9092 83.4608 18.199 83.4608 18.3117C83.4608 18.4405 83.5256 18.5372 83.6066 18.5372C83.7849 18.5372 83.9307 15.9447 83.7687 15.7354C83.7038 15.671 83.5256 15.832 83.396 16.1058C83.0719 16.7015 82.7479 16.7981 81.2734 16.7337L80.1392 16.6854V15.1558V13.6261L81.5164 13.5778C83.1043 13.5295 83.8821 13.8193 84.2547 14.56C84.5464 15.2041 84.7894 14.8981 84.7246 13.932L84.676 13.143L81.079 13.0947C78.7619 13.0786 77.4657 13.1108 77.4657 13.2235Z" fill="white"/>
<path d="M120.564 13.223C120.564 13.3035 120.824 13.4162 121.132 13.4806C122.104 13.6578 122.185 13.9476 122.169 16.7653C122.169 18.1339 122.104 19.583 122.055 19.9856C121.958 20.6296 121.877 20.7262 121.375 20.8872C120.354 21.2254 120.694 21.3703 122.46 21.3542C124.21 21.3542 124.874 21.1288 123.724 20.9355C123.4 20.8872 123.06 20.7584 122.946 20.6457C122.703 20.4042 122.557 14.8332 122.8 14.8332C122.881 14.8332 124.437 16.3467 126.235 18.2144C128.034 20.0822 129.573 21.5957 129.654 21.5957C129.735 21.5957 129.8 19.8729 129.8 17.7475C129.8 13.6417 129.784 13.69 130.659 13.4806C131.615 13.2552 131.048 13.062 129.395 13.062C127.386 13.062 127.062 13.3357 128.747 13.5773C129.055 13.6256 129.071 13.7705 129.12 16.395L129.152 19.1805L126.122 16.1213L123.076 13.062H121.828C121.132 13.062 120.564 13.1264 120.564 13.223Z" fill="white"/>
<path d="M183.742 13.609C184.017 13.8988 185.119 15.7989 186.188 17.8277C187.242 19.8566 188.181 21.5312 188.279 21.5634C188.36 21.5956 188.813 20.8871 189.267 20.0015C189.704 19.0998 190.109 18.3752 190.158 18.3752C190.19 18.3752 190.596 19.0998 191.065 19.9854C191.519 20.8871 191.973 21.5795 192.054 21.5634C192.135 21.5312 192.977 19.7761 193.917 17.6667C195.327 14.5268 195.732 13.77 196.105 13.5607C196.348 13.4158 196.558 13.2547 196.558 13.1742C196.558 13.0132 194.16 13.0293 194.063 13.2064C194.014 13.287 194.193 13.4319 194.452 13.5285C194.727 13.609 194.938 13.7217 194.938 13.7539C194.938 13.8505 192.508 19.5506 192.443 19.6312C192.394 19.6634 192.038 19.0676 191.616 18.3108L190.871 16.9421L191.697 15.3158C192.362 13.9793 192.605 13.6573 192.994 13.5124C193.836 13.2386 193.528 13.0615 192.183 13.0615C190.871 13.0615 190.515 13.2547 191.292 13.5446C191.681 13.6895 191.697 13.7217 191.487 14.2209C191.357 14.5107 191.082 15.1065 190.855 15.5573L190.434 16.3463L189.769 15.026L189.105 13.7056L189.51 13.5446C190.336 13.2386 189.931 13.0615 188.376 13.0615C186.804 13.0615 186.48 13.2064 187.29 13.5285C187.63 13.6734 187.971 14.1726 188.765 15.6862L189.818 17.6506L189.267 18.665C188.975 19.2286 188.667 19.6151 188.603 19.5506C188.408 19.3413 185.54 13.9149 185.54 13.7378C185.54 13.6573 185.718 13.5285 185.945 13.4802C186.772 13.2708 186.14 13.0615 184.681 13.0615H183.207L183.742 13.609Z" fill="white"/>
<path d="M50.9051 27.5654C50.627 27.6511 50.6911 27.7368 51.226 27.9296L51.9105 28.1652L51.8677 32.0854L51.8036 36.0055L51.226 36.0697C50.8837 36.1126 50.627 36.2411 50.627 36.3482C50.627 36.4553 51.5896 36.541 52.7662 36.541C54.0498 36.541 54.9055 36.4553 54.9055 36.3268C54.9055 36.1983 54.713 36.1126 54.4563 36.1126C53.3652 36.1126 53.1941 35.7913 53.1941 33.8633V32.0425H54.3279C55.5045 32.0425 55.9752 32.2996 55.9752 32.9422C55.9752 33.1564 56.0821 33.3278 56.1891 33.3278C56.3175 33.3278 56.403 32.6423 56.403 31.7212C56.403 30.136 56.1463 29.6005 55.8896 30.6501C55.7185 31.3356 55.0767 31.6569 54.0926 31.5712L53.3011 31.507V29.7933V28.0796L54.5632 28.0153C55.8468 27.951 56.617 28.3152 56.617 28.9578C56.617 29.1078 56.7239 29.3006 56.8309 29.3648C56.9592 29.4505 57.0448 29.0864 57.0448 28.4437V27.3726L54.1568 27.4155C52.5737 27.4155 51.119 27.5012 50.9051 27.5654Z" fill="white"/>
<path d="M109.368 30.0993C109.254 30.4151 109.073 30.9203 109.005 31.2361L108.846 31.8045L109.527 31.2361C110.344 30.5204 111.434 30.2677 111.82 30.7098C112.025 30.9203 112.093 31.7834 112.048 33.5096C111.979 35.8253 111.934 36.0147 111.525 36.0779C111.275 36.12 110.98 36.2463 110.867 36.3516C110.73 36.4568 111.457 36.541 112.661 36.541C113.864 36.541 114.591 36.4568 114.477 36.3516C114.341 36.2463 114.046 36.12 113.796 36.0779C113.365 36.0147 113.342 35.8253 113.274 33.3412C113.228 30.8151 113.228 30.6677 113.683 30.5414C114.409 30.3309 115.454 30.6256 115.613 31.0887C115.862 31.7834 116.18 31.5308 116.18 30.6467C116.18 29.8467 116.158 29.8257 115.59 30.0151C115.272 30.1414 113.978 30.2256 112.729 30.2256C110.912 30.2256 110.344 30.1625 110.027 29.8888C109.64 29.552 109.595 29.5731 109.368 30.0993Z" fill="white"/>
<path d="M61.7384 30.1554C60.4225 30.8456 59.7969 31.8697 59.7969 33.3392C59.7969 36.1891 62.6445 37.8812 65.19 36.5231C66.506 35.8106 67.1316 34.8087 67.1316 33.3392C67.1316 32.5154 67.0021 31.9588 66.6354 31.4244C66.0529 30.5116 64.5213 29.6655 63.4642 29.6655C63.0328 29.6655 62.2562 29.8882 61.7384 30.1554ZM64.8017 30.5561C65.6215 31.2018 65.9019 32.1369 65.7941 33.8068C65.7078 35.1426 65.6431 35.3653 65.0174 35.9219C64.0467 36.8125 62.8818 36.8125 61.911 35.9219C61.307 35.3653 61.2207 35.1426 61.1344 33.8513C60.9834 31.4912 61.8894 30.1331 63.5937 30.1108C63.9604 30.1108 64.5213 30.3112 64.8017 30.5561Z" fill="white"/>
<path d="M102.25 32.3352C101.51 33.7997 100.86 35.1996 100.771 35.4581C100.703 35.7165 100.367 36.0611 100.031 36.2334C99.4481 36.5349 99.4929 36.5349 100.883 36.5349C102.093 36.5349 102.25 36.4919 101.846 36.298C101.219 36.018 101.219 35.975 101.779 34.7473C102.205 33.7782 102.227 33.7566 103.236 33.7566C104.133 33.7566 104.289 33.8212 104.491 34.3597C105.007 35.6734 105.007 36.1042 104.446 36.3196C104.02 36.4919 104.289 36.5349 105.589 36.5349C107.136 36.5565 107.226 36.5349 106.777 36.2334C106.464 36.018 105.836 34.7473 105.029 32.7875C104.334 31.0645 103.707 29.6646 103.662 29.6646C103.595 29.6646 102.967 30.8706 102.25 32.3352ZM103.639 32.1413L103.998 33.1105H103.191C102.541 33.1105 102.429 33.0459 102.564 32.7228C102.653 32.529 102.833 32.0983 102.945 31.7537C103.057 31.4306 103.191 31.1722 103.236 31.1722C103.281 31.1722 103.46 31.6029 103.639 32.1413Z" fill="white"/>
<path d="M125.956 30.1486C124.865 30.731 123.975 32.1421 123.975 33.3292C123.975 34.5387 124.865 35.9498 125.979 36.5322C127.983 37.5401 130.343 36.8681 131.278 35.0091C131.545 34.4715 131.768 33.71 131.768 33.3292C131.768 32.9484 131.545 32.1869 131.278 31.6493C130.343 29.7902 127.938 29.1183 125.956 30.1486ZM129.074 30.4174C130.254 31.0221 130.788 33.4636 130.12 35.0987C129.697 36.1066 128.962 36.577 127.804 36.577C126.624 36.577 125.912 35.9274 125.533 34.5387C124.754 31.6269 126.825 29.2303 129.074 30.4174Z" fill="white"/>
<path d="M70.0761 29.9406C70.5357 30.1698 70.5576 30.3302 70.5576 32.691C70.5576 36.3124 71.061 37 73.6436 37C74.5191 37 74.8474 36.8854 75.4164 36.3353L76.1387 35.6706L76.2043 33.0119C76.2919 30.399 76.2919 30.3302 76.8609 30.0093C77.43 29.6884 77.4081 29.6884 76.0949 29.6655C74.6066 29.6655 74.4096 29.7801 75.2851 30.1239L75.8542 30.3531L75.7666 32.8973C75.7009 35.3497 75.6791 35.4643 75.0881 35.9915C74.4315 36.5874 73.5342 36.702 72.6587 36.2895C71.9146 35.9227 71.827 35.6248 71.6957 32.8285L71.5863 30.3531L72.1772 30.1239C72.4836 30.0093 72.7462 29.8489 72.7462 29.7801C72.7462 29.7114 72.024 29.6655 71.1704 29.6884C69.8572 29.6884 69.6602 29.7343 70.0761 29.9406Z" fill="white"/>
<path d="M79.5204 29.8912C79.5856 30.004 79.8249 30.1169 80.0642 30.1169C80.608 30.1169 80.7168 30.5457 80.7168 32.825C80.7168 35.5105 80.5863 36.0973 79.8902 36.3681C79.3899 36.5712 79.5639 36.6164 80.9343 36.6164C82.5223 36.6164 82.544 36.6164 81.8697 36.3004L81.1519 35.9845V33.502V31.0422L83.9797 34.0211L86.7859 37L86.8076 33.6826V30.3651L87.4167 30.0266C87.9823 29.6881 87.9605 29.6881 86.4813 29.6881C85.4154 29.6655 85.0674 29.7332 85.2849 29.8912C85.459 30.004 85.7852 30.1169 86.0028 30.1169C86.3291 30.1169 86.3726 30.3877 86.3726 32.5316V34.9463L83.958 32.3059L81.5434 29.6655H80.4775C79.8032 29.6655 79.4334 29.7558 79.5204 29.8912Z" fill="white"/>
<path d="M90.0508 29.8721C90.0508 29.9829 90.2756 30.1158 90.5678 30.1601C91.0399 30.2266 91.0624 30.3152 91.1298 32.9961C91.1973 35.6326 91.1748 35.7656 90.6802 36.1422C90.1857 36.5189 90.2306 36.541 92.5236 36.541C94.5469 36.541 95.0415 36.4745 95.8957 36.0314C97.2221 35.3889 98.0314 33.9045 97.8066 32.553C97.6267 31.4673 96.75 30.3817 95.7384 29.9829C94.9066 29.6284 90.0508 29.5398 90.0508 29.8721ZM94.7042 30.3374C95.8957 30.8691 96.5701 31.8883 96.5701 33.1733C96.5701 34.3697 96.0756 35.3224 95.2213 35.7656C94.4345 36.1644 92.9508 36.2087 92.5686 35.832C92.2764 35.544 92.1639 30.3152 92.4562 30.0493C92.726 29.7613 93.7601 29.8942 94.7042 30.3374Z" fill="white"/>
<path d="M118.715 29.8867C118.778 29.9978 118.99 30.1089 119.16 30.1089C119.393 30.1089 119.456 30.6421 119.456 32.9972V35.8856L118.884 36.1522C118.291 36.4188 118.291 36.4188 119.202 36.5077C119.69 36.5521 120.452 36.5521 120.897 36.5077L121.682 36.4188L121.109 36.1522L120.516 35.8856V33.1083C120.516 30.3311 120.516 30.3089 121.046 30.1089C121.893 29.7756 121.682 29.6646 120.071 29.6646C119.139 29.6646 118.63 29.7534 118.715 29.8867Z" fill="white"/>
<path d="M133.602 29.7801C133.602 29.8489 133.851 30.0093 134.169 30.1239C134.736 30.3302 134.736 30.3531 134.736 33.1952V36.0603L134.124 36.4041C133.511 36.7479 133.556 36.7479 135.19 36.7479C136.869 36.725 136.869 36.725 136.166 36.4041L135.417 36.0832V33.6078V31.1553L138.276 34.0662C139.842 35.6935 141.181 37 141.227 37C141.272 37 141.317 35.5102 141.317 33.6766V30.3761L141.953 30.0323C142.543 29.6884 142.52 29.6884 141 29.6655C139.525 29.6655 139.139 29.9406 140.296 30.1698C140.705 30.2385 140.75 30.4448 140.818 32.4847C140.864 33.7912 140.795 34.708 140.659 34.708C140.546 34.708 139.388 33.562 138.118 32.1868L135.78 29.6655H134.691C134.101 29.6655 133.602 29.7114 133.602 29.7801Z" fill="white"/>
</svg>
