<svg width="389" height="72" viewBox="0 0 389 72" fill="none" xmlns="http://www.w3.org/2000/svg">
<path d="M0.660407 0.475618C-0.242149 1.1897 -0.219585 2.33222 0.728099 3.16531L1.42758 3.78418H35.6119H69.7962L70.4506 3.28432C71.308 2.64165 71.3983 1.14209 70.6085 0.428012C70.1121 -0.00043455 69.0065 -0.00043455 35.6796 -0.00043455C1.33733 -0.00043455 1.26963 -0.00043455 0.660407 0.475618Z" fill="#275CDC"/>
<path d="M2.60661 10.8691C2.26768 11.0484 2.01913 11.3847 1.97394 11.7433C1.86096 12.6175 2.60661 12.9986 5.56663 13.6262C6.94496 13.8952 8.39107 14.3211 8.7752 14.5453C9.20451 14.7919 12.5035 18.8491 17.1356 24.8117C21.3383 30.2363 26.1964 36.4903 27.9362 38.7095C31.3256 43.0581 31.4837 43.4168 30.6477 44.7617C30.0376 45.7256 12.4809 66.1015 11.803 66.6395C10.6506 67.5362 8.57184 68.2535 5.47625 68.8811C1.97394 69.5536 1.29607 69.9346 1.56722 70.9658C1.6576 71.302 1.95134 71.6382 2.22249 71.7279C2.49363 71.84 8.88818 71.9072 16.4125 71.8848C31.0318 71.8624 30.8511 71.8848 30.8511 70.7864C30.8511 70.0691 30.241 69.8226 27.4617 69.307C23.2364 68.5673 22.0162 68.0517 21.4061 66.774C20.7057 65.3394 22.3325 62.1788 28.7723 52.3831C32.6587 46.4653 32.3198 46.8912 33.1784 46.8912C33.6755 46.8912 34.1048 47.0706 34.3986 47.3844C35.8447 48.9759 48.1592 65.7653 48.453 66.5499C48.7693 67.4241 48.7693 67.5137 48.3852 67.9172C47.8881 68.4776 47.6847 68.5224 44.1146 68.9708C40.5897 69.3967 39.8893 69.6881 39.8893 70.7416C39.8893 71.1451 40.0248 71.5934 40.183 71.7055C40.3412 71.84 46.1934 71.9072 55.0509 71.9072C70.687 71.8848 70.3933 71.9072 70.3933 70.764C70.3933 69.7777 69.4217 69.3518 65.9871 68.8587C63.818 68.5449 62.4622 68.0517 61.0613 67.0878C60.2931 66.5723 57.446 63.0978 50.1251 53.728C44.6795 46.7567 40.0926 40.7045 39.9119 40.2786C39.3244 38.7991 39.5277 38.4629 45.8319 30.7295C53.9437 20.732 55.5932 18.7819 57.5816 16.9213C59.7056 14.9263 61.355 14.0745 64.7444 13.2452C67.3203 12.6175 67.9981 12.214 67.8626 11.4967C67.8174 11.295 67.3881 11.0036 66.9136 10.8243C66.1453 10.5329 65.2867 10.5329 60.4738 10.757C56.271 10.9588 53.7629 10.9812 50.3058 10.7794C44.4536 10.4656 42.4426 10.5553 42.0133 11.1381C41.1094 12.3485 41.9455 12.9313 45.38 13.4917C48.1141 13.9176 49.1309 14.2987 49.6957 15.1057C50.1702 15.7557 50.1477 16.3161 49.628 17.4369C48.8823 19.0508 38.9855 34.6522 38.285 35.2799C37.9235 35.6385 37.4264 35.9075 37.1778 35.9075C36.5677 35.9075 35.2798 34.7419 34.15 33.1279C33.6077 32.3658 30.964 28.6448 28.2752 24.8565C23.2815 17.8404 22.7167 16.9213 22.7167 15.7781C22.7167 14.4556 23.8464 13.9849 27.5747 13.7159C29.066 13.6262 30.5573 13.4245 30.8736 13.3124C32.1164 12.8417 31.7323 11.2053 30.2636 10.7122C29.8343 10.5777 27.3939 10.5777 22.9426 10.757C18.2879 10.9588 14.989 10.9588 11.9838 10.8018C6.06373 10.5104 3.28448 10.5329 2.60661 10.8691Z" fill="#275CDC"/>
<path d="M92.5712 8.41955C91.5093 10.8917 90.8124 13.2012 91.0447 13.5915C91.2106 13.8192 91.9075 13.3313 93.0025 12.3229C95.3254 10.046 97.3496 9.46045 99.6724 10.3062L100.535 10.6315L100.436 19.7068C100.369 25.7245 100.203 28.9448 99.9711 29.1725C99.772 29.3677 98.9092 29.693 98.0464 29.9207C95.0599 30.6688 96.155 30.9616 102.095 30.9941C106.409 31.0266 107.802 30.929 107.802 30.6037C107.802 30.1483 107.072 29.8231 106.01 29.8231C105.612 29.8231 104.949 29.5954 104.55 29.3026C103.82 28.8147 103.82 28.7496 103.82 19.7719C103.82 12.0952 103.887 10.664 104.318 10.3062C104.683 10.0134 105.446 9.94837 106.906 10.111C110.357 10.4688 111.054 10.8266 111.453 12.2904C111.917 13.9493 112.514 13.7867 112.879 11.9001C113.178 10.3387 112.879 7.05337 112.448 7.05337C112.315 7.05337 111.95 7.41118 111.652 7.86657L111.121 8.67978H102.991C96.0886 8.67978 94.8276 8.61472 94.3962 8.15933C94.0976 7.8991 93.8653 7.50876 93.8653 7.34612C93.8653 6.56545 93.1021 7.18348 92.5712 8.41955Z" fill="#111111"/>
<path d="M187 8.48867C187 8.78187 187.441 9.00991 188.198 9.14022C190.185 9.49858 190.469 9.66147 190.626 10.3782C190.973 11.7139 190.658 28.7847 190.279 29.1756C190.09 29.3711 189.333 29.6317 188.545 29.762C187.662 29.9249 187.158 30.1856 187.158 30.4788C187.158 30.8697 188.419 30.9674 195.135 31C201.063 31 203.176 30.9348 203.397 30.6416C203.807 30.1204 204.216 25.9178 203.87 25.9178C203.712 25.9178 202.987 26.5694 202.261 27.3513C200.685 29.0779 199.234 29.5666 196.207 29.4363L194.095 29.3385L194 19.7606C193.969 13.4405 194.032 10.0524 194.252 9.79178C194.442 9.56374 195.23 9.27054 195.987 9.14022C196.901 9.00991 197.406 8.78187 197.406 8.45609C197.406 8.06515 196.523 8 192.203 8C187.851 8 187 8.06515 187 8.48867Z" fill="#111111"/>
<path d="M305.332 8.23648C304.877 8.67567 305.885 9.35135 307.024 9.35135C309.431 9.35135 309.496 9.52027 309.366 16.3108C309.301 19.6554 309.171 24.1824 309.041 26.4122L308.845 30.4662L307.252 30.7027C305.95 30.8716 304.552 31.5473 305.137 31.6824C305.82 31.8851 315.579 31.8176 315.709 31.6149C315.937 31.2095 315.221 30.9054 313.464 30.6689C310.96 30.3649 310.927 30.1959 311.025 20.6689L311.122 12.6622L319.547 22.8311C324.947 29.3514 328.2 33 328.59 33C329.143 33 329.176 32.4932 329.176 22.0878C329.176 9.95946 329.241 9.6554 331.16 9.35135C331.778 9.21622 332.461 9.01351 332.689 8.87838C333.665 8.23648 332.396 8 328.167 8C324.524 8 323.646 8.10135 323.646 8.47297C323.646 8.97973 324.622 9.35135 326.118 9.35135C326.638 9.35135 327.257 9.52027 327.484 9.75676C327.94 10.2297 328.07 26.9189 327.614 26.9189C327.452 26.9189 323.874 22.6622 319.612 17.4595L311.903 8H308.715C306.959 8 305.43 8.10135 305.332 8.23648Z" fill="#111111"/>
<path d="M214.575 15.0542C213.071 15.887 212.287 16.5866 211.535 17.7526C210.218 19.8182 209.716 22.45 210.155 24.6821C210.594 26.8808 210.939 27.5138 212.475 29.2462C216.487 33.6437 224.23 32.6109 226.926 27.3139C229.183 22.9164 227.772 17.6194 223.729 15.0875C222.506 14.3212 221.848 14.1547 219.434 14.0547C216.738 13.9215 216.519 13.9548 214.575 15.0542ZM221.754 15.6871C223.196 16.62 223.854 17.5194 224.481 19.4517C225.233 21.817 224.982 26.0147 223.948 27.9802C222.161 31.4782 217.208 32.0446 214.795 29.013C213.697 27.6138 213.321 26.048 213.321 22.7831C213.321 20.4511 213.447 19.8182 214.199 18.2857C214.795 17.053 215.453 16.2535 216.331 15.7538C217.961 14.7543 220.28 14.721 221.754 15.6871Z" fill="#111111"/>
<path d="M266.726 14.6497C263.111 16.1238 261.032 19.1725 261 23.0922C261 27.4474 263.655 30.8647 267.781 31.7692C269.988 32.2382 273.539 31.9702 275.906 31.1662L277.601 30.5631L277.761 27.883C277.953 24.8343 278.145 24.3653 279.232 24.3653C279.712 24.3653 280 24.1643 280 23.8627C280 23.4272 279.328 23.3602 275.842 23.3602C272.355 23.3602 271.684 23.4272 271.684 23.8627C271.684 24.1978 272.003 24.3653 272.739 24.3653C273.315 24.3653 274.114 24.5998 274.498 24.9013C275.106 25.3368 275.202 25.7053 275.202 27.481C275.202 29.9601 275.01 30.2951 273.571 30.7306C271.108 31.4677 268.709 30.8982 266.822 29.1225C264.998 27.4139 264.327 25.7388 264.327 22.8577C264.327 19.9765 264.998 18.3014 266.822 16.5928C268.389 15.1187 270.276 14.5157 272.291 14.8172C273.539 15.0182 274.019 15.3197 275.426 16.8943C276.801 18.4019 277.153 18.6364 277.313 18.1674C277.441 17.8324 277.409 17.0283 277.249 16.3583C276.993 15.2862 276.769 15.0852 275.362 14.5827C273.123 13.7786 268.805 13.8121 266.726 14.6497Z" fill="#111111"/>
<path d="M343.963 14.4057C339.932 16.0086 338.033 18.6802 338 22.8211C337.967 29.4666 343.963 33.5074 350.824 31.4703C353.422 30.7022 355.854 28.1976 356.62 25.5261C357.986 20.8508 355.554 15.9753 351.157 14.4725C349.425 13.8714 345.395 13.838 343.963 14.4057ZM350.491 15.7415C352.89 17.3444 353.955 20.0494 353.722 23.8897C353.422 28.4314 351.191 31.0028 347.56 31.0028C343.563 31.0028 341.398 28.2644 341.364 23.1551C341.331 19.1811 342.863 16.1756 345.461 15.2072C346.761 14.7063 349.392 14.9734 350.491 15.7415Z" fill="#111111"/>
<path d="M118.333 15.31C118.333 15.465 118.833 15.7129 119.433 15.8679L120.5 16.1159V22.9352V29.7234L119.267 30.0024C118.567 30.1574 118 30.4674 118 30.6533C118 30.9323 119.133 31.0253 121.967 30.9943C126.7 30.9633 127.533 30.6533 124.567 30.0644L123.633 29.8474L123.733 26.6858L123.833 23.5241H128.5H133.167L133.267 26.4688C133.367 29.6614 133.1 30.1884 131.433 30.1884C131 30.1884 130.667 30.3744 130.667 30.6223C130.667 30.9323 131.533 31.0253 134.767 30.9943C137.233 30.9633 138.833 30.8393 138.833 30.6533C138.833 30.4674 138.467 30.2814 138 30.2504C136.367 30.0334 136.333 29.9094 136.333 22.8422C136.333 17.8207 136.433 16.1779 136.767 16.1159C136.967 16.0229 137.567 15.8989 138.1 15.8059C138.6 15.6819 139 15.465 139 15.31C139 14.907 131.433 14.907 131.2 15.279C130.967 15.5889 131.767 15.9299 132.7 15.9299C133.267 15.9299 133.333 16.1779 133.333 19.0296V22.1292H128.5H123.633L123.733 19.1226L123.833 16.1159L124.933 15.8679C127.067 15.341 126 15 122.167 15C119.9 15 118.333 15.124 118.333 15.31Z" fill="#111111"/>
<path d="M145.506 15.2564C145.506 15.412 146.012 15.6609 146.619 15.8165L147.698 16.0654L147.799 22.7237C147.833 26.5196 147.732 29.5065 147.563 29.6621C147.395 29.8177 146.754 30.0355 146.113 30.1599C145.506 30.2844 145 30.5022 145 30.6577C145 30.8444 148.002 30.9689 152.656 30.9689L160.313 31L160.684 29.4754C161.325 26.6752 160.954 25.8662 159.908 27.8575C159.031 29.5688 157.918 30.0355 154.748 30.0355C151.004 30.0355 150.903 29.9421 150.903 26.1151V23.0349H153.736C156.4 23.0349 156.636 23.0971 157.277 23.8438C157.682 24.3105 157.986 24.8706 157.986 25.0884C157.986 25.3373 158.121 25.524 158.289 25.524C158.66 25.524 158.964 20.5147 158.626 20.1102C158.492 19.9857 158.121 20.2969 157.851 20.8258C157.176 21.977 156.502 22.1637 153.432 22.0392L151.071 21.9459V18.9901V16.0343L153.938 15.9409C157.244 15.8476 158.863 16.4076 159.638 17.8389C160.245 19.0834 160.751 18.4923 160.616 16.6254L160.515 15.1009L153.027 15.0075C148.204 14.9764 145.506 15.0386 145.506 15.2564Z" fill="#111111"/>
<path d="M234 15.3208C234 15.4811 234.516 15.7057 235.128 15.834C237.061 16.1868 237.222 16.7642 237.19 22.3774C237.19 25.1038 237.061 27.9906 236.965 28.7925C236.771 30.0755 236.61 30.2679 235.611 30.5887C233.581 31.2623 234.258 31.5509 237.77 31.5189C241.251 31.5189 242.572 31.0698 240.284 30.6849C239.639 30.5887 238.963 30.3321 238.737 30.1075C238.254 29.6264 237.964 18.5283 238.447 18.5283C238.608 18.5283 241.702 21.5434 245.279 25.2642C248.856 28.9849 251.917 32 252.078 32C252.239 32 252.368 28.5679 252.368 24.334C252.368 16.1547 252.336 16.2509 254.076 15.834C255.977 15.3849 254.849 15 251.563 15C247.567 15 246.922 15.5453 250.274 16.0264C250.886 16.1226 250.918 16.4113 251.015 21.6396L251.079 27.1887L245.053 21.0943L238.995 15H236.514C235.128 15 234 15.1283 234 15.3208Z" fill="#111111"/>
<path d="M363.081 16.0946C363.638 16.674 365.867 20.4728 368.029 24.5291C370.159 28.5854 372.059 31.9335 372.256 31.9979C372.42 32.0623 373.337 30.6458 374.255 28.8752C375.14 27.0724 375.959 25.6237 376.057 25.6237C376.123 25.6237 376.942 27.0724 377.892 28.843C378.809 30.6458 379.727 32.0301 379.891 31.9979C380.055 31.9335 381.758 28.4245 383.659 24.2072C386.51 17.9296 387.329 16.4165 388.083 15.998C388.574 15.7082 389 15.3863 389 15.2254C389 14.9034 384.15 14.9356 383.954 15.2897C383.856 15.4507 384.216 15.7404 384.74 15.9336C385.297 16.0946 385.723 16.3199 385.723 16.3843C385.723 16.5775 380.808 27.9738 380.677 28.1347C380.579 28.1991 379.858 27.008 379.006 25.4949L377.499 22.7585L379.17 19.507C380.513 16.835 381.005 16.1911 381.791 15.9014C383.495 15.3541 382.873 15 380.153 15C377.499 15 376.778 15.3863 378.351 15.9658C379.137 16.2555 379.17 16.3199 378.744 17.3179C378.482 17.8974 377.925 19.0885 377.466 19.9899L376.614 21.5674L375.271 18.9275L373.927 16.2877L374.746 15.9658C376.417 15.3541 375.598 15 372.453 15C369.274 15 368.619 15.2897 370.257 15.9336C370.945 16.2233 371.633 17.2213 373.239 20.2475L375.369 24.175L374.255 26.2032C373.665 27.3299 373.042 28.1025 372.911 27.9738C372.518 27.5553 366.718 16.7062 366.718 16.3521C366.718 16.1911 367.079 15.9336 367.538 15.837C369.209 15.4185 367.931 15 364.982 15H362L363.081 16.0946Z" fill="#111111"/>
<path d="M91.5633 47.3995C91 47.5771 91.13 47.7547 92.2133 48.1542L93.6 48.6425L93.5133 56.7664L93.3833 64.8902L92.2133 65.0234C91.52 65.1121 91 65.3785 91 65.6005C91 65.8224 92.95 66 95.3333 66C97.9333 66 99.6667 65.8224 99.6667 65.5561C99.6667 65.2897 99.2767 65.1121 98.7567 65.1121C96.5467 65.1121 96.2 64.4463 96.2 60.4509V56.6776H98.4967C100.88 56.6776 101.833 57.2103 101.833 58.5421C101.833 58.986 102.05 59.3411 102.267 59.3411C102.527 59.3411 102.7 57.9206 102.7 56.0117C102.7 52.7266 102.18 51.6168 101.66 53.7921C101.313 55.2126 100.013 55.8785 98.02 55.7009L96.4167 55.5678V52.0164V48.465L98.9733 48.3318C101.573 48.1986 103.133 48.9533 103.133 50.285C103.133 50.5958 103.35 50.9953 103.567 51.1285C103.827 51.3061 104 50.5514 104 49.2196V47L98.15 47.0888C94.9433 47.0888 91.9967 47.2664 91.5633 47.3995Z" fill="#111111"/>
<path d="M211.068 52.8852C210.836 53.5281 210.464 54.5567 210.325 55.1996L210 56.3568L211.393 55.1996C213.065 53.7424 215.294 53.2281 216.084 54.1281C216.502 54.5567 216.641 56.3139 216.548 59.8283C216.409 64.5428 216.316 64.9285 215.48 65.0571C214.969 65.1428 214.365 65.4 214.133 65.6143C213.854 65.8286 215.341 66 217.802 66C220.263 66 221.749 65.8286 221.517 65.6143C221.238 65.4 220.635 65.1428 220.124 65.0571C219.241 64.9285 219.195 64.5428 219.056 59.4855C218.963 54.3424 218.963 54.0424 219.892 53.7852C221.378 53.3566 223.514 53.9567 223.839 54.8996C224.35 56.3139 225 55.7996 225 53.9995C225 52.3709 224.954 52.328 223.793 52.7138C223.142 52.9709 220.495 53.1424 217.941 53.1424C214.226 53.1424 213.065 53.0138 212.415 52.4566C211.625 51.7709 211.533 51.8137 211.068 52.8852Z" fill="#111111"/>
<path d="M113.971 53.0018C111.279 54.4133 110 56.5079 110 59.5132C110 65.3416 115.824 68.8022 121.029 66.0246C123.721 64.5675 125 62.5184 125 59.5132C125 57.8284 124.735 56.69 123.985 55.5972C122.794 53.7303 119.662 52 117.5 52C116.618 52 115.029 52.4553 113.971 53.0018ZM120.235 53.8214C121.912 55.1419 122.485 57.0543 122.265 60.4694C122.088 63.2015 121.956 63.6568 120.676 64.7952C118.691 66.6165 116.309 66.6165 114.324 64.7952C113.088 63.6568 112.912 63.2015 112.735 60.5605C112.426 55.7338 114.279 52.9562 117.765 52.9107C118.515 52.9107 119.662 53.3205 120.235 53.8214Z" fill="#111111"/>
<path d="M196.26 57.4372C194.747 60.4189 193.418 63.269 193.235 63.7952C193.097 64.3214 192.41 65.0229 191.722 65.3737C190.53 65.9876 190.622 65.9876 193.464 65.9876C195.939 65.9876 196.26 65.8999 195.435 65.5053C194.152 64.9353 194.152 64.8476 195.297 62.3482C196.168 60.375 196.214 60.3312 198.277 60.3312C200.11 60.3312 200.431 60.4627 200.844 61.5589C201.898 64.2337 201.898 65.1106 200.752 65.5491C199.881 65.8999 200.431 65.9876 203.09 65.9876C206.253 66.0315 206.436 65.9876 205.519 65.3737C204.878 64.9353 203.594 62.3482 201.944 58.358C200.523 54.8501 199.24 52 199.148 52C199.01 52 197.727 54.4555 196.26 57.4372ZM199.102 57.0426L199.835 59.0157H198.185C196.856 59.0157 196.627 58.8842 196.902 58.2265C197.085 57.8318 197.452 56.9549 197.681 56.2533C197.91 55.5956 198.185 55.0694 198.277 55.0694C198.369 55.0694 198.735 55.9463 199.102 57.0426Z" fill="#111111"/>
<path d="M245.069 52.988C242.829 54.179 241 57.0649 241 59.4927C241 61.9663 242.829 64.8522 245.114 66.0432C249.229 68.1046 254.074 66.7303 255.994 62.9283C256.543 61.8289 257 60.2714 257 59.4927C257 58.7139 256.543 57.1565 255.994 56.0571C254.074 52.255 249.137 50.8808 245.069 52.988ZM251.469 53.5376C253.891 54.7745 254.989 59.7675 253.617 63.1115C252.749 65.1729 251.24 66.1348 248.863 66.1348C246.44 66.1348 244.977 64.8064 244.2 61.9663C242.6 56.0113 246.851 51.1098 251.469 53.5376Z" fill="#111111"/>
<path d="M130.399 52.5625C131.339 53.0312 131.384 53.3594 131.384 58.1875C131.384 65.5937 132.413 67 137.695 67C139.485 67 140.157 66.7656 141.321 65.6406L142.798 64.2812L142.932 58.8437C143.111 53.5 143.111 53.3594 144.275 52.7031C145.439 52.0469 145.394 52.0469 142.708 52C139.665 52 139.262 52.2344 141.052 52.9375L142.216 53.4062L142.037 58.6094C141.903 63.625 141.858 63.8594 140.649 64.9375C139.306 66.1562 137.471 66.3906 135.681 65.5469C134.159 64.7969 133.98 64.1875 133.711 58.4687L133.488 53.4062L134.696 52.9375C135.323 52.7031 135.86 52.375 135.86 52.2344C135.86 52.0937 134.383 52 132.637 52.0469C129.952 52.0469 129.549 52.1406 130.399 52.5625Z" fill="#111111"/>
<path d="M150.026 52.4615C150.16 52.6923 150.653 52.9231 151.146 52.9231C152.267 52.9231 152.491 53.8 152.491 58.4615C152.491 63.9538 152.222 65.1538 150.788 65.7077C149.757 66.1231 150.116 66.2154 152.939 66.2154C156.211 66.2154 156.255 66.2154 154.866 65.5692L153.387 64.9231V59.8462V54.8154L159.213 60.9077L164.994 67L165.039 60.2154V53.4308L166.294 52.7385C167.459 52.0462 167.415 52.0462 164.367 52.0462C162.171 52 161.454 52.1385 161.902 52.4615C162.261 52.6923 162.933 52.9231 163.381 52.9231C164.053 52.9231 164.143 53.4769 164.143 57.8615V62.8L159.168 57.4L154.194 52H151.998C150.608 52 149.847 52.1846 150.026 52.4615Z" fill="#111111"/>
<path d="M171 52.4225C171 52.6481 171.462 52.9187 172.062 53.0089C173.031 53.1443 173.077 53.3247 173.215 58.7827C173.354 64.1506 173.308 64.4212 172.292 65.1881C171.277 65.9549 171.369 66 176.077 66C180.231 66 181.246 65.8647 183 64.9625C185.723 63.6544 187.385 60.6322 186.923 57.8806C186.554 55.6703 184.754 53.46 182.677 52.6481C180.969 51.9264 171 51.7459 171 52.4225ZM180.554 53.3698C183 54.4524 184.385 56.5274 184.385 59.1436C184.385 61.5794 183.369 63.5191 181.616 64.4212C180 65.2332 176.954 65.3234 176.169 64.5565C175.569 63.9701 175.339 53.3247 175.939 52.7834C176.492 52.197 178.616 52.4676 180.554 53.3698Z" fill="#111111"/>
<path d="M230.453 52.4523C230.572 52.6785 230.968 52.9047 231.285 52.9047C231.721 52.9047 231.84 53.9903 231.84 58.7851V64.6656L230.77 65.2084C229.66 65.7512 229.66 65.7512 231.364 65.9321C232.275 66.0226 233.702 66.0226 234.534 65.9321L236 65.7512L234.93 65.2084L233.821 64.6656V59.0113C233.821 53.357 233.821 53.3118 234.811 52.9047C236.396 52.2262 236 52 232.989 52C231.245 52 230.294 52.1809 230.453 52.4523Z" fill="#111111"/>
<path d="M260 52.2344C260 52.375 260.516 52.7031 261.172 52.9375C262.345 53.3594 262.345 53.4062 262.345 59.2187V65.0781L261.079 65.7812C259.812 66.4844 259.906 66.4844 263.283 66.4844C266.753 66.4375 266.753 66.4375 265.3 65.7812L263.752 65.125V60.0625V55.0469L269.661 61C272.897 64.3281 275.664 67 275.758 67C275.852 67 275.946 63.9531 275.946 60.2031V53.4531L277.259 52.75C278.478 52.0469 278.431 52.0469 275.289 52C272.241 52 271.443 52.5625 273.835 53.0312C274.679 53.1719 274.773 53.5937 274.914 57.7656C275.008 60.4375 274.867 62.3125 274.586 62.3125C274.351 62.3125 271.959 59.9687 269.333 57.1562L264.502 52H262.251C261.032 52 260 52.0937 260 52.2344Z" fill="#111111"/>
</svg>
