<svg width="177" height="25" viewBox="0 0 177 25" fill="none" xmlns="http://www.w3.org/2000/svg">
<path d="M31.4688 3.53711H37.8917C44.1114 3.53711 49.3554 6.17946 49.3554 13.2935C49.3554 19.5538 44.2333 22.9279 38.4608 22.9279H31.4688V3.53711ZM35.7372 18.944H37.973C41.9568 18.944 44.9244 17.4399 44.9244 13.0496C44.9244 9.22833 41.8755 7.48031 38.2576 7.48031H35.7372V18.944Z" fill="white"/>
<path d="M51.5488 9.59474H55.6546V11.7493H55.6953C56.5896 10.1232 57.7279 9.26953 59.5165 9.26953C59.9637 9.26953 60.4922 9.31018 60.8987 9.39149V13.1314C60.3296 12.9688 59.7604 12.8469 59.1507 12.8469C56.0205 12.8469 55.6546 14.6355 55.6546 17.3185V22.8878H51.5488V9.59474Z" fill="white"/>
<path d="M74.8425 20.6113C73.5416 22.278 71.3871 23.2537 69.2326 23.2537C65.1268 23.2537 61.834 20.53 61.834 16.2616C61.834 12.0338 65.1268 9.26953 69.2326 9.26953C73.0538 9.26953 75.4523 11.9932 75.4523 16.2616V17.5624H65.9398C66.265 19.1072 67.4439 20.1235 69.0293 20.1235C70.3708 20.1235 71.2651 19.4324 71.9562 18.4974L74.8425 20.6113ZM71.3464 14.7168C71.3871 13.3347 70.2895 12.1964 68.826 12.1964C67.0374 12.1964 66.0211 13.416 65.9398 14.7168H71.3464Z" fill="white"/>
<path d="M85.818 21.2207H85.7773C84.883 22.6435 83.2163 23.2126 81.5496 23.2126C79.0698 23.2126 76.834 21.7898 76.834 19.1068C76.834 14.5132 82.4032 14.4319 85.818 14.4319C85.818 12.9685 84.5984 12.0335 83.1756 12.0335C81.8341 12.0335 80.6959 12.6432 79.8422 13.6189L77.647 11.383C79.1511 9.96024 81.3463 9.22852 83.5008 9.22852C88.2977 9.22852 89.5579 11.6676 89.5579 16.0986V22.8468H85.7773V21.2207H85.818ZM84.8017 17.0743C83.5415 17.0743 80.7365 17.1962 80.7365 18.9849C80.7365 19.9605 81.7935 20.4483 82.6878 20.4483C84.3139 20.4483 85.818 19.5947 85.818 17.9686V17.0743H84.8017Z" fill="white"/>
<path d="M92.1602 9.59438H96.1034V11.383H96.144C96.6725 10.3261 98.014 9.22852 100.047 9.22852C101.917 9.22852 103.421 10.0009 104.152 11.627C105.128 9.91959 106.388 9.22852 108.38 9.22852C111.998 9.22852 113.096 11.7896 113.096 15.001V22.8468H108.949V15.123C108.949 13.9034 108.502 12.8465 107.161 12.8465C105.291 12.8465 104.681 14.188 104.681 15.8141V22.8468H100.575V15.8547C100.575 14.8791 100.616 12.8872 98.7457 12.8872C96.5912 12.8872 96.266 14.5539 96.266 16.2612V22.8874H92.1602V9.59438Z" fill="white"/>
<path d="M115.658 3.53711H119.927V10.7324H128.22V3.53711H132.488V22.9279H128.22V14.513H119.927V22.8872H115.658V3.53711Z" fill="white"/>
<path d="M141.715 9.26953C145.821 9.26953 149.114 11.9932 149.114 16.2616C149.114 20.4894 145.821 23.2537 141.715 23.2537C137.609 23.2537 134.316 20.53 134.316 16.2616C134.316 11.9932 137.609 9.26953 141.715 9.26953ZM141.715 19.595C143.748 19.595 145.008 18.2129 145.008 16.2209C145.008 14.229 143.788 12.8469 141.715 12.8469C139.682 12.8469 138.422 14.229 138.422 16.2209C138.422 18.2535 139.682 19.595 141.715 19.595Z" fill="white"/>
<path d="M158.503 13.4973C157.893 12.7656 157.121 12.359 156.105 12.359C155.414 12.359 154.601 12.6436 154.601 13.4566C154.601 15.4079 161.511 13.7412 161.511 18.8226C161.511 22.1967 158.219 23.213 155.373 23.213C153.503 23.213 151.47 22.7658 150.129 21.4243L152.609 18.66C153.381 19.595 154.275 20.1235 155.495 20.1235C156.43 20.1235 157.365 19.8796 157.365 19.1479C157.365 16.9933 150.454 18.8226 150.454 13.7412C150.454 10.611 153.259 9.26953 156.023 9.26953C157.771 9.26953 159.723 9.7167 160.942 11.0175L158.503 13.4973Z" fill="white"/>
<path d="M172.569 12.8873H168.951V17.3184C168.951 18.7412 169.114 19.7981 170.903 19.7981C171.35 19.7981 172.203 19.7575 172.569 19.4322V22.847C171.675 23.1722 170.659 23.2535 169.683 23.2535C166.959 23.2535 164.845 22.1152 164.845 19.229V12.8873H162.203V9.59457H164.845V5.65137H168.951V9.59457H172.569V12.8873Z" fill="white"/>
<path d="M24.1097 18.456C22.1178 19.5536 19.8413 20.1634 17.4022 20.1227C10.1663 19.9601 4.47505 14.147 4.597 7.07358C4.63765 4.67514 5.36938 2.43931 6.58893 0.569336C2.72703 2.72387 0.0846791 6.74837 0.00337598 11.4233C-0.15923 18.456 5.57264 24.3098 12.768 24.4724C17.5648 24.5537 21.752 22.1553 24.1097 18.456Z" fill="white"/>
<path d="M13.5384 0C11.5872 0 9.75785 0.487818 8.13179 1.38215C7.1155 3.04887 6.54638 4.95949 6.46508 6.91076C6.34312 13.0491 11.3433 18.1306 17.5629 18.2525C19.4329 18.2525 21.5468 17.8054 23.1729 16.911C24.1485 15.2443 24.7176 13.2931 24.7176 11.2198C24.7989 5.04079 19.7581 0 13.5384 0Z" fill="white"/>
<path d="M173.992 3.618C173.992 3.41474 174.033 3.21149 174.114 3.00823C174.195 2.80497 174.317 2.68301 174.439 2.52041C174.561 2.39845 174.724 2.2765 174.927 2.1952C175.09 2.11389 175.293 2.07324 175.496 2.07324C175.7 2.07324 175.903 2.11389 176.065 2.1952C176.228 2.2765 176.391 2.3578 176.553 2.52041C176.675 2.64236 176.797 2.80497 176.878 3.00823C176.96 3.21149 177 3.37409 177 3.618C177 3.82126 176.96 4.02452 176.878 4.22777C176.797 4.39038 176.675 4.55299 176.553 4.71559C176.431 4.83755 176.269 4.9595 176.065 5.0408C175.903 5.12211 175.7 5.16276 175.496 5.16276C175.293 5.16276 175.09 5.12211 174.927 5.0408C174.765 4.9595 174.602 4.8782 174.439 4.71559C174.317 4.59364 174.195 4.43103 174.114 4.22777C174.033 4.02452 173.992 3.82126 173.992 3.618ZM174.277 3.618C174.277 3.78061 174.317 3.98386 174.358 4.10582C174.439 4.26843 174.521 4.39038 174.602 4.51234C174.724 4.63429 174.846 4.71559 175.008 4.7969C175.171 4.8782 175.334 4.8782 175.496 4.8782C175.659 4.8782 175.822 4.83755 175.984 4.7969C176.147 4.71559 176.269 4.63429 176.391 4.51234C176.513 4.39038 176.594 4.26843 176.635 4.10582C176.716 3.94321 176.716 3.78061 176.716 3.618C176.716 3.45539 176.675 3.25214 176.635 3.13018C176.553 2.96758 176.472 2.84562 176.391 2.72367C176.269 2.60171 176.147 2.52041 175.984 2.43911C175.822 2.3578 175.659 2.3578 175.496 2.3578C175.334 2.3578 175.171 2.39845 175.008 2.43911C174.846 2.52041 174.724 2.60171 174.602 2.72367C174.48 2.84562 174.399 2.96758 174.358 3.13018C174.277 3.25214 174.277 3.41474 174.277 3.618ZM174.927 2.72367H175.578C175.984 2.72367 176.187 2.88627 176.187 3.21149C176.187 3.37409 176.147 3.49605 176.065 3.57735C175.984 3.65865 175.862 3.6993 175.74 3.6993L176.228 4.47168H175.943L175.456 3.6993H175.171V4.47168H174.887L174.927 2.72367ZM175.171 3.49605H175.456C175.496 3.49605 175.578 3.49605 175.618 3.49605C175.659 3.49605 175.74 3.49605 175.781 3.45539C175.822 3.45539 175.862 3.41474 175.903 3.37409C175.943 3.33344 175.943 3.29279 175.943 3.21149C175.943 3.17083 175.943 3.08953 175.903 3.04888C175.862 3.00823 175.862 2.96758 175.822 2.96758C175.781 2.96758 175.74 2.92692 175.7 2.92692C175.659 2.92692 175.618 2.92692 175.578 2.92692H175.212L175.171 3.49605Z" fill="white"/>
</svg>
