<svg width="163" height="46" viewBox="0 0 163 46" fill="none" xmlns="http://www.w3.org/2000/svg">
<path d="M49.4436 17.3877C44.7924 17.3877 41.3379 13.7977 41.3379 9.26087V9.21421C41.3379 4.72255 44.7247 1.04222 49.5791 1.04222C52.5595 1.04222 54.3432 2.03569 55.8093 3.48072L53.5981 6.03212C52.3789 4.92576 51.137 4.2484 49.5565 4.2484C46.8922 4.2484 44.9731 6.45961 44.9731 9.17055V9.21421C44.9731 11.9237 46.8471 14.1815 49.5565 14.1815C51.3628 14.1815 52.4692 13.4605 53.711 12.3316L55.9237 14.5654C54.298 16.3039 52.4918 17.3877 49.4436 17.3877Z" fill="white"/>
<path d="M65.6679 5.37728L63.5681 10.5026H67.7692L65.6679 5.37728ZM70.4546 17.1182L69.0096 13.5733H62.3263L60.8812 17.1182H57.3379L64.11 1.20173H67.3162L74.0898 17.1182H70.4546Z" fill="white"/>
<path d="M81.9148 17.3438C79.5215 17.3438 77.1056 16.5068 75.209 14.8134L77.2636 12.3539C78.6846 13.528 80.1763 14.273 81.9826 14.273C83.4035 14.273 84.263 13.7086 84.263 12.7829V12.7362C84.263 11.8556 83.7196 11.4056 81.0779 10.7267C77.8958 9.91386 75.8412 9.03329 75.8412 5.89635V5.8512C75.8412 2.9837 78.1442 1.08709 81.373 1.08709C83.676 1.08709 85.6403 1.80961 87.2419 3.09659L85.4371 5.71572C84.0357 4.74484 82.6599 4.15779 81.3263 4.15779C79.9957 4.15779 79.2957 4.76742 79.2957 5.53509V5.58025C79.2957 6.61887 79.9731 6.95755 82.7036 7.65599C85.9098 8.4929 87.7161 9.64442 87.7161 12.399V12.4442C87.7161 15.5826 85.3242 17.3438 81.9148 17.3438Z" fill="white"/>
<path d="M97.5481 4.51829V17.1172H94.071V4.51829H89.2617V1.31212H102.357V4.51829H97.5481Z" fill="white"/>
<path d="M10.8898 10.8906H1.32646V1.32718H10.8898V10.8906ZM11.6329 -8.34685e-05H0V11.6332L13.4159 22.1719H20.298L20.3367 8.63469L11.6329 -8.34685e-05Z" fill="white"/>
<path d="M21.5176 7.36038H31.081V16.9238H21.5176V7.36038ZM12.0703 14.6679L12.1106 28.2051H18.9915L32.4086 17.6664V6.03312H20.7757L12.0703 14.6679Z" fill="white" fill-opacity="0.9"/>
<path d="M23.8316 27.0748H11.1408V14.384H23.8316V27.0748ZM10.1571 12.623L4.99414 17.8363V33.7949H17.552L25.593 28.0597V12.623H10.1571Z" fill="white" fill-opacity="0.8"/>
<path d="M10.8898 35.2379H1.32646V25.6749H10.8898V35.2379ZM11.6329 24.3472H0V35.9805L11.5475 45.1572H19.9085V31.6424L11.6329 24.3472Z" fill="white" fill-opacity="0.7"/>
<path d="M46.0143 32.8477C43.8844 32.8477 42.3145 31.1723 42.3145 29.0424C42.3145 26.9336 43.8739 25.2161 46.046 25.2161C47.3841 25.2161 48.1849 25.6887 48.924 26.3857L48.355 26.9968C47.7333 26.4067 47.0379 25.9838 46.0354 25.9838C44.4022 25.9838 43.1785 27.3023 43.1785 29.0213C43.1785 30.7403 44.4128 32.0785 46.0354 32.0785C47.0484 32.0785 47.7123 31.6871 48.4182 31.0128L48.9661 31.5516C48.197 32.3314 47.354 32.8477 46.0143 32.8477Z" fill="white"/>
<path d="M53.6315 25.9847C51.9441 25.9847 50.7429 27.3334 50.7429 29.0223C50.7429 30.7082 51.9667 32.0795 53.6526 32.0795C55.3399 32.0795 56.5411 30.7292 56.5411 29.0419C56.5411 27.356 55.3174 25.9847 53.6315 25.9847ZM53.6315 32.8486C51.3857 32.8486 49.8789 31.0875 49.8789 29.0419C49.8789 26.9977 51.4067 25.2155 53.6526 25.2155C55.8984 25.2155 57.4051 26.9752 57.4051 29.0223C57.4051 31.0664 55.8758 32.8486 53.6315 32.8486Z" fill="white"/>
<path d="M62.7055 30.6981H62.6633L59.9749 26.7559V32.7227H59.1621V25.3424H60.0066L62.6949 29.369L65.3818 25.3424H66.2262V32.7227H65.3938V26.7453L62.7055 30.6981Z" fill="white"/>
<path d="M71.85 30.6981H71.8078L69.1195 26.7559V32.7227H68.3066V25.3424H69.1511L71.8394 29.369L74.5263 25.3424H75.3707V32.7227H74.5383V26.7453L71.85 30.6981Z" fill="white"/>
<path d="M83.4838 29.57C83.4838 31.721 82.251 32.8379 80.4056 32.8379C78.5812 32.8379 77.3379 31.721 77.3379 29.6332V25.3417H78.1718V29.5805C78.1718 31.1716 79.0132 32.0672 80.4266 32.0672C81.7874 32.0672 82.6514 31.2453 82.6514 29.6332V25.3417H83.4838V29.57Z" fill="white"/>
<path d="M90.8826 25.343H91.6939V32.7217H91.0301L86.2645 26.6706V32.7217H85.4531V25.343H86.2328L90.8826 31.2571V25.343Z" fill="white"/>
<path d="M94.6816 32.7217H93.8477V25.343H94.6816V32.7217Z" fill="white"/>
<path d="M99.6365 32.7217H98.7921V26.1106H96.3145V25.343H102.114V26.1106H99.6365V32.7217Z" fill="white"/>
<path d="M106.821 32.7217H105.978V29.8015L102.91 25.343H103.922L106.411 29.0323L108.921 25.343H109.888L106.821 29.791V32.7217Z" fill="white"/>
<path d="M117.484 26.2597L115.797 30.0228H119.16L117.484 26.2597ZM121.247 32.7217H120.35L119.486 30.7709H115.47L114.596 32.7217H113.742L117.105 25.2888H117.885L121.247 32.7217Z" fill="white"/>
<path d="M125.809 26.1116H123.532V29.1056H125.799C126.906 29.1056 127.695 28.5366 127.695 27.5777C127.695 26.6595 127 26.1116 125.809 26.1116ZM127.781 32.7227L125.64 29.8537H123.532V32.7227H122.699V25.3424H125.872C127.495 25.3424 128.538 26.217 128.538 27.5461C128.538 28.7789 127.695 29.4954 126.536 29.7077L128.803 32.7227H127.781Z" fill="white"/>
<path d="M133.035 32.7217H132.191V26.1106H129.713V25.343H135.513V26.1106H133.035V32.7217Z" fill="white"/>
<path d="M139.557 28.6315C141.202 28.9897 141.961 29.5918 141.961 30.7313C141.961 32.0048 140.905 32.8281 139.441 32.8281C138.271 32.8281 137.312 32.4368 136.426 31.6465L136.944 31.0369C137.711 31.7323 138.45 32.08 139.472 32.08C140.464 32.08 141.118 31.5622 141.118 30.8141C141.118 30.1187 140.749 29.7288 139.198 29.4022C137.502 29.0334 136.721 28.484 136.721 27.2617C136.721 26.0816 137.744 25.2372 139.146 25.2372C140.221 25.2372 140.991 25.5427 141.739 26.1448L141.255 26.7861C140.57 26.2276 139.883 25.9853 139.125 25.9853C138.164 25.9853 137.555 26.5136 137.555 27.188C137.555 27.8939 137.934 28.2853 139.557 28.6315Z" fill="white"/>
<path d="M45.2872 39.1676C46.9324 39.5259 47.691 40.128 47.691 41.2675C47.691 42.5409 46.6359 43.3643 45.1713 43.3643C44.0017 43.3643 43.0428 42.9729 42.1562 42.1826L42.6741 41.573C43.4417 42.2684 44.1808 42.6162 45.2029 42.6162C46.1948 42.6162 46.8481 42.0983 46.8481 41.3502C46.8481 40.6548 46.4793 40.265 44.9289 39.9383C43.2325 39.5695 42.4513 39.0201 42.4513 37.7979C42.4513 36.6178 43.4748 35.7733 44.8762 35.7733C45.951 35.7733 46.7216 36.0789 47.4698 36.681L46.9851 37.3222C46.3002 36.7638 45.6138 36.5214 44.8551 36.5214C43.8948 36.5214 43.2852 37.0498 43.2852 37.7241C43.2852 38.4301 43.6645 38.8214 45.2872 39.1676Z" fill="white"/>
<path d="M52.0193 43.2598H51.1749V36.6487H48.6973V35.8811H54.497V36.6487H52.0193V43.2598Z" fill="white"/>
<path d="M58.2166 36.7978L56.5293 40.5609H59.892L58.2166 36.7978ZM61.9798 43.2598H61.0826L60.2186 41.309H56.2026L55.3281 43.2598H54.4746L57.8373 35.8269H58.617L61.9798 43.2598Z" fill="white"/>
<path d="M68.5435 41.1825C68.5435 40.3712 67.8691 39.9061 66.5821 39.9061H64.252V42.5117H66.7311C67.848 42.5117 68.5435 42.0164 68.5435 41.1825ZM68.134 37.8409C68.134 37.1033 67.553 36.6292 66.4993 36.6292H64.252V39.1685H66.4361C67.4371 39.1685 68.134 38.7154 68.134 37.8409ZM68.9755 37.725C68.9755 38.6959 68.3869 39.1911 67.8059 39.444C68.6819 39.7074 69.3879 40.2117 69.3879 41.2352C69.3879 42.5117 68.3237 43.2598 66.7086 43.2598H63.4316V35.8811H66.5716C68.0272 35.8811 68.9755 36.5961 68.9755 37.725" fill="white"/>
<path d="M71.9452 43.2578H71.1113V35.8791H71.9452V43.2578Z" fill="white"/>
<path d="M74.1016 35.8791H74.9355V42.4886H79.0884V43.2578H74.1016V35.8791Z" fill="white"/>
<path d="M81.5312 43.2578H80.6973V35.8791H81.5312V43.2578Z" fill="white"/>
<path d="M83.5101 36.6282V35.8801H89.2661V36.4385L84.4809 42.5107H89.2661V43.2588H83.3535V42.7003L88.1266 36.6282H83.5101Z" fill="white"/>
<path d="M94.1034 36.7978L92.416 40.5609H95.7787L94.1034 36.7978ZM97.8664 43.2598H96.9693L96.1053 41.309H92.0893L91.2148 43.2598H90.3613L93.724 35.8269H94.5037L97.8664 43.2598Z" fill="white"/>
<path d="M101.16 43.2588H100.316V36.6478H97.8379V35.8801H103.638V36.6478H101.16V43.2588Z" fill="white"/>
<path d="M106.101 43.2578H105.268V35.8791H106.101V43.2578Z" fill="white"/>
<path d="M111.684 36.5218C109.997 36.5218 108.796 37.8705 108.796 39.5594C108.796 41.2453 110.019 42.6166 111.705 42.6166C113.393 42.6166 114.594 41.2664 114.594 39.579C114.594 37.8931 113.37 36.5218 111.684 36.5218ZM111.684 43.3857C109.438 43.3857 107.932 41.6246 107.932 39.579C107.932 37.5349 109.459 35.7527 111.705 35.7527C113.951 35.7527 115.458 37.5123 115.458 39.5594C115.458 41.6035 113.929 43.3857 111.684 43.3857Z" fill="white"/>
<path d="M122.646 35.8791H123.458V43.2578H122.794L118.028 37.2067V43.2578H117.217V35.8791H117.997L122.646 41.7932V35.8791Z" fill="white"/>
<path d="M131.496 43.2598H130.651V36.6487H128.174V35.8811H133.974V36.6487H131.496V43.2598Z" fill="white"/>
<path d="M138.639 36.6478H136.362V39.6417H138.629C139.736 39.6417 140.525 39.0727 140.525 38.1139C140.525 37.1957 139.83 36.6478 138.639 36.6478ZM140.611 43.2588L138.471 40.3898H136.362V43.2588H135.529V35.8786H138.702C140.325 35.8786 141.368 36.7531 141.368 38.0823C141.368 39.3151 140.525 40.0316 139.366 40.2438L141.633 43.2588H140.611Z" fill="white"/>
<path d="M149.177 40.1071C149.177 42.2581 147.944 43.375 146.099 43.375C144.275 43.375 143.031 42.2581 143.031 40.1703V35.8789H143.865V40.1177C143.865 41.7087 144.707 42.6043 146.12 42.6043C147.481 42.6043 148.345 41.7825 148.345 40.1703V35.8789H149.177V40.1071Z" fill="white"/>
<path d="M153.791 39.1676C155.436 39.5259 156.195 40.128 156.195 41.2675C156.195 42.5409 155.14 43.3643 153.675 43.3643C152.506 43.3643 151.547 42.9729 150.66 42.1826L151.178 41.573C151.946 42.2684 152.685 42.6162 153.707 42.6162C154.699 42.6162 155.352 42.0983 155.352 41.3502C155.352 40.6548 154.983 40.265 153.433 39.9383C151.736 39.5695 150.955 39.0201 150.955 37.7979C150.955 36.6177 151.979 35.7733 153.38 35.7733C154.455 35.7733 155.226 36.0789 155.974 36.681L155.489 37.3222C154.804 36.7638 154.118 36.5214 153.359 36.5214C152.399 36.5214 151.788 37.0498 151.788 37.7241C151.788 38.4301 152.168 38.8214 153.791 39.1676Z" fill="white"/>
<path d="M160.521 43.2598H159.677V36.6487H157.199V35.8811H162.999V36.6487H160.521V43.2598Z" fill="white"/>
</svg>
