<svg width="337" height="63" viewBox="0 0 337 63" fill="none" xmlns="http://www.w3.org/2000/svg">
<path d="M0.572127 1.02475C-0.20978 1.64337 -0.190232 2.63317 0.630769 3.3549L1.23675 3.89104H30.8514H60.4661L61.033 3.458C61.7758 2.90124 61.854 1.60213 61.1699 0.983509C60.7398 0.612335 59.782 0.612335 30.9101 0.612335C1.15856 0.612335 1.09991 0.612335 0.572127 1.02475Z" fill="#275CDC"/>
<path d="M2.25739 10.0289C1.96376 10.1842 1.74844 10.4755 1.70929 10.7862C1.61141 11.5436 2.25739 11.8737 4.82172 12.4174C6.0158 12.6505 7.2686 13.0194 7.60138 13.2136C7.97331 13.4272 10.8313 16.9421 14.8442 22.1077C18.4851 26.8071 22.6938 32.2251 24.201 34.1476C27.1373 37.915 27.2743 38.2257 26.55 39.3909C26.0215 40.2259 10.8117 57.8781 10.2244 58.3441C9.22611 59.1209 7.42521 59.7423 4.74342 60.286C1.70929 60.8686 1.12203 61.1988 1.35693 62.092C1.43523 62.3833 1.68971 62.6746 1.92461 62.7523C2.15951 62.8494 7.69926 62.9077 14.2178 62.8882C26.8828 62.8688 26.7262 62.8882 26.7262 61.9367C26.7262 61.3153 26.1977 61.1017 23.79 60.655C20.1294 60.0142 19.0724 59.5675 18.5438 58.4606C17.937 57.2178 19.3464 54.4797 24.9253 45.9934C28.2922 40.8667 27.9986 41.2357 28.7425 41.2357C29.1731 41.2357 29.545 41.3911 29.7995 41.6629C31.0523 43.0417 41.7207 57.5868 41.9752 58.2664C42.2492 59.0238 42.2492 59.1015 41.9165 59.451C41.4858 59.9365 41.3096 59.9753 38.2168 60.3637C35.1631 60.7327 34.5562 60.9851 34.5562 61.8978C34.5562 62.2474 34.6737 62.6358 34.8107 62.7329C34.9478 62.8494 40.0177 62.9077 47.6911 62.9077C61.2371 62.8882 60.9826 62.9077 60.9826 61.9173C60.9826 61.0628 60.1409 60.6939 57.1654 60.2666C55.2862 59.9948 54.1117 59.5675 52.8981 58.7325C52.2325 58.2859 49.7661 55.2759 43.4238 47.1586C38.7062 41.1192 34.7324 35.876 34.5758 35.507C34.0669 34.2253 34.243 33.934 39.7045 27.2344C46.7319 18.5734 48.1609 16.8839 49.8835 15.2721C51.7236 13.5438 53.1526 12.8058 56.0888 12.0873C58.3204 11.5436 58.9076 11.194 58.7902 10.5726C58.751 10.3978 58.3791 10.1454 57.968 9.99002C57.3025 9.73757 56.5586 9.73757 52.3891 9.93176C48.7482 10.1065 46.5753 10.126 43.5804 9.95118C38.5104 9.67931 36.7682 9.75699 36.3963 10.2619C35.6133 11.3105 36.3376 11.8154 39.313 12.3009C41.6816 12.6699 42.5624 13 43.0518 13.6991C43.4629 14.2623 43.4433 14.7478 42.9931 15.7187C42.3471 17.1169 33.7732 30.6328 33.1664 31.1765C32.8532 31.4872 32.4226 31.7202 32.2072 31.7202C31.6787 31.7202 30.5629 30.7104 29.5842 29.3122C29.1144 28.652 26.8241 25.4284 24.4947 22.1465C20.1686 16.0683 19.6792 15.2721 19.6792 14.2817C19.6792 13.1359 20.658 12.7281 23.8878 12.4951C25.1798 12.4174 26.4717 12.2427 26.7458 12.1456C27.8224 11.7378 27.4896 10.3201 26.2173 9.89292C25.8453 9.77641 23.7312 9.77641 19.8749 9.93176C15.8425 10.1065 12.9845 10.1065 10.381 9.9706C5.25237 9.71815 2.84464 9.73757 2.25739 10.0289Z" fill="#275CDC"/>
<path d="M80.1971 7.90677C79.2771 10.0484 78.6734 12.0492 78.8747 12.3874C79.0184 12.5846 79.6221 12.1619 80.5708 11.2884C82.5831 9.31576 84.3367 8.80852 86.3491 9.5412L87.0965 9.823L87.0103 17.6852C86.9528 22.8985 86.809 25.6883 86.6078 25.8855C86.4353 26.0546 85.6879 26.3364 84.9404 26.5337C82.3531 27.1818 83.3018 27.4354 88.4476 27.4636C92.1848 27.4918 93.3922 27.4073 93.3922 27.1255C93.3922 26.7309 92.7598 26.4491 91.8398 26.4491C91.4949 26.4491 90.9199 26.2519 90.575 25.9983C89.9425 25.5756 89.9425 25.5192 89.9425 17.7416C89.9425 11.0911 90 9.85118 90.3737 9.5412C90.6899 9.28758 91.3511 9.23122 92.616 9.37212C95.6058 9.6821 96.2095 9.99208 96.5545 11.2602C96.9569 12.6974 97.4744 12.5565 97.7906 10.922C98.0493 9.56938 97.7906 6.72321 97.4169 6.72321C97.3019 6.72321 96.9857 7.03319 96.7269 7.42771L96.267 8.13221H89.2238C83.2443 8.13221 82.1519 8.07585 81.7782 7.68133C81.5195 7.45589 81.3182 7.11773 81.3182 6.97683C81.3182 6.30051 80.657 6.83593 80.1971 7.90677Z" fill="#111111"/>
<path d="M162.002 7.96665C162.002 8.22065 162.384 8.41821 163.04 8.53111C164.761 8.84156 165.007 8.98267 165.143 9.60358C165.444 10.7607 165.171 25.5496 164.843 25.8883C164.679 26.0576 164.023 26.2834 163.34 26.3963C162.576 26.5374 162.139 26.7632 162.139 27.0172C162.139 27.3559 163.231 27.4405 169.05 27.4688C174.185 27.4688 176.016 27.4123 176.207 27.1583C176.562 26.7067 176.917 23.066 176.616 23.066C176.48 23.066 175.852 23.6304 175.223 24.3078C173.857 25.8036 172.601 26.2269 169.978 26.114L168.148 26.0294L168.066 17.7318C168.039 12.2565 168.094 9.32135 168.285 9.09557C168.449 8.898 169.132 8.644 169.787 8.53111C170.579 8.41821 171.017 8.22065 171.017 7.93842C171.017 7.59975 170.252 7.5433 166.509 7.5433C162.74 7.5433 162.002 7.59975 162.002 7.96665Z" fill="#111111"/>
<path d="M264.516 7.74818C264.122 8.12866 264.996 8.71401 265.982 8.71401C268.067 8.71401 268.124 8.86035 268.011 14.7432C267.954 17.6407 267.842 21.5625 267.729 23.4942L267.56 27.0063L266.179 27.2112C265.052 27.3575 263.84 27.9429 264.347 28.06C264.939 28.2356 273.393 28.177 273.506 28.0014C273.703 27.6502 273.083 27.3868 271.561 27.1819C269.392 26.9185 269.363 26.7722 269.448 18.5187L269.533 11.5822L276.831 20.3918C281.509 26.0405 284.327 29.2014 284.665 29.2014C285.144 29.2014 285.173 28.7624 285.173 19.7479C285.173 9.24083 285.229 8.97742 286.892 8.71401C287.427 8.59694 288.019 8.42133 288.216 8.30426C289.061 7.74818 287.962 7.5433 284.299 7.5433C281.143 7.5433 280.382 7.63111 280.382 7.95305C280.382 8.39207 281.227 8.71401 282.524 8.71401C282.974 8.71401 283.51 8.86035 283.707 9.06522C284.102 9.47497 284.214 23.9332 283.82 23.9332C283.679 23.9332 280.579 20.2455 276.888 15.7383L270.209 7.5433H267.447C265.925 7.5433 264.601 7.63111 264.516 7.74818Z" fill="#111111"/>
<path d="M185.891 13.6545C184.588 14.376 183.909 14.9821 183.257 15.9922C182.117 17.7816 181.682 20.0617 182.062 21.9954C182.442 23.9002 182.741 24.4486 184.072 25.9494C187.548 29.759 194.256 28.8643 196.591 24.2754C198.546 20.4657 197.324 15.8768 193.821 13.6834C192.762 13.0195 192.192 12.8752 190.101 12.7887C187.765 12.6732 187.575 12.7021 185.891 13.6545ZM192.11 14.2029C193.359 15.011 193.93 15.7902 194.473 17.4642C195.125 19.5133 194.907 23.1498 194.011 24.8526C192.463 27.8831 188.173 28.3737 186.081 25.7473C185.131 24.5352 184.805 23.1787 184.805 20.3503C184.805 18.33 184.914 17.7816 185.565 16.454C186.081 15.3862 186.652 14.6935 187.412 14.2606C188.824 13.3947 190.834 13.3659 192.11 14.2029Z" fill="#111111"/>
<path d="M231.072 13.3041C227.94 14.5811 226.139 17.2223 226.111 20.618C226.111 24.3911 228.411 27.3515 231.986 28.1351C233.898 28.5415 236.974 28.3093 239.025 27.6127L240.493 27.0903L240.632 24.7684C240.798 22.1272 240.964 21.7209 241.906 21.7209C242.322 21.7209 242.571 21.5468 242.571 21.2856C242.571 20.9083 241.99 20.8502 238.969 20.8502C235.949 20.8502 235.367 20.9083 235.367 21.2856C235.367 21.5758 235.644 21.7209 236.281 21.7209C236.78 21.7209 237.473 21.9241 237.805 22.1853C238.332 22.5626 238.415 22.8819 238.415 24.4201C238.415 26.5679 238.249 26.8581 237.002 27.2354C234.868 27.8739 232.79 27.3805 231.155 25.8423C229.575 24.3621 228.993 22.9109 228.993 20.4149C228.993 17.9188 229.575 16.4676 231.155 14.9874C232.512 13.7104 234.147 13.188 235.893 13.4492C236.974 13.6233 237.39 13.8845 238.609 15.2487C239.8 16.5547 240.105 16.7579 240.244 16.3515C240.355 16.0613 240.327 15.3647 240.188 14.7843C239.967 13.8555 239.773 13.6814 238.553 13.246C236.614 12.5495 232.873 12.5785 231.072 13.3041Z" fill="#111111"/>
<path d="M297.984 13.0927C294.492 14.4814 292.847 16.7958 292.818 20.3832C292.79 26.1403 297.984 29.6409 303.928 27.8762C306.179 27.2108 308.286 25.041 308.949 22.7266C310.133 18.6763 308.026 14.4524 304.217 13.1506C302.716 12.6298 299.225 12.6009 297.984 13.0927ZM303.64 14.2499C305.718 15.6386 306.641 17.982 306.439 21.309C306.179 25.2435 304.246 27.4711 301.1 27.4711C297.638 27.4711 295.762 25.0988 295.733 20.6725C295.704 17.2298 297.032 14.626 299.282 13.787C300.408 13.3531 302.688 13.5845 303.64 14.2499Z" fill="#111111"/>
<path d="M102.515 13.8761C102.515 14.0104 102.948 14.2252 103.468 14.3595L104.392 14.5743V20.482V26.3628L103.324 26.6045C102.717 26.7388 102.227 27.0073 102.227 27.1684C102.227 27.4101 103.208 27.4907 105.663 27.4638C109.764 27.437 110.486 27.1684 107.915 26.6582L107.107 26.4702L107.193 23.7312L107.28 20.9922H111.323H115.366L115.452 23.5432C115.539 26.3091 115.308 26.7656 113.864 26.7656C113.489 26.7656 113.2 26.9268 113.2 27.1416C113.2 27.4101 113.951 27.4907 116.752 27.4638C118.889 27.437 120.275 27.3295 120.275 27.1684C120.275 27.0073 119.957 26.8462 119.553 26.8193C118.138 26.6314 118.109 26.524 118.109 20.4014C118.109 16.0512 118.196 14.628 118.485 14.5743C118.658 14.4937 119.178 14.3863 119.64 14.3058C120.073 14.1983 120.419 14.0104 120.419 13.8761C120.419 13.527 113.864 13.527 113.662 13.8492C113.46 14.1178 114.153 14.4132 114.962 14.4132C115.452 14.4132 115.51 14.628 115.51 17.0985V19.7838H111.323H107.107L107.193 17.179L107.28 14.5743L108.233 14.3595C110.081 13.903 109.157 13.6076 105.836 13.6076C103.873 13.6076 102.515 13.715 102.515 13.8761Z" fill="#111111"/>
<path d="M126.055 13.8297C126.055 13.9645 126.494 14.1801 127.02 14.3149L127.955 14.5305L128.042 20.2988C128.072 23.5873 127.984 26.1749 127.838 26.3097C127.692 26.4445 127.137 26.6332 126.581 26.741C126.055 26.8488 125.617 27.0375 125.617 27.1722C125.617 27.334 128.218 27.4418 132.25 27.4418L138.883 27.4688L139.205 26.148C139.76 23.7221 139.438 23.0212 138.532 24.7463C137.773 26.2288 136.809 26.6332 134.062 26.6332C130.818 26.6332 130.731 26.5523 130.731 23.2369V20.5684H133.185C135.494 20.5684 135.698 20.6223 136.253 21.2692C136.604 21.6735 136.867 22.1587 136.867 22.3474C136.867 22.563 136.984 22.7247 137.13 22.7247C137.451 22.7247 137.714 18.385 137.422 18.0346C137.305 17.9268 136.984 18.1964 136.75 18.6546C136.166 19.6519 135.581 19.8136 132.922 19.7058L130.877 19.625V17.0643V14.5036L133.361 14.4227C136.224 14.3419 137.627 14.827 138.299 16.0669C138.825 17.1451 139.263 16.633 139.146 15.0157L139.058 13.6949L132.572 13.6141C128.393 13.5871 126.055 13.641 126.055 13.8297Z" fill="#111111"/>
<path d="M202.721 13.8854C202.721 14.0244 203.167 14.2189 203.698 14.33C205.373 14.6357 205.512 15.1359 205.485 19.9987C205.485 22.3607 205.373 24.8616 205.289 25.5563C205.122 26.6678 204.982 26.8345 204.117 27.1124C202.358 27.6959 202.944 27.946 205.987 27.9183C209.002 27.9183 210.147 27.5292 208.165 27.1958C207.606 27.1124 207.02 26.8901 206.825 26.6956C206.406 26.2788 206.155 16.6642 206.573 16.6642C206.713 16.6642 209.393 19.2763 212.492 22.4996C215.591 25.723 218.243 28.3351 218.382 28.3351C218.522 28.3351 218.633 25.3618 218.633 21.6938C218.633 14.6079 218.606 14.6913 220.113 14.33C221.76 13.941 220.783 13.6076 217.936 13.6076C214.474 13.6076 213.915 14.08 216.819 14.4968C217.349 14.5801 217.377 14.8302 217.461 19.3596L217.517 24.1669L212.296 18.8872L207.048 13.6076H204.898C203.698 13.6076 202.721 13.7187 202.721 13.8854Z" fill="#111111"/>
<path d="M314.546 14.5558C315.029 15.0578 316.959 18.3488 318.833 21.8629C320.678 25.3769 322.324 28.2775 322.494 28.3332C322.636 28.389 323.431 27.1619 324.226 25.628C324.992 24.0661 325.702 22.8111 325.787 22.8111C325.844 22.8111 326.554 24.0661 327.377 25.6001C328.172 27.1619 328.967 28.3611 329.109 28.3332C329.251 28.2775 330.727 25.2375 332.373 21.584C334.843 16.1455 335.552 14.8347 336.205 14.4721C336.631 14.2211 337 13.9422 337 13.8028C337 13.5239 332.799 13.5518 332.629 13.8586C332.543 13.998 332.856 14.249 333.31 14.4164C333.792 14.5558 334.161 14.751 334.161 14.8068C334.161 14.9741 329.903 24.847 329.79 24.9865C329.705 25.0423 329.08 24.0104 328.342 22.6996L327.036 20.3289L328.484 17.5121C329.648 15.1973 330.074 14.6395 330.755 14.3885C332.231 13.9143 331.692 13.6076 329.336 13.6076C327.036 13.6076 326.412 13.9422 327.774 14.4442C328.456 14.6953 328.484 14.751 328.115 15.6156C327.888 16.1176 327.405 17.1495 327.008 17.9304L326.27 19.297L325.106 17.0101L323.942 14.7231L324.652 14.4442C326.1 13.9143 325.39 13.6076 322.665 13.6076C319.911 13.6076 319.344 13.8586 320.763 14.4164C321.359 14.6674 321.955 15.5319 323.346 18.1536L325.191 21.5561L324.226 23.3131C323.715 24.2893 323.176 24.9586 323.062 24.847C322.722 24.4845 317.697 15.0857 317.697 14.7789C317.697 14.6395 318.009 14.4164 318.407 14.3327C319.854 13.9701 318.747 13.6076 316.193 13.6076H313.609L314.546 14.5558Z" fill="#111111"/>
<path d="M79.324 41.676C78.8359 41.8299 78.9486 41.9837 79.8871 42.3298L81.0884 42.7529L81.0133 49.7907L80.9007 56.8286L79.8871 56.944C79.2864 57.0209 78.8359 57.2517 78.8359 57.4439C78.8359 57.6362 80.5253 57.7901 82.59 57.7901C84.8425 57.7901 86.3441 57.6362 86.3441 57.4055C86.3441 57.1747 86.0062 57.0209 85.5557 57.0209C83.6411 57.0209 83.3408 56.444 83.3408 52.9828V49.7138H85.3305C87.3952 49.7138 88.2211 50.1753 88.2211 51.3291C88.2211 51.7137 88.4088 52.0213 88.5965 52.0213C88.8218 52.0213 88.9719 50.7907 88.9719 49.137C88.9719 46.291 88.5214 45.3296 88.071 47.214C87.7706 48.4447 86.6444 49.0216 84.9175 48.8677L83.5285 48.7524V45.6757V42.599L85.7434 42.4837C87.9959 42.3683 89.3473 43.0221 89.3473 44.1758C89.3473 44.445 89.535 44.7912 89.7227 44.9065C89.948 45.0604 90.0981 44.4066 90.0981 43.2528V41.3299L85.0302 41.4068C82.2521 41.4068 79.6994 41.5607 79.324 41.676Z" fill="#111111"/>
<path d="M182.853 46.4284C182.652 46.9853 182.33 47.8765 182.209 48.4334L181.928 49.4359L183.135 48.4334C184.583 47.171 186.514 46.7254 187.198 47.5052C187.56 47.8765 187.681 49.3988 187.6 52.4434C187.48 56.5277 187.399 56.8618 186.675 56.9732C186.233 57.0475 185.71 57.2703 185.508 57.4559C185.267 57.6416 186.554 57.7901 188.687 57.7901C190.819 57.7901 192.106 57.6416 191.905 57.4559C191.664 57.2703 191.141 57.0475 190.698 56.9732C189.934 56.8618 189.894 56.5277 189.773 52.1464C189.692 47.6908 189.692 47.4309 190.497 47.2081C191.785 46.8368 193.635 47.3566 193.917 48.1735C194.359 49.3988 194.923 48.9532 194.923 47.3938C194.923 45.9828 194.882 45.9457 193.877 46.2799C193.313 46.5027 191.02 46.6512 188.807 46.6512C185.589 46.6512 184.583 46.5398 184.02 46.0571C183.336 45.463 183.255 45.5002 182.853 46.4284Z" fill="#111111"/>
<path d="M98.7347 46.5294C96.4033 47.7523 95.2949 49.5668 95.2949 52.1704C95.2949 57.2197 100.34 60.2177 104.85 57.8114C107.181 56.5491 108.29 54.7739 108.29 52.1704C108.29 50.7108 108.06 49.7246 107.411 48.7779C106.379 47.1606 103.665 45.6615 101.792 45.6615C101.028 45.6615 99.652 46.056 98.7347 46.5294ZM104.162 47.2394C105.614 48.3834 106.111 50.0402 105.92 52.9988C105.767 55.3656 105.653 55.7601 104.544 56.7463C102.824 58.3242 100.76 58.3242 99.0405 56.7463C97.9703 55.7601 97.8175 55.3656 97.6646 53.0777C97.397 48.8962 99.0023 46.4899 102.022 46.4505C102.671 46.4505 103.665 46.8055 104.162 47.2394Z" fill="#111111"/>
<path d="M170.026 50.3719C168.715 52.955 167.564 55.4242 167.405 55.88C167.286 56.3358 166.69 56.9436 166.094 57.2475C165.062 57.7793 165.141 57.7793 167.603 57.7793C169.748 57.7793 170.026 57.7034 169.311 57.3615C168.199 56.8677 168.199 56.7917 169.192 54.6264C169.946 52.917 169.986 52.879 171.773 52.879C173.361 52.879 173.639 52.993 173.997 53.9427C174.91 56.2599 174.91 57.0196 173.917 57.3995C173.163 57.7034 173.639 57.7793 175.943 57.7793C178.683 57.8173 178.841 57.7793 178.047 57.2475C177.491 56.8677 176.379 54.6264 174.95 51.1696C173.719 48.1307 172.607 45.6615 172.527 45.6615C172.408 45.6615 171.296 47.7888 170.026 50.3719ZM172.488 50.03L173.123 51.7394H171.694C170.542 51.7394 170.343 51.6255 170.582 51.0557C170.74 50.7138 171.058 49.954 171.257 49.3463C171.455 48.7765 171.694 48.3206 171.773 48.3206C171.852 48.3206 172.17 49.0804 172.488 50.03Z" fill="#111111"/>
<path d="M212.308 46.5174C210.367 47.5492 208.783 50.0494 208.783 52.1526C208.783 54.2956 210.367 56.7957 212.348 57.8275C215.912 59.6133 220.11 58.4228 221.773 55.129C222.248 54.1765 222.644 52.8273 222.644 52.1526C222.644 51.478 222.248 50.1287 221.773 49.1763C220.11 45.8825 215.833 44.6919 212.308 46.5174ZM217.852 46.9936C219.951 48.0651 220.902 52.3907 219.714 55.2877C218.961 57.0735 217.654 57.9069 215.595 57.9069C213.496 57.9069 212.229 56.756 211.555 54.2956C210.169 49.1366 213.852 44.8904 217.852 46.9936Z" fill="#111111"/>
<path d="M112.969 46.1489C113.783 46.5549 113.822 46.8392 113.822 51.0219C113.822 57.4381 114.714 58.6564 119.289 58.6564C120.841 58.6564 121.422 58.4534 122.43 57.4787L123.71 56.3011L123.826 51.5904C123.981 46.961 123.981 46.8392 124.99 46.2707C125.998 45.7022 125.959 45.7022 123.632 45.6615C120.996 45.6615 120.647 45.8646 122.198 46.4737L123.206 46.8798L123.051 51.3874C122.934 55.7326 122.896 55.9356 121.849 56.8696C120.685 57.9254 119.096 58.1285 117.545 57.3975C116.226 56.7478 116.071 56.2199 115.838 51.2656L115.644 46.8798L116.691 46.4737C117.234 46.2707 117.7 45.9864 117.7 45.8646C117.7 45.7428 116.42 45.6615 114.908 45.7022C112.581 45.7022 112.232 45.7834 112.969 46.1489Z" fill="#111111"/>
<path d="M129.972 46.0614C130.088 46.2613 130.515 46.4612 130.942 46.4612C131.913 46.4612 132.107 47.2209 132.107 51.2593C132.107 56.0174 131.874 57.057 130.632 57.5368C129.739 57.8967 130.049 57.9767 132.495 57.9767C135.33 57.9767 135.368 57.9767 134.165 57.4169L132.884 56.8571V52.4589V48.1006L137.931 53.3785L142.939 58.6564L142.978 52.7787V46.9011L144.065 46.3013C145.075 45.7015 145.036 45.7015 142.396 45.7015C140.493 45.6615 139.872 45.7815 140.26 46.0614C140.571 46.2613 141.153 46.4612 141.542 46.4612C142.124 46.4612 142.202 46.941 142.202 50.7395V55.0178L137.892 50.3397L133.582 45.6615H131.68C130.476 45.6615 129.816 45.8215 129.972 46.0614Z" fill="#111111"/>
<path d="M148.141 46.0276C148.141 46.223 148.54 46.4574 149.06 46.5356C149.9 46.6528 149.94 46.8092 150.06 51.5376C150.18 56.1879 150.14 56.4223 149.26 57.0867C148.381 57.751 148.461 57.7901 152.539 57.7901C156.138 57.7901 157.017 57.6728 158.537 56.8913C160.896 55.758 162.335 53.1398 161.935 50.756C161.616 48.8412 160.056 46.9264 158.257 46.223C156.777 45.5977 148.141 45.4414 148.141 46.0276ZM156.417 46.8482C158.537 47.7861 159.736 49.5837 159.736 51.8502C159.736 53.9604 158.857 55.6408 157.337 56.4223C155.938 57.1257 153.299 57.2039 152.619 56.5396C152.099 56.0316 151.899 46.8092 152.419 46.3402C152.899 45.8322 154.738 46.0667 156.417 46.8482Z" fill="#111111"/>
<path d="M199.646 46.0534C199.749 46.2493 200.092 46.4453 200.367 46.4453C200.745 46.4453 200.848 47.3858 200.848 51.5397V56.634L199.921 57.1043C198.96 57.5745 198.96 57.5745 200.436 57.7313C201.225 57.8097 202.461 57.8097 203.182 57.7313L204.452 57.5745L203.525 57.1043L202.564 56.634V51.7356C202.564 46.8372 202.564 46.798 203.422 46.4453C204.795 45.8575 204.452 45.6615 201.843 45.6615C200.333 45.6615 199.509 45.8183 199.646 46.0534Z" fill="#111111"/>
<path d="M225.244 45.8646C225.244 45.9864 225.691 46.2707 226.26 46.4737C227.276 46.8392 227.276 46.8798 227.276 51.9153V56.9914L226.179 57.6006C225.082 58.2097 225.163 58.2097 228.088 58.2097C231.095 58.1691 231.095 58.1691 229.835 57.6006L228.495 57.032V52.6463V48.3011L233.614 53.4585C236.417 56.3417 238.814 58.6564 238.896 58.6564C238.977 58.6564 239.058 56.0168 239.058 52.7681V46.9204L240.196 46.3113C241.252 45.7022 241.212 45.7022 238.489 45.6615C235.848 45.6615 235.158 46.1489 237.23 46.5549C237.961 46.6768 238.042 47.0422 238.164 50.6564C238.246 52.9712 238.124 54.5955 237.88 54.5955C237.677 54.5955 235.605 52.5651 233.329 50.1285L229.145 45.6615H227.194C226.138 45.6615 225.244 45.7428 225.244 45.8646Z" fill="#111111"/>
</svg>
