<svg width="88" height="89" viewBox="0 0 88 89" fill="none" xmlns="http://www.w3.org/2000/svg">
<path d="M44.0217 0.735352C19.9379 0.735352 0.34375 20.3295 0.34375 44.4133C0.34375 68.4962 19.9379 88.0904 44.0217 88.0904C68.1046 88.0904 87.6988 68.4962 87.6988 44.4133C87.6988 20.3295 68.1046 0.735352 44.0217 0.735352V0.735352ZM44.0217 84.4507C21.944 84.4507 3.98345 66.4901 3.98345 44.4133C3.98345 22.3356 21.944 4.37505 44.0217 4.37505C66.0985 4.37505 84.0591 22.3356 84.0591 44.4133C84.0591 66.4901 66.0985 84.4507 44.0217 84.4507Z" fill="#275CDC"/>
<path d="M71.9961 21.2728L69.5274 18.5949C62.7215 11.8738 53.5512 8.01483 44.0216 8.01483C34.4912 8.01483 25.3208 11.8738 18.5149 18.5949L16.0462 21.2728C10.6236 27.8119 7.62305 35.949 7.62305 44.4133C7.62305 54.6054 11.989 64.4173 19.6019 71.3297L20.9502 72.5543L30.7201 61.7837L29.3741 60.5614C24.8037 56.4109 22.1826 50.5256 22.1826 44.4133C22.1826 39.1587 24.1039 34.0665 27.592 30.0746C28.0764 29.5202 28.5904 29.0008 29.1214 28.5032L39.6898 41.7549C39.3353 42.3311 39.0942 42.9764 38.9916 43.6653C38.5803 46.4381 40.5008 49.0296 43.2736 49.4425C43.527 49.4798 43.7805 49.4985 44.0317 49.4985C44.3831 49.4985 44.7276 49.4495 45.0674 49.378L47.1613 52.2028L50.0849 50.0342L48.12 47.3843C48.5951 46.7304 48.9279 45.9824 49.0499 45.1606C49.4613 42.3878 47.5407 39.7963 44.768 39.3834C44.0223 39.2722 43.2852 39.3414 42.5854 39.5482L31.9867 26.2584C35.5339 23.8962 39.7015 22.5744 44.0216 22.5744C50.2964 22.5744 56.2842 25.3075 60.4503 30.0746C63.9392 34.0665 65.8605 39.1587 65.8605 44.4133C65.8605 50.5186 63.3739 56.1916 58.8595 60.3873L57.5268 61.6259L67.4249 72.2806L68.7576 71.0404C76.1692 64.1514 80.4193 54.446 80.4193 44.4133C80.4193 35.949 77.4187 27.8119 71.9961 21.2728ZM25.624 61.9843L20.7348 67.3743C14.6948 61.248 11.2627 52.9788 11.2627 44.4133C11.2627 36.91 13.8566 29.6734 18.6043 23.8317L20.3507 25.5781L23.7719 29C20.388 33.4336 18.5429 38.8438 18.5429 44.4133C18.5429 50.9463 21.1026 57.2537 25.624 61.9843ZM26.1846 26.2646L21.0536 21.1328C21.4626 20.7301 21.9042 20.3693 22.3319 19.9898L26.8572 25.6644C26.6356 25.8681 26.4 26.0531 26.1846 26.2646ZM44.2323 42.9842C45.0199 43.1016 45.5665 43.838 45.4491 44.6256C45.3924 45.0074 45.191 45.3441 44.8807 45.5734C44.5713 45.8036 44.1872 45.9008 43.8101 45.8417C43.0216 45.7251 42.475 44.9879 42.5924 44.2011C42.6492 43.8185 42.8506 43.4818 43.1608 43.2525C43.4127 43.0659 43.7105 42.9679 44.0177 42.9679C44.0892 42.9679 44.1607 42.9733 44.2323 42.9842ZM44.0216 18.9347C38.8703 18.9347 33.8956 20.5248 29.7015 23.3931L25.1777 17.7217C30.6695 13.8324 37.2452 11.6545 44.0216 11.6545C52.5878 11.6545 60.8632 15.0897 66.9887 21.1328L61.8577 26.2646C57.0991 21.5846 50.7015 18.9347 44.0216 18.9347ZM67.5804 67.1006L62.6251 61.7666C67.0144 57.0617 69.5002 50.8343 69.5002 44.4133C69.5002 38.8438 67.6543 33.4336 64.2704 29L69.4388 23.8317C74.1857 29.6734 76.7796 36.91 76.7796 44.4133C76.7796 52.9664 73.5271 60.9541 67.5804 67.1006Z" fill="#275CDC"/>
</svg>
