<svg width="78" height="77" viewBox="0 0 78 77" fill="none" xmlns="http://www.w3.org/2000/svg">
<path d="M65.8974 65.9517C73.3214 58.6823 77.4095 48.9737 77.4095 38.6123C77.4095 28.2496 73.3214 18.5389 65.8974 11.2723C58.6961 4.2223 49.1912 0.337891 39.1358 0.337891C29.081 0.337891 19.5761 4.2223 12.3749 11.2723C4.94946 18.5403 0.861328 28.2496 0.861328 38.6123C0.861328 48.9717 4.94946 58.6823 12.3749 65.9517C14.9851 68.5061 17.9259 70.666 21.1153 72.3735C21.1167 72.3749 21.1201 72.3762 21.1228 72.3776C21.1323 72.383 21.1425 72.3844 21.1521 72.3892C21.163 72.3946 21.1725 72.4014 21.1834 72.4076C21.5711 72.6147 21.9636 72.8157 22.3574 73.0085C23.0442 73.3458 23.7276 73.6558 24.3994 73.9358C24.4049 73.9379 24.4103 73.9413 24.4158 73.9433C24.4158 73.944 24.4165 73.9447 24.4165 73.9447H24.4185C24.4205 73.9454 24.4226 73.9467 24.4246 73.9474C24.5023 73.9801 24.5963 74.0135 24.7353 74.0619L24.8198 74.0926C24.8212 74.0932 24.8225 74.0926 24.8239 74.0932C25.2859 74.2799 25.7206 74.4489 26.1342 74.6036C26.1819 74.6206 26.2214 74.6315 26.2684 74.6485C26.8285 74.8536 27.3626 75.0376 27.8771 75.197C28.0747 75.257 28.2791 75.3074 28.4828 75.3558L28.8071 75.4382H28.8098L28.8269 75.443C29.6956 75.6862 30.5636 75.9254 31.4542 76.1087C31.4705 76.1114 31.4855 76.1169 31.5012 76.1203C31.6695 76.1543 31.8419 76.1741 32.0122 76.2013C32.2561 76.2402 32.498 76.2845 32.7426 76.3179L32.8285 76.3301L33.8232 76.4827C34.2982 76.5625 34.7731 76.6422 35.2575 76.6906C36.5534 76.8207 37.8582 76.8861 39.1358 76.8861C40.414 76.8861 41.7195 76.8207 43.0147 76.6906C43.0154 76.6899 43.0161 76.6899 43.0168 76.6899C43.489 76.6415 43.9536 76.5652 44.417 76.4875L45.5426 76.3151C45.9568 76.2586 46.3697 76.2013 46.7731 76.1203C47.6854 75.9349 48.5732 75.6876 49.461 75.4382L49.7881 75.3558C49.9918 75.3074 50.1942 75.259 50.389 75.1984C50.8346 75.0608 51.2898 74.9081 51.7763 74.7337C51.8022 74.7242 51.8274 74.716 51.854 74.7065C52.3725 74.5191 52.9298 74.3051 53.5587 74.0537C53.6548 74.021 53.7529 73.9869 53.8469 73.9474C53.8476 73.9474 53.8476 73.9467 53.8483 73.9467C53.8503 73.9461 53.8524 73.9454 53.8544 73.9447C54.4922 73.6776 55.1326 73.3812 55.7779 73.0685C55.831 73.0426 55.8835 73.0221 55.9366 72.9963C56.2187 72.8573 56.4988 72.7114 56.7781 72.5656C56.9035 72.5009 57.0254 72.4444 57.1515 72.3776C57.5051 72.1882 57.8438 71.9722 58.1912 71.7719C60.1972 70.6156 62.1084 69.2979 63.8799 67.7927C64.5728 67.204 65.246 66.5901 65.8974 65.9517ZM61.4222 65.671C61.0482 65.9797 60.6673 66.2801 60.281 66.5731C60.0316 66.7625 59.7815 66.9506 59.5267 67.1332C59.152 67.4023 58.769 67.6585 58.3841 67.912C58.117 68.0884 57.8526 68.269 57.5794 68.4387C57.1147 68.7269 56.6391 68.9974 56.1615 69.2638C55.9707 69.3701 55.7874 69.4852 55.5946 69.5881C55.5932 69.5895 55.5912 69.5888 55.5891 69.5902C55.5387 69.6167 55.4883 69.6413 55.4379 69.6678C55.0795 69.8572 54.715 70.0392 54.3457 70.217C53.9893 70.3901 53.6316 70.5468 53.2739 70.7055C53.0225 70.8159 52.7813 70.9304 52.5196 71.0387L52.2675 71.1307C52.2662 71.1307 52.2655 71.1321 52.2641 71.1321L52.2614 71.1334C51.1944 71.5647 50.3018 71.887 49.4515 72.1486C49.4508 72.1493 49.4501 72.15 49.4488 72.15V72.1507C49.318 72.1909 49.1837 72.2222 49.0502 72.2536C48.916 72.2863 48.7817 72.3169 48.6482 72.3531C48.7081 72.291 48.7654 72.2202 48.8246 72.1575C48.9977 71.9749 49.1674 71.7828 49.337 71.5906C49.521 71.3821 49.7036 71.1716 49.8835 70.9522C50.0477 70.7519 50.2092 70.5447 50.3706 70.3349C50.5498 70.1012 50.7277 69.8627 50.9035 69.6174C51.0574 69.4021 51.2094 69.182 51.3607 68.9572C51.5364 68.6962 51.7095 68.4284 51.8805 68.1552C52.0243 67.9263 52.1667 67.6953 52.3064 67.4582C52.4781 67.1686 52.6457 66.8709 52.8119 66.569C52.9448 66.3285 53.077 66.0873 53.2064 65.8393C53.3727 65.5204 53.5342 65.192 53.695 64.8609C53.8163 64.6101 53.9382 64.3614 54.0568 64.1046C54.2183 63.7516 54.3743 63.3871 54.5303 63.0219C54.638 62.7677 54.7477 62.5184 54.8526 62.2581C55.0107 61.867 55.1613 61.463 55.3118 61.0582C55.4065 60.8041 55.5033 60.5561 55.5953 60.2972C55.6144 60.2433 55.6348 60.1929 55.6539 60.1391C55.8814 60.2604 56.1158 60.3721 56.34 60.4975C56.5499 60.6153 56.7597 60.7339 56.9662 60.8552C57.7007 61.2872 58.4215 61.7355 59.1172 62.2138C59.141 62.2308 59.1669 62.2451 59.1908 62.2622C59.9062 62.7568 60.5923 63.2842 61.2635 63.8273C61.4495 63.9778 61.6314 64.1325 61.814 64.2865C62.0177 64.4589 62.2085 64.6435 62.4075 64.82C62.295 64.9202 62.1867 65.0264 62.0729 65.1252C61.859 65.3106 61.6409 65.4911 61.4222 65.671ZM20.0095 67.9944C19.5707 67.7083 19.136 67.416 18.7101 67.1093C18.4778 66.9424 18.2495 66.77 18.0213 66.597C17.624 66.2965 17.2323 65.9872 16.848 65.6696C16.6279 65.4884 16.4085 65.3072 16.1932 65.1205C16.0808 65.023 15.9752 64.9188 15.8648 64.8207C16.063 64.6449 16.2525 64.4609 16.4555 64.2899C16.6402 64.1339 16.8241 63.9772 17.0122 63.8245C17.6813 63.2835 18.3653 62.7575 19.078 62.2642C19.108 62.2431 19.1407 62.2247 19.1707 62.2036C19.8609 61.7294 20.575 61.2844 21.3033 60.8565C21.5105 60.7346 21.721 60.616 21.9309 60.4982C22.155 60.3721 22.3901 60.261 22.617 60.1391C22.6361 60.1929 22.6565 60.2426 22.6756 60.2958C22.7703 60.5636 22.8711 60.8204 22.9686 61.0828C23.1151 61.4745 23.2602 61.8663 23.4135 62.2458C23.5252 62.5238 23.6431 62.7916 23.759 63.0628C23.9061 63.4082 24.054 63.7537 24.2073 64.0875C24.3333 64.3628 24.4642 64.6292 24.5943 64.897C24.7462 65.209 24.8982 65.5197 25.0549 65.8209C25.1918 66.0839 25.3322 66.3394 25.4726 66.5936C25.632 66.8825 25.7928 67.1679 25.957 67.4453C26.1021 67.6912 26.2493 67.9304 26.3985 68.1675C26.5655 68.4339 26.7344 68.6949 26.9055 68.9497C27.0594 69.1786 27.2148 69.4028 27.3715 69.6222C27.5452 69.8647 27.7204 70.0998 27.8982 70.3315C28.0603 70.5427 28.2232 70.7519 28.3888 70.9535C28.5686 71.1729 28.7506 71.3828 28.9338 71.5906C29.1035 71.7828 29.2732 71.9742 29.4455 72.1561C29.5055 72.2195 29.5627 72.291 29.6227 72.3531C29.4892 72.3169 29.3549 72.2842 29.2214 72.2536C29.0892 72.2222 28.955 72.1909 28.8269 72.1507C28.8248 72.15 28.8228 72.1493 28.8207 72.1486C28.3526 72.0042 27.8641 71.8366 27.349 71.6479C26.9252 71.4925 26.4871 71.3256 26.004 71.1307L25.6395 70.9978C25.6388 70.9978 25.6374 70.9978 25.6368 70.9972C25.0658 70.758 24.4941 70.4936 23.9259 70.2184C23.5525 70.0378 23.1757 69.8491 22.7948 69.6494C22.7594 69.631 22.724 69.614 22.6879 69.5949C22.6865 69.5929 22.6851 69.5929 22.6817 69.5915C22.6804 69.5908 22.6783 69.5908 22.677 69.5902C22.6647 69.584 22.6538 69.5786 22.6415 69.5724C22.6347 69.569 22.6306 69.5663 22.6245 69.5636C21.9479 69.2011 21.2863 68.8114 20.6356 68.4053C20.4237 68.2738 20.2179 68.1314 20.0095 67.9944ZM25.8459 17.5503C25.9652 17.2253 26.0858 16.903 26.2091 16.5875C26.299 16.3593 26.3903 16.1337 26.4823 15.9103C26.6091 15.6023 26.7392 15.3011 26.8707 15.0034C26.964 14.7908 27.0581 14.5775 27.1541 14.3704C27.2965 14.0624 27.443 13.7647 27.5909 13.469C27.6802 13.2884 27.7687 13.1038 27.86 12.9273C28.0569 12.5485 28.2586 12.1833 28.463 11.8255C28.51 11.7438 28.5543 11.6566 28.6007 11.5762C28.85 11.149 29.1055 10.7388 29.3651 10.3422C29.4578 10.2005 29.5532 10.069 29.6472 9.93137C29.8217 9.67518 29.9974 9.42172 30.176 9.17916C30.285 9.0313 30.3967 8.89026 30.5078 8.74786C30.6754 8.53187 30.8444 8.31997 31.0154 8.11624C31.1326 7.97725 31.2505 7.84097 31.369 7.70743C31.5414 7.51324 31.7165 7.32587 31.8916 7.14395C32.0088 7.02267 32.1253 6.90139 32.2432 6.78624C32.4333 6.60091 32.6254 6.42716 32.8189 6.25682C32.9245 6.1628 33.0295 6.06468 33.1358 5.97611C33.3892 5.76488 33.6454 5.56865 33.9037 5.38401C33.952 5.34926 33.999 5.30838 34.0474 5.27499C34.3547 5.06105 34.6647 4.86822 34.9768 4.69243C35.0674 4.64133 35.1594 4.60045 35.2507 4.55275C35.4749 4.43488 35.699 4.32246 35.9259 4.22434C36.0404 4.17528 36.1555 4.13372 36.2707 4.08943C36.4771 4.0104 36.6836 3.93681 36.8907 3.87481C37.0127 3.83801 37.1346 3.80531 37.2566 3.77465C37.3513 3.7508 37.446 3.73581 37.5407 3.71537V21.2535C37.4985 21.2514 37.4556 21.2514 37.4133 21.2494C36.5153 21.2051 35.6227 21.1199 34.7342 21.0061C34.538 20.9809 34.3418 20.9523 34.1455 20.9237C33.2461 20.7922 32.3502 20.6361 31.4624 20.4338C31.401 20.4195 31.3404 20.4011 31.2791 20.3868C30.4342 20.1892 29.5961 19.9521 28.7642 19.6897C28.5829 19.6325 28.401 19.5787 28.2211 19.518C27.3708 19.2353 26.528 18.9198 25.6933 18.5696C25.6334 18.5444 25.5741 18.5164 25.5141 18.4906C25.5414 18.4102 25.5673 18.3257 25.5952 18.2453C25.677 18.0102 25.7615 17.7806 25.8459 17.5503ZM41.3808 3.87481C41.588 3.93681 41.7937 4.0104 42.0002 4.08943C42.1153 4.13372 42.2312 4.17528 42.3456 4.22502C42.5719 4.32246 42.796 4.43488 43.0202 4.55207C43.1115 4.60045 43.2035 4.64133 43.2941 4.69243C43.6061 4.86822 43.9162 5.06105 44.2235 5.27499C44.2725 5.30906 44.3195 5.34994 44.3686 5.38469C44.6255 5.56934 44.8816 5.7642 45.1344 5.97542C45.2414 6.06468 45.347 6.16348 45.4533 6.2575C45.6461 6.42784 45.8383 6.60159 46.0277 6.78624C46.1456 6.90139 46.2621 7.02267 46.3793 7.14395C46.5551 7.32587 46.7295 7.51324 46.9025 7.70743C47.0211 7.84097 47.139 7.97725 47.2562 8.11624C47.4265 8.31997 47.5955 8.53119 47.7624 8.7465C47.8742 8.89026 47.9859 9.03198 48.0956 9.18052C48.2748 9.4224 48.4506 9.67655 48.625 9.93274C48.7184 10.069 48.8131 10.2005 48.905 10.3409C49.1646 10.7381 49.4208 11.1483 49.6702 11.5762C49.7179 11.6579 49.7622 11.7465 49.8099 11.8289C50.0129 12.1853 50.2139 12.5491 50.4102 12.9259C50.5028 13.1038 50.5914 13.2898 50.682 13.4724C50.8292 13.7674 50.975 14.0638 51.1167 14.3704C51.2128 14.5775 51.3068 14.7908 51.4009 15.0034C51.5324 15.3005 51.6618 15.6016 51.7885 15.9089C51.8812 16.1337 51.9725 16.3606 52.0631 16.5909C52.1858 16.903 52.305 17.2219 52.4229 17.5442C52.5081 17.7779 52.5946 18.0102 52.677 18.2487C52.705 18.3277 52.7302 18.4108 52.7574 18.4912C52.6982 18.5158 52.6402 18.5437 52.581 18.5682C51.7443 18.9198 50.8987 19.236 50.0463 19.5201C49.8692 19.5787 49.6913 19.6318 49.5135 19.6877C48.6775 19.9514 47.836 20.1899 46.987 20.3881C46.9278 20.4024 46.8698 20.4202 46.8112 20.4331C45.9228 20.6361 45.0261 20.7922 44.1247 20.9237C43.9298 20.9523 43.7342 20.9809 43.538 21.0061C42.6495 21.1199 41.757 21.2051 40.8582 21.2494C40.8153 21.2521 40.7724 21.2514 40.7301 21.2535V3.71537C40.8249 3.73581 40.9202 3.7508 41.0143 3.77465C41.1369 3.80531 41.2589 3.83801 41.3808 3.87481ZM52.4215 59.6826C52.3043 60.0028 52.1858 60.3196 52.0638 60.631C51.9732 60.862 51.8812 61.0902 51.7879 61.3158C51.6611 61.6224 51.5324 61.9229 51.4009 62.2193C51.3068 62.4318 51.2135 62.6458 51.1167 62.8529C50.975 63.1595 50.8292 63.4566 50.682 63.7516C50.5914 63.9335 50.5021 64.1202 50.4095 64.2981C50.2139 64.6749 50.0136 65.038 49.8099 65.3944C49.7629 65.4768 49.7179 65.5661 49.6702 65.6472C49.4202 66.0757 49.1646 66.4859 48.905 66.8831C48.8131 67.0235 48.7184 67.1543 48.6257 67.2906C48.4506 67.5475 48.2748 67.8016 48.0956 68.0442C47.9859 68.192 47.8748 68.3331 47.7638 68.4761C47.5955 68.6928 47.4258 68.9054 47.2548 69.1091C47.1383 69.2474 47.0218 69.3823 46.9039 69.5145C46.7302 69.7108 46.5537 69.8995 46.3765 70.0828C46.2614 70.2027 46.1462 70.3226 46.029 70.4364C45.8383 70.6224 45.6454 70.7975 45.4519 70.9685C45.3456 71.0619 45.2407 71.16 45.1344 71.2486C44.8796 71.4612 44.6221 71.6581 44.3631 71.8441C44.3161 71.8775 44.2705 71.9163 44.2241 71.949C43.9168 72.163 43.6061 72.3565 43.2934 72.5322C43.2042 72.5827 43.1135 72.6229 43.0236 72.6699C42.7981 72.7884 42.5725 72.9015 42.345 73.0003C42.2312 73.0494 42.1167 73.0903 42.0022 73.1339C41.7951 73.2136 41.588 73.2879 41.3795 73.3499C41.2582 73.3867 41.1369 73.4187 41.0156 73.4494C40.9209 73.4732 40.8255 73.4882 40.7301 73.5086V55.9699C40.7738 55.9719 40.8174 55.9712 40.861 55.9733C41.7576 56.0182 42.6495 56.1027 43.536 56.2165C43.7336 56.2417 43.9305 56.2703 44.1274 56.299C45.0275 56.4305 45.9234 56.5865 46.8112 56.7895C46.8698 56.8032 46.9284 56.8209 46.987 56.8345C47.8367 57.0328 48.6782 57.2713 49.5142 57.5349C49.6913 57.5908 49.8685 57.644 50.045 57.7026C50.898 57.986 51.7436 58.3028 52.581 58.6544C52.6402 58.6789 52.6982 58.7069 52.7574 58.7321C52.7302 58.8111 52.705 58.8936 52.6777 58.9719C52.5946 59.2124 52.5081 59.4468 52.4215 59.6826ZM37.2552 73.4494C37.134 73.4187 37.0127 73.3867 36.8921 73.3499C36.6836 73.2872 36.4758 73.2136 36.2686 73.1339C36.1549 73.0903 36.0404 73.0494 35.9266 73.0003C35.699 72.9015 35.4728 72.7884 35.2466 72.6699C35.1573 72.6229 35.0667 72.5827 34.9781 72.5322C34.6647 72.3565 34.3547 72.163 34.0467 71.949C34.0004 71.9163 33.9554 71.8782 33.9091 71.8448C33.6495 71.6581 33.3913 71.4612 33.1358 71.2486C33.0302 71.16 32.9259 71.0626 32.821 70.9692C32.6268 70.7982 32.4333 70.6231 32.2418 70.4364C32.1253 70.3226 32.0102 70.2027 31.8943 70.0828C31.7172 69.8995 31.5414 69.7108 31.367 69.5145C31.2498 69.3823 31.1326 69.2474 31.0167 69.1091C30.8444 68.9047 30.6747 68.6921 30.5064 68.4748C30.396 68.3331 30.285 68.1927 30.176 68.0448C29.9968 67.803 29.8217 67.5488 29.6465 67.2919C29.5532 67.155 29.4578 67.0235 29.3651 66.8818C29.1055 66.4852 28.85 66.075 28.6007 65.6472C28.5536 65.5668 28.5094 65.4795 28.463 65.3978C28.2586 65.0401 28.0569 64.6749 27.86 64.2967C27.7687 64.1202 27.6808 63.9356 27.5909 63.755C27.443 63.4586 27.2965 63.1609 27.1541 62.8529C27.0581 62.6458 26.964 62.4318 26.87 62.2193C26.7392 61.9222 26.6097 61.6217 26.483 61.3151C26.3903 61.0902 26.299 60.8634 26.2084 60.6337C26.0858 60.3203 25.9659 60.0001 25.8473 59.6764C25.7621 59.4441 25.677 59.2124 25.5945 58.9753C25.5666 58.8956 25.5407 58.8125 25.5134 58.7321C25.5734 58.7069 25.6334 58.6783 25.6933 58.653C26.5287 58.3028 27.3715 57.9867 28.2218 57.7039C28.4017 57.644 28.5829 57.5901 28.7635 57.5336C29.5954 57.2713 30.4335 57.0341 31.2784 56.8359C31.3404 56.8216 31.401 56.8032 31.4624 56.7889C32.3495 56.5865 33.2441 56.4305 34.1435 56.2996C34.3411 56.2703 34.5387 56.2417 34.7369 56.2165C35.6234 56.1027 36.5139 56.0182 37.4099 55.9733C37.4535 55.9712 37.4971 55.9719 37.5407 55.9699V73.5086C37.4453 73.4889 37.3499 73.4732 37.2552 73.4494ZM23.8319 52.5576C23.5763 51.3578 23.357 50.1327 23.1689 48.8885C23.1376 48.6814 23.0933 48.4818 23.064 48.2733C22.8589 46.8227 22.7069 45.3441 22.5952 43.8513C22.5618 43.4016 22.5509 42.9444 22.5257 42.4913C22.4841 41.7336 22.4637 40.9712 22.446 40.2067H37.5407V52.7689C37.4767 52.7716 37.414 52.7825 37.3499 52.7852C36.3872 52.8302 35.4299 52.9147 34.478 53.0332C34.2668 53.0591 34.0563 53.0918 33.8451 53.1211C32.93 53.2506 32.019 53.4066 31.1155 53.6035C31.0433 53.6192 30.9697 53.6301 30.8968 53.6464C29.9429 53.8604 28.9979 54.1234 28.059 54.4123C27.8478 54.477 27.6365 54.5424 27.4267 54.6112C26.4953 54.9158 25.57 55.249 24.6556 55.6265C24.6399 55.6333 24.6243 55.6374 24.6093 55.6435C24.4519 55.0671 24.2911 54.494 24.1507 53.9033C24.0438 53.455 23.9293 53.0135 23.8319 52.5576ZM22.5952 33.3741C22.7069 31.8806 22.8589 30.4013 23.064 28.9494C23.0933 28.745 23.1362 28.5487 23.1669 28.3457C23.3556 27.0974 23.5757 25.8683 23.8325 24.665C23.9293 24.2105 24.0431 23.7704 24.1494 23.3234C24.2904 22.7313 24.4519 22.1569 24.6093 21.5791C24.6243 21.586 24.6399 21.59 24.6556 21.5962C25.5707 21.9743 26.496 22.3075 27.4281 22.6121C27.6372 22.6802 27.8471 22.7456 28.0569 22.8103C28.9965 23.0992 29.9416 23.3622 30.8955 23.5762C30.9697 23.5925 31.0454 23.6041 31.1196 23.6198C32.0224 23.8167 32.9327 23.9721 33.8471 24.1015C34.057 24.1315 34.2661 24.1635 34.4767 24.1894C35.4285 24.308 36.3858 24.3925 37.3486 24.4374C37.4133 24.4402 37.476 24.4511 37.5407 24.4538V37.0173H22.446C22.4637 36.2528 22.4841 35.4904 22.5264 34.732C22.5509 34.2796 22.5618 33.8238 22.5952 33.3741ZM43.7949 24.1894C44.0054 24.1635 44.2146 24.1315 44.4245 24.1015C45.3375 23.9727 46.2471 23.8174 47.1485 23.6212C47.2241 23.6041 47.3011 23.5932 47.3768 23.5762C48.3266 23.3629 49.2668 23.1013 50.2017 22.8144C50.4211 22.747 50.6398 22.6788 50.8578 22.6073C51.7783 22.3068 52.6927 21.9777 53.5969 21.605C53.618 21.5955 53.6405 21.5894 53.6623 21.5805C53.8183 22.1542 53.9784 22.7238 54.1181 23.3111C54.2258 23.7636 54.3416 24.2092 54.4397 24.6691C54.6952 25.869 54.9146 27.0954 55.1033 28.3395C55.134 28.5453 55.1783 28.7436 55.2069 28.95C55.4127 30.4013 55.5639 31.8812 55.6757 33.3741C55.7091 33.8238 55.72 34.2803 55.7452 34.7327C55.7867 35.4911 55.8079 36.2535 55.8249 37.0173H40.7301V24.4538C40.7949 24.4511 40.8582 24.4402 40.9223 24.4374C41.8857 24.3925 42.843 24.308 43.7949 24.1894ZM55.6757 43.8513C55.5639 45.3434 55.4127 46.822 55.2076 48.2726C55.1776 48.4831 55.1333 48.6848 55.1013 48.894C54.9139 50.1347 54.6945 51.3571 54.4397 52.5536C54.3416 53.0148 54.2258 53.4618 54.1174 53.9156C53.9777 54.5015 53.8183 55.0698 53.6623 55.6421C53.6405 55.6333 53.618 55.6271 53.5969 55.6183C52.6927 55.2449 51.7783 54.9165 50.8578 54.6153C50.6398 54.5438 50.4204 54.4757 50.2017 54.4082C49.2668 54.1213 48.3266 53.8597 47.3768 53.6471C47.3011 53.6301 47.2241 53.6185 47.1478 53.6015C46.2464 53.4059 45.3382 53.2499 44.4245 53.1211C44.2146 53.0911 44.0054 53.0591 43.7949 53.0332C42.8424 52.9147 41.8844 52.8302 40.9209 52.7852C40.8569 52.7825 40.7942 52.7716 40.7301 52.7689V40.2067H55.8249C55.8079 40.9705 55.7867 41.7329 55.7452 42.4906C55.72 42.9437 55.7091 43.4009 55.6757 43.8513ZM64.7343 62.5817C64.4822 62.3555 64.2144 62.147 63.9562 61.9276C63.7252 61.7314 63.4956 61.5331 63.2592 61.3417C62.603 60.8109 61.9292 60.3006 61.2355 59.812C61.1401 59.7453 61.0509 59.6723 60.9555 59.6063C60.159 59.0571 59.3346 58.542 58.4924 58.0494C58.2635 57.9158 58.0277 57.7925 57.7961 57.663C57.4104 57.4484 57.0323 57.2236 56.6377 57.0205C56.6677 56.9135 56.6882 56.7991 56.7182 56.6921C57.0275 55.5706 57.3096 54.4259 57.5596 53.256C57.6026 53.055 57.64 52.852 57.6809 52.6503C57.9316 51.4191 58.1579 50.1715 58.3411 48.8994C58.3425 48.8899 58.3445 48.881 58.3459 48.8715C58.5299 47.5906 58.6689 46.2885 58.7833 44.9769C58.8024 44.7609 58.8235 44.5476 58.8399 44.331C58.9387 43.0704 59.0034 41.7997 59.0368 40.5222C59.0395 40.4166 59.0504 40.313 59.0532 40.2067H74.1847C73.812 48.5969 70.4992 56.4414 64.7343 62.5817ZM59.0532 37.0173C59.0504 36.9117 59.0395 36.8081 59.0368 36.7025C59.0034 35.4236 58.9387 34.1522 58.8399 32.891C58.8235 32.6764 58.8024 32.4652 58.7833 32.2519C58.6689 30.9369 58.5292 29.6314 58.3452 28.347C58.3445 28.3464 58.3445 28.345 58.3445 28.3443C58.1592 27.0566 57.9296 25.7947 57.6761 24.5492C57.638 24.3604 57.6026 24.171 57.5623 23.9836C57.3089 22.7954 57.0227 21.633 56.7072 20.4951C56.6814 20.3997 56.663 20.2975 56.6357 20.2021C57.0214 20.0038 57.39 19.7845 57.7668 19.5753C58.0114 19.439 58.2601 19.3089 58.5006 19.1685C59.3407 18.6772 60.1624 18.1635 60.9562 17.6164C61.0468 17.5537 61.1313 17.4849 61.2205 17.4222C61.9223 16.9296 62.603 16.4131 63.2653 15.8769C63.4963 15.6902 63.7204 15.4967 63.9466 15.3045C64.2076 15.0824 64.4795 14.8712 64.7343 14.6423C70.4992 20.7833 73.812 28.6264 74.1847 37.0173H59.0532ZM62.4218 12.3911C62.216 12.573 62.0191 12.7638 61.8092 12.9409C61.6287 13.0935 61.4495 13.2462 61.2655 13.3947C60.5957 13.9371 59.9103 14.4631 59.1969 14.957C59.1588 14.9836 59.1179 15.0075 59.079 15.034C58.4004 15.5001 57.6973 15.9375 56.9812 16.3593C56.7645 16.4867 56.5451 16.61 56.325 16.7333C56.1056 16.8567 55.876 16.9657 55.6539 17.0842C55.6355 17.0304 55.6144 16.9807 55.596 16.9275C55.4992 16.655 55.397 16.394 55.2975 16.1276C55.1524 15.7386 55.0073 15.3481 54.8553 14.9714C54.7436 14.694 54.6257 14.427 54.5106 14.1558C54.3613 13.8069 54.2121 13.4574 54.0575 13.1201C53.9335 12.8503 53.8054 12.59 53.6779 12.3277C53.5219 12.0068 53.3652 11.6872 53.2037 11.3779C53.0709 11.1231 52.9346 10.8764 52.7983 10.6291C52.6334 10.3306 52.4679 10.0356 52.2982 9.74945C52.1572 9.51166 52.0141 9.28068 51.8696 9.05106C51.6966 8.77511 51.5221 8.50393 51.3443 8.24025C51.1958 8.02017 51.0459 7.80554 50.8946 7.59432C50.7134 7.34086 50.5301 7.09489 50.3448 6.85437C50.1894 6.65201 50.032 6.45305 49.8733 6.25955C49.6866 6.03129 49.4965 5.8119 49.3057 5.59659C49.1415 5.41126 48.9773 5.2273 48.8097 5.05082C48.7388 4.97588 48.67 4.89207 48.5984 4.81848C53.6827 6.23911 58.3977 8.8085 62.4218 12.3911ZM29.4633 5.04946C29.2922 5.22934 29.1239 5.41739 28.9556 5.60749C28.7724 5.81531 28.5898 6.02584 28.4099 6.24456C28.2416 6.45033 28.0747 6.66155 27.9091 6.87754C27.736 7.10239 27.565 7.33268 27.3953 7.56843C27.2318 7.79669 27.0697 8.02903 26.9095 8.26682C26.7453 8.51143 26.5832 8.76285 26.4224 9.01836C26.2663 9.26637 26.1117 9.51643 25.959 9.77398C25.801 10.0411 25.647 10.3163 25.493 10.5936C25.3465 10.858 25.2007 11.1224 25.0583 11.3956C24.905 11.6899 24.7565 11.9938 24.6079 12.2991C24.4737 12.5737 24.3395 12.8469 24.2093 13.1303C24.0587 13.4587 23.9136 13.7981 23.7685 14.1381C23.6499 14.4154 23.5293 14.69 23.4142 14.9748C23.2636 15.3488 23.1198 15.7358 22.9754 16.1222C22.8752 16.3906 22.7724 16.6536 22.6749 16.9282C22.6565 16.9807 22.6361 17.0304 22.617 17.0836C22.3881 16.9609 22.1516 16.8485 21.9254 16.7218C21.719 16.6059 21.5125 16.4894 21.3088 16.3695C20.575 15.9382 19.8548 15.4899 19.1598 15.0122C19.1339 14.9938 19.1067 14.9782 19.0808 14.9605C18.3653 14.4651 17.6785 13.9377 17.0067 13.394C16.8234 13.2455 16.6436 13.0929 16.4637 12.9409C16.2531 12.7638 16.0562 12.573 15.8511 12.3911C19.8739 8.80918 24.5882 6.24115 29.6731 4.81848C29.6016 4.89139 29.5341 4.97451 29.4633 5.04946ZM13.5386 14.6423C13.7894 14.8678 14.0565 15.0756 14.3133 15.2936C14.5477 15.4926 14.7794 15.6929 15.0185 15.8857C15.6631 16.407 16.3254 16.9085 17.0067 17.3881C17.1137 17.4638 17.2152 17.5462 17.3236 17.6211C18.1146 18.1669 18.935 18.6793 19.7723 19.1692C20.0101 19.3075 20.2547 19.4363 20.4959 19.5705C20.8755 19.7817 21.2468 20.0025 21.6352 20.2021C21.6079 20.2982 21.5895 20.4004 21.5629 20.4965C21.2482 21.6343 20.962 22.7954 20.7085 23.983C20.6683 24.1717 20.6329 24.3625 20.5941 24.5519C20.342 25.792 20.1137 27.0491 19.9291 28.3307C19.9277 28.3375 19.9263 28.3443 19.9256 28.3511C19.7417 29.6314 19.6027 30.9328 19.4882 32.2437C19.4691 32.4617 19.448 32.6777 19.431 32.8958C19.3322 34.1542 19.2675 35.4216 19.2348 36.6964C19.232 36.804 19.2204 36.9096 19.2184 37.0173H4.08686C4.45888 28.6264 7.77163 20.7833 13.5386 14.6423ZM19.2184 40.2067C19.2204 40.3144 19.232 40.42 19.2348 40.5276C19.2675 41.8024 19.3322 43.0704 19.431 44.3282C19.448 44.5469 19.4691 44.7623 19.4882 44.9803C19.6027 46.2912 19.7417 47.5933 19.9256 48.8736C19.9263 48.8797 19.9277 48.8858 19.9291 48.8926C20.113 50.1749 20.342 51.432 20.5947 52.6728C20.6329 52.8615 20.6683 53.0523 20.7085 53.2404C20.962 54.428 21.2482 55.5904 21.5636 56.7289C21.5902 56.8236 21.6086 56.9258 21.6352 57.0205C21.2468 57.2202 20.8755 57.4409 20.4959 57.6521C20.2547 57.7864 20.0095 57.9151 19.7717 58.0541C18.9336 58.544 18.1132 59.0564 17.3215 59.6029C17.2139 59.6771 17.1137 59.7589 17.0074 59.8338C16.326 60.3142 15.6645 60.815 15.0199 61.3362C14.778 61.5318 14.5429 61.7348 14.3065 61.9365C14.0517 62.1532 13.7866 62.3589 13.5386 62.5817C7.77163 56.4393 4.45888 48.5969 4.08686 40.2067H19.2184Z" fill="#275CDC"/>
</svg>
