<svg width="89" height="77" viewBox="0 0 89 77" fill="none" xmlns="http://www.w3.org/2000/svg">
<path d="M84.8635 36.2627H81.1863V19.715C81.1863 16.6733 78.7126 14.1996 75.6709 14.1996H62.2654L57.2559 6.72978C55.926 4.07461 52.7029 2.94263 50.043 4.18145L45.7735 6.02279L44.4537 3.19243C43.1686 0.435921 39.8787 -0.761264 37.1724 0.504265L5.30956 14.2491C2.50121 14.5021 0.285156 16.8422 0.285156 19.715V71.1995C0.285156 74.2411 2.75965 76.7148 5.80132 76.7148H75.6709C78.7126 76.7148 81.1863 74.2411 81.1863 71.1995V54.6494H84.8635C86.8918 54.6494 88.5414 52.999 88.5414 50.9722V39.9407C88.5414 37.9132 86.8918 36.2627 84.8635 36.2627ZM51.5473 7.53576C52.4703 7.10842 53.5638 7.50748 53.992 8.42501C54.0312 8.51064 54.0784 8.59391 54.131 8.67089L57.8357 14.1941H49.5826L47.3273 9.35668L51.5473 7.53576ZM38.6768 3.85858C38.9282 3.74232 39.1921 3.68655 39.4521 3.68655C40.1458 3.68655 40.8096 4.07932 41.1214 4.74783L45.526 14.1941L14.7095 14.1973L38.6768 3.85858ZM77.5091 71.1995C77.5091 72.2136 76.6843 73.0377 75.6709 73.0377H5.80132C4.78717 73.0377 3.96234 72.2136 3.96234 71.1995V19.715C3.96234 18.7009 4.78717 17.8768 5.80132 17.8768H75.6709C76.6843 17.8768 77.5091 18.7009 77.5091 19.715V36.2627H66.4776C64.4493 36.2627 62.8004 37.9132 62.8004 39.9407V50.9722C62.8004 52.999 64.4493 54.6494 66.4776 54.6494H77.5091V71.1995ZM84.8635 50.9722H66.4776V47.295H70.1547C71.1697 47.295 71.9929 46.4726 71.9929 45.4561C71.9929 44.4403 71.1697 43.6179 70.1547 43.6179H66.4776V39.9407H84.8635V50.9722Z" fill="#275CDC"/>
</svg>
