<svg width="70" height="87" viewBox="0 0 70 87" fill="none" xmlns="http://www.w3.org/2000/svg">
<path d="M64.208 32.6458H58.741V25.0518C58.741 11.4209 48.1147 0.332031 35.0523 0.332031C21.9891 0.332031 11.3628 11.4209 11.3628 25.0518V32.6458H5.89584C2.88132 32.6458 0.429688 35.0701 0.429688 38.0501V81.2834C0.429688 84.2634 2.88132 86.6877 5.89584 86.6877H64.208C67.2225 86.6877 69.6741 84.2634 69.6741 81.2834V38.0501C69.6741 35.0701 67.2225 32.6458 64.208 32.6458ZM48.3685 32.6458H21.7361V25.0518C21.7361 17.2962 27.7099 10.9868 35.0523 10.9868C42.3947 10.9868 48.3685 17.2962 48.3685 25.0518V32.6458ZM15.0071 25.0518C15.0071 13.4081 23.9993 3.93467 35.0523 3.93467C46.1045 3.93467 55.0967 13.4081 55.0967 25.0518V32.6458H52.0129V25.0518C52.0129 15.3098 44.4042 7.38339 35.0523 7.38339C25.6997 7.38339 18.0909 15.3098 18.0909 25.0518V32.6458H15.0071V25.0518ZM66.0298 81.2834C66.0298 82.2762 65.2123 83.0843 64.208 83.0843H5.89584C4.89152 83.0843 4.07405 82.2762 4.07405 81.2834V38.0501C4.07405 37.0573 4.89152 36.2492 5.89584 36.2492H64.208C65.2123 36.2492 66.0298 37.0573 66.0298 38.0501V81.2834Z" fill="#275CDC"/>
<path d="M35.0529 57.977C32.0383 57.977 29.5859 60.4013 29.5859 63.3813C29.5859 65.7272 31.1142 67.7082 33.2311 68.454V74.1893C33.2311 75.1844 34.047 75.991 35.0536 75.991C36.0595 75.991 36.8754 75.1844 36.8754 74.1893V68.4532C38.9915 67.7074 40.519 65.7264 40.519 63.3813C40.519 60.4013 38.0674 57.977 35.0529 57.977ZM35.0529 61.5796C36.0572 61.5796 36.8747 62.3885 36.8747 63.3813C36.8747 64.3742 36.0572 65.183 35.0529 65.183C34.0478 65.183 33.2303 64.3742 33.2303 63.3813C33.2303 62.3885 34.0478 61.5796 35.0529 61.5796Z" fill="#275CDC"/>
</svg>
