<svg width="88" height="88" viewBox="0 0 88 88" fill="none" xmlns="http://www.w3.org/2000/svg">
<path d="M44 0C19.7388 0 0 19.7388 0 44C0 68.2612 19.7388 88 44 88C68.2612 88 88 68.2612 88 44C88 19.7388 68.2612 0 44 0ZM44 84.3334C21.7601 84.3334 3.66661 66.2399 3.66661 44C3.66661 21.7601 21.7601 3.66661 44 3.66661C66.2399 3.66661 84.3334 21.7601 84.3334 44C84.3334 66.2399 66.2399 84.3334 44 84.3334Z" fill="#275CDC"/>
<path d="M59.2034 50.037L45.8328 63.4075V20.1665C45.8328 19.1531 45.0128 18.3331 43.9995 18.3331C42.9861 18.3331 42.1661 19.1531 42.1661 20.1665V63.4073L28.7956 50.0368C28.0794 49.3206 26.9192 49.3206 26.2032 50.0368C25.487 50.7531 25.487 51.9132 26.2032 52.6292L42.7032 69.1292C43.0612 69.4873 43.5304 69.6664 43.9995 69.6664C44.4685 69.6664 44.9376 69.4873 45.2957 69.1292L61.7957 52.6292C62.5119 51.913 62.5119 50.7529 61.7957 50.0368C61.0795 49.3208 59.9196 49.3208 59.2034 50.037Z" fill="#275CDC"/>
</svg>
